<svg xmlns="http://www.w3.org/2000/svg" xmlns:xlink="http://www.w3.org/1999/xlink" width="500" zoomAndPan="magnify" viewBox="0 0 375 374.999991" height="500" preserveAspectRatio="xMidYMid meet" version="1.0"><defs><g/><clipPath id="6b025d3e18"><path d="M 75.441406 98 L 209 98 L 209 261 L 75.441406 261 Z M 75.441406 98 " clip-rule="nonzero"/></clipPath><clipPath id="59a14e786f"><path d="M 75.441406 133 L 294 133 L 294 142 L 75.441406 142 Z M 75.441406 133 " clip-rule="nonzero"/></clipPath><clipPath id="1d525c1f98"><path d="M 94 82.347656 L 119 82.347656 L 119 122 L 94 122 Z M 94 82.347656 " clip-rule="nonzero"/></clipPath><clipPath id="f668fd8f52"><path d="M 130 82.347656 L 154 82.347656 L 154 122 L 130 122 Z M 130 82.347656 " clip-rule="nonzero"/></clipPath><clipPath id="d89af1ccca"><path d="M 215 82.347656 L 240 82.347656 L 240 122 L 215 122 Z M 215 82.347656 " clip-rule="nonzero"/></clipPath><clipPath id="219e87aa3c"><path d="M 250 82.347656 L 275 82.347656 L 275 122 L 250 122 Z M 250 82.347656 " clip-rule="nonzero"/></clipPath><clipPath id="7eae64f6af"><path d="M 200 194 L 325.191406 194 L 325.191406 318.597656 L 200 318.597656 Z M 200 194 " clip-rule="nonzero"/></clipPath></defs><path fill="#fc8eac" d="M 254.898438 106.023438 L 235.390625 106.023438 C 233.234375 106.023438 231.488281 104.277344 231.488281 102.125 C 231.488281 99.96875 233.234375 98.222656 235.390625 98.222656 L 254.898438 98.222656 C 257.050781 98.222656 258.796875 99.96875 258.796875 102.125 C 258.796875 104.277344 257.050781 106.023438 254.898438 106.023438 Z M 254.898438 106.023438 " fill-opacity="1" fill-rule="nonzero"/><path fill="#fc8eac" d="M 133.957031 106.023438 L 114.453125 106.023438 C 112.296875 106.023438 110.550781 104.277344 110.550781 102.125 C 110.550781 99.96875 112.296875 98.222656 114.453125 98.222656 L 133.957031 98.222656 C 136.113281 98.222656 137.859375 99.96875 137.859375 102.125 C 137.859375 104.277344 136.113281 106.023438 133.957031 106.023438 Z M 133.957031 106.023438 " fill-opacity="1" fill-rule="nonzero"/><path fill="#fc8eac" d="M 290.007812 208.921875 C 287.851562 208.921875 286.105469 207.171875 286.105469 205.019531 L 286.105469 106.023438 L 270.5 106.023438 C 268.347656 106.023438 266.601562 104.277344 266.601562 102.125 C 266.601562 99.96875 268.347656 98.222656 270.5 98.222656 L 290.007812 98.222656 C 292.164062 98.222656 293.910156 99.96875 293.910156 102.125 L 293.910156 205.019531 C 293.910156 207.171875 292.164062 208.921875 290.007812 208.921875 Z M 290.007812 208.921875 " fill-opacity="1" fill-rule="nonzero"/><g clip-path="url(#6b025d3e18)"><path fill="#fc8eac" d="M 204.179688 260.125 L 79.339844 260.125 C 77.1875 260.125 75.441406 258.378906 75.441406 256.222656 L 75.441406 102.125 C 75.441406 99.96875 77.1875 98.222656 79.339844 98.222656 L 98.847656 98.222656 C 101 98.222656 102.75 99.96875 102.75 102.125 C 102.75 104.277344 101 106.023438 98.847656 106.023438 L 83.242188 106.023438 L 83.242188 252.320312 L 204.179688 252.320312 C 206.335938 252.320312 208.082031 254.066406 208.082031 256.222656 C 208.082031 258.378906 206.335938 260.125 204.179688 260.125 Z M 204.179688 260.125 " fill-opacity="1" fill-rule="nonzero"/></g><path fill="#fc8eac" d="M 219.785156 106.023438 L 149.5625 106.023438 C 147.410156 106.023438 145.660156 104.277344 145.660156 102.125 C 145.660156 99.96875 147.410156 98.222656 149.5625 98.222656 L 219.785156 98.222656 C 221.941406 98.222656 223.6875 99.96875 223.6875 102.125 C 223.6875 104.277344 221.941406 106.023438 219.785156 106.023438 Z M 219.785156 106.023438 " fill-opacity="1" fill-rule="nonzero"/><g clip-path="url(#59a14e786f)"><path fill="#fc8eac" d="M 290.007812 141.136719 L 79.339844 141.136719 C 77.1875 141.136719 75.441406 139.390625 75.441406 137.234375 C 75.441406 135.082031 77.1875 133.332031 79.339844 133.332031 L 290.007812 133.332031 C 292.164062 133.332031 293.910156 135.082031 293.910156 137.234375 C 293.910156 139.390625 292.164062 141.136719 290.007812 141.136719 Z M 290.007812 141.136719 " fill-opacity="1" fill-rule="nonzero"/></g><g clip-path="url(#1d525c1f98)"><path fill="#fc8eac" d="M 106.648438 121.386719 C 100.195312 121.386719 94.945312 116.136719 94.945312 109.683594 L 94.945312 94.078125 C 94.945312 87.625 100.195312 82.375 106.648438 82.375 C 113.101562 82.375 118.351562 87.625 118.351562 94.078125 L 118.351562 109.683594 C 118.351562 116.136719 113.101562 121.386719 106.648438 121.386719 Z M 106.648438 90.175781 C 104.5 90.175781 102.75 91.925781 102.75 94.078125 L 102.75 109.683594 C 102.75 111.832031 104.5 113.582031 106.648438 113.582031 C 108.800781 113.582031 110.550781 111.832031 110.550781 109.683594 L 110.550781 94.078125 C 110.550781 91.925781 108.800781 90.175781 106.648438 90.175781 Z M 106.648438 90.175781 " fill-opacity="1" fill-rule="nonzero"/></g><g clip-path="url(#f668fd8f52)"><path fill="#fc8eac" d="M 141.761719 121.386719 C 135.308594 121.386719 130.058594 116.136719 130.058594 109.683594 L 130.058594 94.078125 C 130.058594 87.625 135.308594 82.375 141.761719 82.375 C 148.214844 82.375 153.464844 87.625 153.464844 94.078125 L 153.464844 109.683594 C 153.464844 116.136719 148.214844 121.386719 141.761719 121.386719 Z M 141.761719 90.175781 C 139.609375 90.175781 137.859375 91.925781 137.859375 94.078125 L 137.859375 109.683594 C 137.859375 111.832031 139.609375 113.582031 141.761719 113.582031 C 143.910156 113.582031 145.660156 111.832031 145.660156 109.683594 L 145.660156 94.078125 C 145.660156 91.925781 143.910156 90.175781 141.761719 90.175781 Z M 141.761719 90.175781 " fill-opacity="1" fill-rule="nonzero"/></g><g clip-path="url(#d89af1ccca)"><path fill="#fc8eac" d="M 227.589844 121.386719 C 221.136719 121.386719 215.882812 116.136719 215.882812 109.683594 L 215.882812 94.078125 C 215.882812 87.625 221.136719 82.375 227.589844 82.375 C 234.042969 82.375 239.292969 87.625 239.292969 94.078125 L 239.292969 109.683594 C 239.292969 116.136719 234.042969 121.386719 227.589844 121.386719 Z M 227.589844 90.175781 C 225.4375 90.175781 223.6875 91.925781 223.6875 94.078125 L 223.6875 109.683594 C 223.6875 111.832031 225.4375 113.582031 227.589844 113.582031 C 229.738281 113.582031 231.488281 111.832031 231.488281 109.683594 L 231.488281 94.078125 C 231.488281 91.925781 229.738281 90.175781 227.589844 90.175781 Z M 227.589844 90.175781 " fill-opacity="1" fill-rule="nonzero"/></g><g clip-path="url(#219e87aa3c)"><path fill="#fc8eac" d="M 262.699219 121.386719 C 256.246094 121.386719 250.996094 116.136719 250.996094 109.683594 L 250.996094 94.078125 C 250.996094 87.625 256.246094 82.375 262.699219 82.375 C 269.152344 82.375 274.402344 87.625 274.402344 94.078125 L 274.402344 109.683594 C 274.402344 116.136719 269.152344 121.386719 262.699219 121.386719 Z M 262.699219 90.175781 C 260.546875 90.175781 258.796875 91.925781 258.796875 94.078125 L 258.796875 109.683594 C 258.796875 111.832031 260.546875 113.582031 262.699219 113.582031 C 264.851562 113.582031 266.601562 111.832031 266.601562 109.683594 L 266.601562 94.078125 C 266.601562 91.925781 264.851562 90.175781 262.699219 90.175781 Z M 262.699219 90.175781 " fill-opacity="1" fill-rule="nonzero"/></g><path fill="#fc8eac" d="M 114.453125 176.003906 L 98.847656 176.003906 C 96.691406 176.003906 94.945312 174.257812 94.945312 172.101562 L 94.945312 156.496094 C 94.945312 154.34375 96.691406 152.597656 98.847656 152.597656 L 114.453125 152.597656 C 116.605469 152.597656 118.351562 154.34375 118.351562 156.496094 L 118.351562 172.101562 C 118.351562 174.257812 116.605469 176.003906 114.453125 176.003906 Z M 102.75 168.199219 L 110.550781 168.199219 L 110.550781 160.398438 L 102.75 160.398438 Z M 102.75 168.199219 " fill-opacity="1" fill-rule="nonzero"/><path fill="#fc8eac" d="M 145.660156 176.003906 L 130.058594 176.003906 C 127.902344 176.003906 126.15625 174.257812 126.15625 172.101562 L 126.15625 156.496094 C 126.15625 154.34375 127.902344 152.597656 130.058594 152.597656 L 145.660156 152.597656 C 147.816406 152.597656 149.5625 154.34375 149.5625 156.496094 L 149.5625 172.101562 C 149.5625 174.257812 147.816406 176.003906 145.660156 176.003906 Z M 133.957031 168.199219 L 141.761719 168.199219 L 141.761719 160.398438 L 133.957031 160.398438 Z M 133.957031 168.199219 " fill-opacity="1" fill-rule="nonzero"/><path fill="#fc8eac" d="M 176.871094 176.003906 L 161.265625 176.003906 C 159.113281 176.003906 157.367188 174.257812 157.367188 172.101562 L 157.367188 156.496094 C 157.367188 154.34375 159.113281 152.597656 161.265625 152.597656 L 176.871094 152.597656 C 179.027344 152.597656 180.773438 154.34375 180.773438 156.496094 L 180.773438 172.101562 C 180.773438 174.257812 179.027344 176.003906 176.871094 176.003906 Z M 165.167969 168.199219 L 172.96875 168.199219 L 172.96875 160.398438 L 165.167969 160.398438 Z M 165.167969 168.199219 " fill-opacity="1" fill-rule="nonzero"/><path fill="#fc8eac" d="M 208.082031 176.003906 L 192.476562 176.003906 C 190.324219 176.003906 188.574219 174.257812 188.574219 172.101562 L 188.574219 156.496094 C 188.574219 154.34375 190.324219 152.597656 192.476562 152.597656 L 208.082031 152.597656 C 210.234375 152.597656 211.984375 154.34375 211.984375 156.496094 L 211.984375 172.101562 C 211.984375 174.257812 210.234375 176.003906 208.082031 176.003906 Z M 196.378906 168.199219 L 204.179688 168.199219 L 204.179688 160.398438 L 196.378906 160.398438 Z M 196.378906 168.199219 " fill-opacity="1" fill-rule="nonzero"/><path fill="#fc8eac" d="M 239.292969 176.003906 L 223.6875 176.003906 C 221.53125 176.003906 219.785156 174.257812 219.785156 172.101562 L 219.785156 156.496094 C 219.785156 154.34375 221.53125 152.597656 223.6875 152.597656 L 239.292969 152.597656 C 241.445312 152.597656 243.191406 154.34375 243.191406 156.496094 L 243.191406 172.101562 C 243.191406 174.257812 241.445312 176.003906 239.292969 176.003906 Z M 227.589844 168.199219 L 235.390625 168.199219 L 235.390625 160.398438 L 227.589844 160.398438 Z M 227.589844 168.199219 " fill-opacity="1" fill-rule="nonzero"/><path fill="#fc8eac" d="M 270.5 176.003906 L 254.898438 176.003906 C 252.742188 176.003906 250.996094 174.257812 250.996094 172.101562 L 250.996094 156.496094 C 250.996094 154.34375 252.742188 152.597656 254.898438 152.597656 L 270.5 152.597656 C 272.65625 152.597656 274.402344 154.34375 274.402344 156.496094 L 274.402344 172.101562 C 274.402344 174.257812 272.65625 176.003906 270.5 176.003906 Z M 258.796875 168.199219 L 266.601562 168.199219 L 266.601562 160.398438 L 258.796875 160.398438 Z M 258.796875 168.199219 " fill-opacity="1" fill-rule="nonzero"/><path fill="#fc8eac" d="M 114.453125 207.214844 L 98.847656 207.214844 C 96.691406 207.214844 94.945312 205.464844 94.945312 203.3125 L 94.945312 187.707031 C 94.945312 185.550781 96.691406 183.804688 98.847656 183.804688 L 114.453125 183.804688 C 116.605469 183.804688 118.351562 185.550781 118.351562 187.707031 L 118.351562 203.3125 C 118.351562 205.464844 116.605469 207.214844 114.453125 207.214844 Z M 102.75 199.410156 L 110.550781 199.410156 L 110.550781 191.609375 L 102.75 191.609375 Z M 102.75 199.410156 " fill-opacity="1" fill-rule="nonzero"/><path fill="#fc8eac" d="M 176.871094 207.214844 L 161.265625 207.214844 C 159.113281 207.214844 157.367188 205.464844 157.367188 203.3125 L 157.367188 187.707031 C 157.367188 185.550781 159.113281 183.804688 161.265625 183.804688 L 176.871094 183.804688 C 179.027344 183.804688 180.773438 185.550781 180.773438 187.707031 L 180.773438 203.3125 C 180.773438 205.464844 179.027344 207.214844 176.871094 207.214844 Z M 165.167969 199.410156 L 172.96875 199.410156 L 172.96875 191.609375 L 165.167969 191.609375 Z M 165.167969 199.410156 " fill-opacity="1" fill-rule="nonzero"/><path fill="#fc8eac" d="M 208.082031 207.214844 L 192.476562 207.214844 C 190.324219 207.214844 188.574219 205.464844 188.574219 203.3125 L 188.574219 187.707031 C 188.574219 185.550781 190.324219 183.804688 192.476562 183.804688 L 208.082031 183.804688 C 210.234375 183.804688 211.984375 185.550781 211.984375 187.707031 L 211.984375 203.3125 C 211.984375 205.464844 210.234375 207.214844 208.082031 207.214844 Z M 196.378906 199.410156 L 204.179688 199.410156 L 204.179688 191.609375 L 196.378906 191.609375 Z M 196.378906 199.410156 " fill-opacity="1" fill-rule="nonzero"/><path fill="#fc8eac" d="M 114.453125 238.421875 L 98.847656 238.421875 C 96.691406 238.421875 94.945312 236.675781 94.945312 234.523438 L 94.945312 218.917969 C 94.945312 216.761719 96.691406 215.015625 98.847656 215.015625 L 114.453125 215.015625 C 116.605469 215.015625 118.351562 216.761719 118.351562 218.917969 L 118.351562 234.523438 C 118.351562 236.675781 116.605469 238.421875 114.453125 238.421875 Z M 102.75 230.621094 L 110.550781 230.621094 L 110.550781 222.816406 L 102.75 222.816406 Z M 102.75 230.621094 " fill-opacity="1" fill-rule="nonzero"/><path fill="#fc8eac" d="M 145.660156 238.421875 L 130.058594 238.421875 C 127.902344 238.421875 126.15625 236.675781 126.15625 234.523438 L 126.15625 218.917969 C 126.15625 216.761719 127.902344 215.015625 130.058594 215.015625 L 145.660156 215.015625 C 147.816406 215.015625 149.5625 216.761719 149.5625 218.917969 L 149.5625 234.523438 C 149.5625 236.675781 147.816406 238.421875 145.660156 238.421875 Z M 133.957031 230.621094 L 141.761719 230.621094 L 141.761719 222.816406 L 133.957031 222.816406 Z M 133.957031 230.621094 " fill-opacity="1" fill-rule="nonzero"/><path fill="#fc8eac" d="M 176.871094 238.421875 L 161.265625 238.421875 C 159.113281 238.421875 157.367188 236.675781 157.367188 234.523438 L 157.367188 218.917969 C 157.367188 216.761719 159.113281 215.015625 161.265625 215.015625 L 176.871094 215.015625 C 179.027344 215.015625 180.773438 216.761719 180.773438 218.917969 L 180.773438 234.523438 C 180.773438 236.675781 179.027344 238.421875 176.871094 238.421875 Z M 165.167969 230.621094 L 172.96875 230.621094 L 172.96875 222.816406 L 165.167969 222.816406 Z M 165.167969 230.621094 " fill-opacity="1" fill-rule="nonzero"/><g clip-path="url(#7eae64f6af)"><path fill="#fc8eac" d="M 262.699219 318.886719 C 228.28125 318.886719 200.28125 290.882812 200.28125 256.464844 C 200.28125 222.046875 228.28125 194.046875 262.699219 194.046875 C 272.851562 194.046875 282.925781 196.539062 291.832031 201.253906 C 312.363281 212.101562 325.121094 233.257812 325.121094 256.464844 C 325.121094 290.882812 297.117188 318.886719 262.699219 318.886719 Z M 262.699219 201.847656 C 232.582031 201.847656 208.082031 226.351562 208.082031 256.464844 C 208.082031 286.582031 232.582031 311.082031 262.699219 311.082031 C 292.816406 311.082031 317.316406 286.582031 317.316406 256.464844 C 317.316406 236.160156 306.152344 217.644531 288.1875 208.152344 C 280.394531 204.027344 271.582031 201.847656 262.699219 201.847656 Z M 262.699219 201.847656 " fill-opacity="1" fill-rule="nonzero"/></g><path fill="#fc8eac" d="M 256.945312 272.355469 C 255.945312 272.355469 254.949219 271.976562 254.1875 271.214844 L 240.394531 257.421875 C 238.871094 255.894531 238.871094 253.425781 240.394531 251.902344 C 241.917969 250.378906 244.386719 250.378906 245.910156 251.902344 L 256.945312 262.9375 L 287.289062 232.59375 C 288.8125 231.070312 291.28125 231.070312 292.808594 232.59375 C 294.332031 234.117188 294.332031 236.585938 292.808594 238.109375 L 259.703125 271.214844 C 258.941406 271.976562 257.945312 272.355469 256.945312 272.355469 Z M 256.945312 272.355469 " fill-opacity="1" fill-rule="nonzero"/><path fill="#fc8eac" d="M 135.101562 204.515625 C 134.101562 204.515625 133.105469 204.136719 132.34375 203.375 L 126.824219 197.855469 C 125.300781 196.332031 125.300781 193.863281 126.824219 192.339844 C 128.347656 190.816406 130.816406 190.816406 132.339844 192.339844 L 135.101562 195.097656 L 143.375 186.824219 C 144.898438 185.300781 147.371094 185.300781 148.894531 186.824219 C 150.417969 188.347656 150.417969 190.816406 148.894531 192.339844 L 137.859375 203.375 C 137.097656 204.136719 136.097656 204.515625 135.101562 204.515625 Z M 135.101562 204.515625 " fill-opacity="1" fill-rule="nonzero"/><g fill="#000000" fill-opacity="1"><g transform="translate(188.6038, 271.01706)"><g><path d="M 0.6875 0.03125 C 0.582031 0.03125 0.488281 0.00390625 0.40625 -0.046875 C 0.320312 -0.0976562 0.253906 -0.175781 0.203125 -0.28125 C 0.160156 -0.382812 0.140625 -0.515625 0.140625 -0.671875 C 0.140625 -0.816406 0.164062 -0.941406 0.21875 -1.046875 C 0.269531 -1.148438 0.335938 -1.226562 0.421875 -1.28125 C 0.503906 -1.332031 0.601562 -1.359375 0.71875 -1.359375 C 0.800781 -1.359375 0.878906 -1.335938 0.953125 -1.296875 C 1.023438 -1.265625 1.085938 -1.210938 1.140625 -1.140625 L 1.15625 -1.140625 L 1.15625 -1.859375 L 1.359375 -1.859375 L 1.359375 0 L 1.15625 0 L 1.15625 -0.1875 L 1.140625 -0.203125 C 1.085938 -0.128906 1.023438 -0.0703125 0.953125 -0.03125 C 0.878906 0.0078125 0.789062 0.03125 0.6875 0.03125 Z M 0.75 -0.15625 C 0.875 -0.15625 0.972656 -0.195312 1.046875 -0.28125 C 1.117188 -0.363281 1.15625 -0.492188 1.15625 -0.671875 C 1.15625 -0.835938 1.117188 -0.960938 1.046875 -1.046875 C 0.972656 -1.128906 0.875 -1.171875 0.75 -1.171875 C 0.625 -1.171875 0.523438 -1.128906 0.453125 -1.046875 C 0.390625 -0.972656 0.359375 -0.847656 0.359375 -0.671875 C 0.359375 -0.328125 0.488281 -0.15625 0.75 -0.15625 Z M 0.75 -0.15625 "/></g></g></g><g fill="#000000" fill-opacity="1"><g transform="translate(190.195756, 271.01706)"><g><path d="M 0.765625 0.03125 C 0.640625 0.03125 0.53125 0.00390625 0.4375 -0.046875 C 0.34375 -0.109375 0.269531 -0.1875 0.21875 -0.28125 C 0.164062 -0.382812 0.140625 -0.515625 0.140625 -0.671875 C 0.140625 -0.816406 0.164062 -0.941406 0.21875 -1.046875 C 0.269531 -1.148438 0.34375 -1.226562 0.4375 -1.28125 C 0.53125 -1.332031 0.640625 -1.359375 0.765625 -1.359375 C 0.890625 -1.359375 1 -1.332031 1.09375 -1.28125 C 1.1875 -1.226562 1.253906 -1.148438 1.296875 -1.046875 C 1.347656 -0.941406 1.375 -0.816406 1.375 -0.671875 C 1.375 -0.515625 1.347656 -0.382812 1.296875 -0.28125 C 1.253906 -0.1875 1.1875 -0.109375 1.09375 -0.046875 C 1 0.00390625 0.890625 0.03125 0.765625 0.03125 Z M 0.765625 -0.15625 C 0.898438 -0.15625 1 -0.195312 1.0625 -0.28125 C 1.132812 -0.363281 1.171875 -0.492188 1.171875 -0.671875 C 1.171875 -0.835938 1.132812 -0.960938 1.0625 -1.046875 C 1 -1.128906 0.898438 -1.171875 0.765625 -1.171875 C 0.628906 -1.171875 0.523438 -1.128906 0.453125 -1.046875 C 0.390625 -0.960938 0.359375 -0.835938 0.359375 -0.671875 C 0.359375 -0.492188 0.390625 -0.363281 0.453125 -0.28125 C 0.523438 -0.195312 0.628906 -0.15625 0.765625 -0.15625 Z M 0.765625 -0.15625 "/></g></g></g><g fill="#000000" fill-opacity="1"><g transform="translate(191.726063, 271.01706)"><g><path d="M 0.53125 0.03125 C 0.4375 0.03125 0.363281 0.00390625 0.3125 -0.046875 C 0.257812 -0.109375 0.234375 -0.191406 0.234375 -0.296875 L 0.234375 -1.859375 L 0.421875 -1.859375 L 0.421875 -0.3125 C 0.421875 -0.25 0.429688 -0.207031 0.453125 -0.1875 C 0.472656 -0.164062 0.503906 -0.15625 0.546875 -0.15625 C 0.578125 -0.15625 0.609375 -0.15625 0.640625 -0.15625 L 0.65625 -0.15625 L 0.671875 0 C 0.660156 0.0078125 0.640625 0.015625 0.609375 0.015625 C 0.585938 0.0234375 0.5625 0.03125 0.53125 0.03125 Z M 0.53125 0.03125 "/></g></g></g><g fill="#000000" fill-opacity="1"><g transform="translate(192.451327, 271.01706)"><g><path d="M 0.53125 0.03125 C 0.4375 0.03125 0.363281 0.00390625 0.3125 -0.046875 C 0.257812 -0.109375 0.234375 -0.191406 0.234375 -0.296875 L 0.234375 -1.859375 L 0.421875 -1.859375 L 0.421875 -0.3125 C 0.421875 -0.25 0.429688 -0.207031 0.453125 -0.1875 C 0.472656 -0.164062 0.503906 -0.15625 0.546875 -0.15625 C 0.578125 -0.15625 0.609375 -0.15625 0.640625 -0.15625 L 0.65625 -0.15625 L 0.671875 0 C 0.660156 0.0078125 0.640625 0.015625 0.609375 0.015625 C 0.585938 0.0234375 0.5625 0.03125 0.53125 0.03125 Z M 0.53125 0.03125 "/></g></g></g><g fill="#000000" fill-opacity="1"><g transform="translate(193.176591, 271.01706)"><g><path d="M 0.546875 0.03125 C 0.421875 0.03125 0.316406 0 0.234375 -0.0625 C 0.160156 -0.132812 0.125 -0.238281 0.125 -0.375 C 0.125 -0.445312 0.140625 -0.507812 0.171875 -0.5625 C 0.210938 -0.625 0.265625 -0.671875 0.328125 -0.703125 C 0.398438 -0.734375 0.488281 -0.757812 0.59375 -0.78125 C 0.695312 -0.800781 0.769531 -0.816406 0.8125 -0.828125 C 0.863281 -0.847656 0.898438 -0.867188 0.921875 -0.890625 C 0.941406 -0.921875 0.953125 -0.957031 0.953125 -1 C 0.953125 -1.0625 0.929688 -1.109375 0.890625 -1.140625 C 0.847656 -1.171875 0.78125 -1.1875 0.6875 -1.1875 C 0.601562 -1.1875 0.53125 -1.164062 0.46875 -1.125 C 0.40625 -1.09375 0.347656 -1.046875 0.296875 -0.984375 L 0.265625 -0.984375 L 0.171875 -1.125 C 0.234375 -1.195312 0.304688 -1.253906 0.390625 -1.296875 C 0.472656 -1.335938 0.570312 -1.359375 0.6875 -1.359375 C 0.84375 -1.359375 0.957031 -1.320312 1.03125 -1.25 C 1.101562 -1.1875 1.140625 -1.09375 1.140625 -0.96875 L 1.140625 -0.265625 C 1.140625 -0.191406 1.171875 -0.15625 1.234375 -0.15625 C 1.253906 -0.15625 1.273438 -0.15625 1.296875 -0.15625 L 1.3125 -0.15625 L 1.34375 -0.015625 C 1.320312 -0.00390625 1.300781 0 1.28125 0 C 1.257812 0.0078125 1.234375 0.015625 1.203125 0.015625 C 1.128906 0.015625 1.070312 0 1.03125 -0.03125 C 1 -0.0703125 0.976562 -0.125 0.96875 -0.1875 L 0.9375 -0.1875 C 0.90625 -0.113281 0.851562 -0.0546875 0.78125 -0.015625 C 0.71875 0.015625 0.640625 0.03125 0.546875 0.03125 Z M 0.59375 -0.125 C 0.664062 -0.125 0.726562 -0.140625 0.78125 -0.171875 C 0.832031 -0.210938 0.875 -0.265625 0.90625 -0.328125 C 0.9375 -0.390625 0.953125 -0.460938 0.953125 -0.546875 L 0.953125 -0.703125 L 0.921875 -0.71875 C 0.898438 -0.695312 0.863281 -0.675781 0.8125 -0.65625 C 0.769531 -0.644531 0.710938 -0.632812 0.640625 -0.625 C 0.566406 -0.613281 0.503906 -0.597656 0.453125 -0.578125 C 0.410156 -0.554688 0.378906 -0.523438 0.359375 -0.484375 C 0.335938 -0.453125 0.328125 -0.414062 0.328125 -0.375 C 0.328125 -0.289062 0.347656 -0.226562 0.390625 -0.1875 C 0.441406 -0.144531 0.507812 -0.125 0.59375 -0.125 Z M 0.59375 -0.125 "/></g></g></g><g fill="#000000" fill-opacity="1"><g transform="translate(194.555802, 271.01706)"><g><path d="M 0.234375 0 L 0.234375 -1.328125 L 0.421875 -1.328125 L 0.421875 -1.125 L 0.4375 -1.109375 C 0.5 -1.265625 0.617188 -1.34375 0.796875 -1.34375 C 0.878906 -1.34375 0.945312 -1.328125 1 -1.296875 L 0.953125 -1.125 L 0.921875 -1.125 C 0.867188 -1.144531 0.816406 -1.15625 0.765625 -1.15625 C 0.648438 -1.15625 0.5625 -1.113281 0.5 -1.03125 C 0.445312 -0.957031 0.421875 -0.832031 0.421875 -0.65625 L 0.421875 0 Z M 0.234375 0 "/></g></g></g></svg>