<svg xmlns="http://www.w3.org/2000/svg" xmlns:xlink="http://www.w3.org/1999/xlink" width="500" zoomAndPan="magnify" viewBox="0 0 375 374.999991" height="500" preserveAspectRatio="xMidYMid meet" version="1.0"><defs><g/><clipPath id="ec530d7b8d"><path d="M 50 200 L 325.582031 200 L 325.582031 341 L 50 341 Z M 50 200 " clip-rule="nonzero"/></clipPath><clipPath id="5323b4daa7"><path d="M 118 34.257812 L 258 34.257812 L 258 209 L 118 209 Z M 118 34.257812 " clip-rule="nonzero"/></clipPath></defs><g clip-path="url(#ec530d7b8d)"><path fill="#fc8eac" d="M 140.953125 340.738281 L 234.386719 340.738281 C 284.488281 340.738281 325.109375 340.863281 325.109375 290.753906 C 325.109375 253.246094 302.335938 221.082031 269.867188 207.269531 C 270.019531 207.574219 270.199219 207.859375 270.34375 208.175781 C 272.277344 212.316406 273.53125 216.625 274.097656 220.816406 C 275.5 221.210938 276.882812 221.746094 278.21875 222.460938 C 288.171875 227.785156 291.921875 240.160156 286.59375 250.109375 C 281.273438 260.058594 268.898438 263.804688 258.945312 258.484375 C 248.996094 253.164062 245.253906 240.78125 250.574219 230.835938 C 253.554688 225.257812 258.753906 221.636719 264.507812 220.457031 C 263.269531 214.167969 260.058594 207.289062 254.957031 202.390625 C 250.972656 201.46875 246.898438 200.792969 242.738281 200.417969 C 242.371094 216.960938 187.667969 257.550781 187.667969 257.550781 C 187.667969 257.550781 132.964844 216.960938 132.605469 200.421875 C 129.683594 200.6875 126.796875 201.09375 123.964844 201.632812 C 117.714844 206.617188 113.324219 213.753906 112.117188 219.558594 C 114.351562 220.816406 116.101562 222.878906 117.078125 225.414062 C 125.578125 229.144531 133.121094 237.511719 138.933594 249.664062 C 139.792969 251.460938 139.792969 253.503906 138.976562 255.292969 C 142.574219 264.304688 144.636719 274.160156 144.636719 282.449219 C 144.636719 295.570312 144.0625 303.789062 133.066406 305.96875 C 132.011719 307 130.609375 307.578125 129.132812 307.578125 L 120.683594 307.578125 C 117.5625 307.578125 115.023438 305.039062 115.023438 301.917969 L 115.023438 301.785156 C 115.09375 298.730469 117.609375 296.253906 120.683594 296.253906 L 129.132812 296.253906 C 129.953125 296.253906 130.757812 296.433594 131.5 296.78125 C 133.503906 296.359375 133.835938 295.785156 134.019531 295.464844 C 135.082031 293.644531 135.292969 289.136719 135.292969 282.449219 C 135.292969 275.222656 133.449219 266.570312 130.230469 258.59375 C 128.789062 257.953125 127.609375 256.824219 126.929688 255.402344 C 121.390625 243.808594 113.890625 236.605469 107.363281 236.605469 C 100.699219 236.605469 92.832031 244.375 87.316406 256.40625 C 86.566406 258.046875 85.167969 259.308594 83.480469 259.90625 C 80.535156 267.617188 78.917969 275.585938 78.917969 282.441406 C 78.917969 287.683594 79.023438 293.445312 80.292969 295.488281 C 80.484375 295.800781 80.878906 296.421875 83.140625 296.84375 C 83.921875 296.449219 84.785156 296.242188 85.679688 296.242188 L 94.136719 296.242188 C 97.144531 296.242188 99.609375 298.601562 99.785156 301.570312 L 99.796875 301.601562 L 99.796875 301.917969 C 99.796875 305.039062 97.257812 307.578125 94.136719 307.578125 L 85.679688 307.578125 C 84.289062 307.578125 82.953125 307.054688 81.917969 306.117188 C 78.875 305.617188 74.839844 304.417969 72.359375 300.433594 C 70.003906 296.648438 69.570312 291.40625 69.570312 282.449219 C 69.570312 274.265625 71.507812 264.851562 75.027344 255.867188 C 74.433594 254.230469 74.503906 252.449219 75.226562 250.875 C 78.710938 243.253906 83.121094 236.761719 87.972656 232.09375 C 90.796875 229.359375 93.839844 227.222656 97.007812 225.726562 C 98.039062 222.832031 100.101562 220.5 102.710938 219.242188 C 103.304688 215.019531 104.957031 210.621094 107.445312 206.441406 C 73.929688 219.777344 50.234375 252.492188 50.234375 290.753906 C 50.234375 340.863281 90.847656 340.738281 140.953125 340.738281 Z M 211.507812 290.082031 C 211.507812 288.902344 212.574219 287.953125 213.890625 287.953125 L 226.832031 287.953125 L 226.832031 275.015625 C 226.832031 273.695312 227.785156 272.628906 228.957031 272.628906 L 241.730469 272.628906 C 242.902344 272.628906 243.855469 273.695312 243.855469 275.015625 L 243.855469 287.953125 L 256.800781 287.953125 C 258.117188 287.953125 259.179688 288.902344 259.179688 290.082031 L 259.179688 302.851562 C 259.179688 304.03125 258.117188 304.980469 256.800781 304.980469 L 243.855469 304.980469 L 243.855469 317.921875 C 243.855469 319.238281 242.902344 320.304688 241.730469 320.304688 L 228.957031 320.304688 C 227.785156 320.304688 226.832031 319.238281 226.832031 317.921875 L 226.832031 304.980469 L 213.890625 304.980469 C 212.574219 304.980469 211.507812 304.03125 211.507812 302.851562 Z M 211.507812 290.082031 " fill-opacity="1" fill-rule="nonzero"/></g><g clip-path="url(#5323b4daa7)"><path fill="#fc8eac" d="M 119.042969 118.417969 C 119.09375 119.074219 119.148438 119.722656 119.210938 120.375 C 123.585938 169.90625 152.5625 208.179688 187.667969 208.179688 C 222.769531 208.179688 251.75 169.90625 256.128906 120.375 C 256.191406 119.722656 256.242188 119.074219 256.296875 118.417969 C 256.609375 116.269531 256.816406 114.09375 256.941406 111.886719 C 257.027344 110.378906 257.085938 108.863281 257.085938 107.332031 C 257.085938 103.566406 256.816406 99.859375 256.296875 96.242188 C 251.21875 61.148438 222.425781 34.257812 187.667969 34.257812 C 152.910156 34.257812 124.117188 61.148438 119.042969 96.242188 C 118.519531 99.859375 118.253906 103.566406 118.253906 107.332031 C 118.253906 108.863281 118.316406 110.378906 118.394531 111.886719 C 118.523438 114.09375 118.730469 116.269531 119.042969 118.417969 Z M 144.851562 79.019531 C 144.851562 79.019531 164.828125 88.722656 187.667969 89.34375 C 210.507812 88.722656 230.488281 79.019531 230.488281 79.019531 C 244.96875 84.730469 238.101562 125.445312 238.101562 125.449219 C 241.722656 122.925781 245.03125 121.613281 247.730469 120.9375 C 243.75 164.203125 218.386719 197.566406 187.667969 197.566406 C 156.953125 197.566406 131.578125 164.203125 127.59375 120.9375 C 130.296875 121.613281 133.617188 122.925781 137.226562 125.449219 C 137.230469 125.445312 130.371094 84.730469 144.851562 79.019531 Z M 144.851562 79.019531 " fill-opacity="1" fill-rule="nonzero"/></g><path fill="#fc8eac" d="M 278.796875 240.476562 C 278.796875 241.148438 278.730469 241.8125 278.597656 242.46875 C 278.46875 243.128906 278.273438 243.765625 278.019531 244.386719 C 277.761719 245.007812 277.445312 245.59375 277.074219 246.152344 C 276.703125 246.710938 276.277344 247.226562 275.804688 247.699219 C 275.328125 248.175781 274.8125 248.597656 274.253906 248.972656 C 273.699219 249.34375 273.109375 249.660156 272.488281 249.914062 C 271.871094 250.171875 271.230469 250.367188 270.574219 250.496094 C 269.914062 250.628906 269.25 250.691406 268.578125 250.691406 C 267.910156 250.691406 267.246094 250.628906 266.585938 250.496094 C 265.929688 250.367188 265.289062 250.171875 264.671875 249.914062 C 264.050781 249.660156 263.460938 249.34375 262.902344 248.972656 C 262.347656 248.597656 261.832031 248.175781 261.355469 247.699219 C 260.882812 247.226562 260.457031 246.710938 260.085938 246.152344 C 259.710938 245.59375 259.398438 245.007812 259.140625 244.386719 C 258.886719 243.765625 258.691406 243.128906 258.558594 242.46875 C 258.429688 241.8125 258.363281 241.148438 258.363281 240.476562 C 258.363281 239.804688 258.429688 239.140625 258.558594 238.484375 C 258.691406 237.824219 258.886719 237.1875 259.140625 236.566406 C 259.398438 235.949219 259.710938 235.359375 260.085938 234.800781 C 260.457031 234.242188 260.882812 233.726562 261.355469 233.253906 C 261.832031 232.777344 262.347656 232.355469 262.902344 231.984375 C 263.460938 231.609375 264.050781 231.296875 264.671875 231.039062 C 265.289062 230.78125 265.929688 230.589844 266.585938 230.457031 C 267.246094 230.328125 267.910156 230.261719 268.578125 230.261719 C 269.25 230.261719 269.914062 230.328125 270.574219 230.457031 C 271.230469 230.589844 271.871094 230.78125 272.488281 231.039062 C 273.109375 231.296875 273.699219 231.609375 274.253906 231.984375 C 274.8125 232.355469 275.328125 232.777344 275.804688 233.253906 C 276.277344 233.726562 276.703125 234.242188 277.074219 234.800781 C 277.445312 235.359375 277.761719 235.949219 278.019531 236.566406 C 278.273438 237.1875 278.46875 237.824219 278.597656 238.484375 C 278.730469 239.140625 278.796875 239.804688 278.796875 240.476562 Z M 278.796875 240.476562 " fill-opacity="1" fill-rule="nonzero"/><g fill="#fc8eac" fill-opacity="1"><g transform="translate(195.063131, 244.820911)"><g><path d="M 0.6875 0.03125 C 0.582031 0.03125 0.488281 0.00390625 0.40625 -0.046875 C 0.320312 -0.0976562 0.253906 -0.175781 0.203125 -0.28125 C 0.160156 -0.382812 0.140625 -0.515625 0.140625 -0.671875 C 0.140625 -0.816406 0.164062 -0.941406 0.21875 -1.046875 C 0.269531 -1.148438 0.335938 -1.226562 0.421875 -1.28125 C 0.503906 -1.332031 0.601562 -1.359375 0.71875 -1.359375 C 0.800781 -1.359375 0.878906 -1.335938 0.953125 -1.296875 C 1.023438 -1.265625 1.085938 -1.210938 1.140625 -1.140625 L 1.15625 -1.140625 L 1.15625 -1.859375 L 1.359375 -1.859375 L 1.359375 0 L 1.15625 0 L 1.15625 -0.1875 L 1.140625 -0.203125 C 1.085938 -0.128906 1.023438 -0.0703125 0.953125 -0.03125 C 0.878906 0.0078125 0.789062 0.03125 0.6875 0.03125 Z M 0.75 -0.15625 C 0.875 -0.15625 0.972656 -0.195312 1.046875 -0.28125 C 1.117188 -0.363281 1.15625 -0.492188 1.15625 -0.671875 C 1.15625 -0.835938 1.117188 -0.960938 1.046875 -1.046875 C 0.972656 -1.128906 0.875 -1.171875 0.75 -1.171875 C 0.625 -1.171875 0.523438 -1.128906 0.453125 -1.046875 C 0.390625 -0.972656 0.359375 -0.847656 0.359375 -0.671875 C 0.359375 -0.328125 0.488281 -0.15625 0.75 -0.15625 Z M 0.75 -0.15625 "/></g></g></g><g fill="#fc8eac" fill-opacity="1"><g transform="translate(196.655086, 244.820911)"><g><path d="M 0.765625 0.03125 C 0.640625 0.03125 0.53125 0.00390625 0.4375 -0.046875 C 0.34375 -0.109375 0.269531 -0.1875 0.21875 -0.28125 C 0.164062 -0.382812 0.140625 -0.515625 0.140625 -0.671875 C 0.140625 -0.816406 0.164062 -0.941406 0.21875 -1.046875 C 0.269531 -1.148438 0.34375 -1.226562 0.4375 -1.28125 C 0.53125 -1.332031 0.640625 -1.359375 0.765625 -1.359375 C 0.890625 -1.359375 1 -1.332031 1.09375 -1.28125 C 1.1875 -1.226562 1.253906 -1.148438 1.296875 -1.046875 C 1.347656 -0.941406 1.375 -0.816406 1.375 -0.671875 C 1.375 -0.515625 1.347656 -0.382812 1.296875 -0.28125 C 1.253906 -0.1875 1.1875 -0.109375 1.09375 -0.046875 C 1 0.00390625 0.890625 0.03125 0.765625 0.03125 Z M 0.765625 -0.15625 C 0.898438 -0.15625 1 -0.195312 1.0625 -0.28125 C 1.132812 -0.363281 1.171875 -0.492188 1.171875 -0.671875 C 1.171875 -0.835938 1.132812 -0.960938 1.0625 -1.046875 C 1 -1.128906 0.898438 -1.171875 0.765625 -1.171875 C 0.628906 -1.171875 0.523438 -1.128906 0.453125 -1.046875 C 0.390625 -0.960938 0.359375 -0.835938 0.359375 -0.671875 C 0.359375 -0.492188 0.390625 -0.363281 0.453125 -0.28125 C 0.523438 -0.195312 0.628906 -0.15625 0.765625 -0.15625 Z M 0.765625 -0.15625 "/></g></g></g><g fill="#fc8eac" fill-opacity="1"><g transform="translate(198.185393, 244.820911)"><g><path d="M 0.53125 0.03125 C 0.4375 0.03125 0.363281 0.00390625 0.3125 -0.046875 C 0.257812 -0.109375 0.234375 -0.191406 0.234375 -0.296875 L 0.234375 -1.859375 L 0.421875 -1.859375 L 0.421875 -0.3125 C 0.421875 -0.25 0.429688 -0.207031 0.453125 -0.1875 C 0.472656 -0.164062 0.503906 -0.15625 0.546875 -0.15625 C 0.578125 -0.15625 0.609375 -0.15625 0.640625 -0.15625 L 0.65625 -0.15625 L 0.671875 0 C 0.660156 0.0078125 0.640625 0.015625 0.609375 0.015625 C 0.585938 0.0234375 0.5625 0.03125 0.53125 0.03125 Z M 0.53125 0.03125 "/></g></g></g><g fill="#fc8eac" fill-opacity="1"><g transform="translate(198.910658, 244.820911)"><g><path d="M 0.53125 0.03125 C 0.4375 0.03125 0.363281 0.00390625 0.3125 -0.046875 C 0.257812 -0.109375 0.234375 -0.191406 0.234375 -0.296875 L 0.234375 -1.859375 L 0.421875 -1.859375 L 0.421875 -0.3125 C 0.421875 -0.25 0.429688 -0.207031 0.453125 -0.1875 C 0.472656 -0.164062 0.503906 -0.15625 0.546875 -0.15625 C 0.578125 -0.15625 0.609375 -0.15625 0.640625 -0.15625 L 0.65625 -0.15625 L 0.671875 0 C 0.660156 0.0078125 0.640625 0.015625 0.609375 0.015625 C 0.585938 0.0234375 0.5625 0.03125 0.53125 0.03125 Z M 0.53125 0.03125 "/></g></g></g><g fill="#fc8eac" fill-opacity="1"><g transform="translate(199.635922, 244.820911)"><g><path d="M 0.546875 0.03125 C 0.421875 0.03125 0.316406 0 0.234375 -0.0625 C 0.160156 -0.132812 0.125 -0.238281 0.125 -0.375 C 0.125 -0.445312 0.140625 -0.507812 0.171875 -0.5625 C 0.210938 -0.625 0.265625 -0.671875 0.328125 -0.703125 C 0.398438 -0.734375 0.488281 -0.757812 0.59375 -0.78125 C 0.695312 -0.800781 0.769531 -0.816406 0.8125 -0.828125 C 0.863281 -0.847656 0.898438 -0.867188 0.921875 -0.890625 C 0.941406 -0.921875 0.953125 -0.957031 0.953125 -1 C 0.953125 -1.0625 0.929688 -1.109375 0.890625 -1.140625 C 0.847656 -1.171875 0.78125 -1.1875 0.6875 -1.1875 C 0.601562 -1.1875 0.53125 -1.164062 0.46875 -1.125 C 0.40625 -1.09375 0.347656 -1.046875 0.296875 -0.984375 L 0.265625 -0.984375 L 0.171875 -1.125 C 0.234375 -1.195312 0.304688 -1.253906 0.390625 -1.296875 C 0.472656 -1.335938 0.570312 -1.359375 0.6875 -1.359375 C 0.84375 -1.359375 0.957031 -1.320312 1.03125 -1.25 C 1.101562 -1.1875 1.140625 -1.09375 1.140625 -0.96875 L 1.140625 -0.265625 C 1.140625 -0.191406 1.171875 -0.15625 1.234375 -0.15625 C 1.253906 -0.15625 1.273438 -0.15625 1.296875 -0.15625 L 1.3125 -0.15625 L 1.34375 -0.015625 C 1.320312 -0.00390625 1.300781 0 1.28125 0 C 1.257812 0.0078125 1.234375 0.015625 1.203125 0.015625 C 1.128906 0.015625 1.070312 0 1.03125 -0.03125 C 1 -0.0703125 0.976562 -0.125 0.96875 -0.1875 L 0.9375 -0.1875 C 0.90625 -0.113281 0.851562 -0.0546875 0.78125 -0.015625 C 0.71875 0.015625 0.640625 0.03125 0.546875 0.03125 Z M 0.59375 -0.125 C 0.664062 -0.125 0.726562 -0.140625 0.78125 -0.171875 C 0.832031 -0.210938 0.875 -0.265625 0.90625 -0.328125 C 0.9375 -0.390625 0.953125 -0.460938 0.953125 -0.546875 L 0.953125 -0.703125 L 0.921875 -0.71875 C 0.898438 -0.695312 0.863281 -0.675781 0.8125 -0.65625 C 0.769531 -0.644531 0.710938 -0.632812 0.640625 -0.625 C 0.566406 -0.613281 0.503906 -0.597656 0.453125 -0.578125 C 0.410156 -0.554688 0.378906 -0.523438 0.359375 -0.484375 C 0.335938 -0.453125 0.328125 -0.414062 0.328125 -0.375 C 0.328125 -0.289062 0.347656 -0.226562 0.390625 -0.1875 C 0.441406 -0.144531 0.507812 -0.125 0.59375 -0.125 Z M 0.59375 -0.125 "/></g></g></g><g fill="#fc8eac" fill-opacity="1"><g transform="translate(201.015133, 244.820911)"><g><path d="M 0.234375 0 L 0.234375 -1.328125 L 0.421875 -1.328125 L 0.421875 -1.125 L 0.4375 -1.109375 C 0.5 -1.265625 0.617188 -1.34375 0.796875 -1.34375 C 0.878906 -1.34375 0.945312 -1.328125 1 -1.296875 L 0.953125 -1.125 L 0.921875 -1.125 C 0.867188 -1.144531 0.816406 -1.15625 0.765625 -1.15625 C 0.648438 -1.15625 0.5625 -1.113281 0.5 -1.03125 C 0.445312 -0.957031 0.421875 -0.832031 0.421875 -0.65625 L 0.421875 0 Z M 0.234375 0 "/></g></g></g></svg>