<svg xmlns="http://www.w3.org/2000/svg" xmlns:xlink="http://www.w3.org/1999/xlink" width="500" zoomAndPan="magnify" viewBox="0 0 375 374.999991" height="500" preserveAspectRatio="xMidYMid meet" version="1.0"><defs><g/><clipPath id="09748e6a98"><path d="M 78 37.5 L 296 37.5 L 296 320 L 78 320 Z M 78 37.5 " clip-rule="nonzero"/></clipPath></defs><g clip-path="url(#09748e6a98)"><path fill="#fc8eac" d="M 175.523438 44.507812 C 178.085938 43.480469 180.722656 42.707031 183.3125 42.257812 C 177.296875 42.734375 170.261719 44.269531 162.230469 47.503906 C 159.238281 48.6875 156.078125 49.929688 152.753906 51.257812 C 149.511719 52.5625 146.183594 54.023438 143.082031 55.945312 C 142.335938 56.457031 141.582031 56.972656 140.832031 57.503906 C 140.132812 58.101562 139.460938 58.691406 138.773438 59.304688 C 137.523438 60.59375 136.21875 62.097656 135.632812 63.402344 C 135.136719 64.726562 135.171875 65.875 135.886719 67.609375 C 136.265625 68.5 136.769531 69.429688 137.332031 70.4375 C 138.753906 69.511719 140.234375 68.464844 141.601562 67.886719 L 144.074219 66.664062 L 144.707031 66.359375 L 144.863281 66.285156 L 145.359375 66.066406 L 145.699219 65.929688 L 147.039062 65.394531 C 148.820312 64.644531 150.621094 64.046875 152.394531 63.457031 L 153.074219 63.21875 L 153.421875 63.097656 C 153.46875 63.097656 153.863281 63 153.863281 63 C 153.902344 62.980469 154 62.980469 154 62.980469 L 154.203125 62.945312 C 154.203125 62.945312 155.855469 62.742188 155.875 62.742188 C 158.152344 62.492188 161.15625 64.175781 162.40625 61.621094 C 162.839844 60.710938 162.683594 58.480469 163.058594 57.304688 C 163.472656 56.0625 163.929688 54.757812 164.566406 53.609375 C 166.898438 49.375 171.050781 46.328125 175.523438 44.507812 Z M 178.324219 63.75 C 178.703125 63.652344 179.078125 63.558594 179.417969 63.4375 C 178.820312 62.859375 178.050781 62.253906 177.203125 61.675781 C 176.195312 60.988281 175.101562 60.335938 173.980469 59.71875 C 172.335938 58.808594 170.636719 57.984375 168.9375 57.210938 C 168.394531 60.195312 168.164062 62.191406 167.863281 63.613281 C 168.910156 63.769531 169.964844 63.90625 170.996094 64.007812 C 172.390625 64.210938 173.417969 64.175781 174.550781 64.230469 C 175.183594 64.210938 175.953125 64.089844 176.625 64.027344 L 177.433594 63.953125 Z M 243.695312 78.980469 C 243.972656 75.378906 240.59375 72.515625 238.039062 69.824219 C 236.925781 68.703125 235.898438 67.554688 234.96875 66.40625 C 234.714844 67.609375 234.417969 68.738281 234.117188 69.804688 C 233.085938 73.167969 232.085938 75.875 231.472656 78.152344 C 231.132812 79.257812 230.9375 80.285156 230.71875 81.140625 C 230.597656 82.011719 230.40625 82.71875 230.339844 83.351562 C 230.238281 84.601562 230.085938 85.273438 229.890625 85.292969 C 229.6875 85.292969 229.46875 84.65625 229.210938 83.410156 C 229.074219 82.800781 229.09375 81.964844 229.054688 80.984375 C 229.074219 80.027344 229.136719 78.925781 229.292969 77.695312 C 229.589844 75.242188 230.304688 72.339844 230.992188 69.015625 C 231.289062 67.371094 231.644531 65.605469 231.691406 63.835938 C 231.746094 62.789062 231.691406 61.738281 231.488281 60.730469 C 230.890625 59.5 230.441406 58.433594 230.046875 57.523438 C 229.277344 56.496094 228.246094 55.585938 226.878906 54.898438 L 226.207031 54.503906 L 226.125 54.457031 C 226.105469 54.4375 225.914062 54.335938 225.914062 54.335938 L 225.472656 54.164062 C 224.921875 53.921875 224.351562 53.667969 223.773438 53.410156 C 222.625 52.914062 221.523438 52.5625 220.375 52.105469 C 215.625 50.421875 210.328125 49.082031 204.648438 48.226562 C 198.992188 47.402344 192.902344 47.0625 186.832031 47.917969 C 183.789062 48.292969 180.824219 49.121094 178.011719 50.304688 C 176.644531 50.902344 175.386719 51.628906 174.191406 52.480469 C 175.183594 52.976562 176.148438 53.445312 177.140625 53.988281 C 178.390625 54.65625 179.65625 55.382812 180.898438 56.21875 C 182.144531 57.066406 183.414062 57.984375 184.671875 59.359375 C 185.304688 60.097656 186.003906 60.902344 186.492188 62.390625 C 186.589844 62.804688 186.691406 63.183594 186.710938 63.652344 C 186.710938 64.128906 186.710938 64.625 186.574219 65.101562 C 186.378906 66.011719 185.921875 66.753906 185.441406 67.316406 C 184.515625 72.652344 184.324219 77.335938 184.257812 81.277344 C 184.203125 85.90625 184.304688 89.527344 184.339844 92.289062 C 184.460938 97.847656 184.339844 100.007812 183.910156 100.023438 C 183.503906 100.0625 182.898438 98.003906 182.246094 92.445312 C 181.925781 89.664062 181.613281 86.007812 181.511719 81.277344 C 181.476562 77.933594 181.53125 74.003906 182.128906 69.527344 C 181.335938 69.824219 180.601562 70.042969 179.867188 70.246094 L 178.683594 70.492188 L 178.609375 70.492188 L 178.304688 70.558594 L 178.1875 70.558594 L 177.929688 70.59375 L 177.414062 70.660156 C 176.707031 70.714844 176.074219 70.832031 175.285156 70.871094 C 173.585938 70.871094 171.820312 70.871094 170.398438 70.660156 C 166.199219 70.199219 162.5625 69.375 159.164062 69.273438 C 158.308594 69.253906 157.65625 69.207031 156.90625 69.355469 L 156.214844 69.472656 C 156.214844 69.445312 155.800781 69.445312 155.800781 69.445312 L 155.480469 69.492188 C 155.371094 69.527344 155.289062 69.566406 155.222656 69.585938 L 155.304688 69.511719 L 155.113281 69.546875 L 154.433594 69.769531 C 152.613281 70.335938 150.832031 70.933594 149.179688 71.625 L 147.910156 72.121094 L 147.636719 72.21875 C 147.617188 72.238281 146.984375 72.53125 146.984375 72.53125 L 144.484375 73.734375 C 142.667969 74.488281 141.582031 75.464844 140.160156 76.316406 L 139.148438 76.960938 L 137.917969 77.796875 C 137.429688 78.136719 136.917969 78.449219 136.539062 78.722656 C 136.679688 78.980469 136.851562 79.285156 137.054688 79.558594 L 137.128906 79.679688 L 137.230469 79.835938 C 137.625 80.5625 138.535156 81.515625 139.5625 82.40625 C 140.65625 83.335938 141.859375 84.226562 143.097656 85.234375 C 143.734375 85.75 144.367188 86.285156 145 86.871094 C 145.632812 87.488281 146.304688 88.203125 146.726562 88.753906 C 147.671875 89.902344 148.601562 91.050781 149.527344 92.179688 C 151.394531 94.46875 153.109375 96.523438 154.964844 98.875 C 156.675781 101.035156 158.390625 103.25 159.917969 105.480469 C 163.023438 109.933594 165.457031 114.703125 166.734375 119.386719 C 167.117188 120.535156 167.273438 121.71875 167.53125 122.851562 L 167.707031 123.695312 L 167.742188 123.878906 C 167.964844 123.960938 168.304688 124 168.714844 124.015625 L 169.148438 123.742188 L 169.609375 123.4375 L 170.160156 123.105469 C 170.671875 122.832031 171.207031 122.457031 171.859375 122.042969 C 172.390625 121.71875 172.953125 121.34375 173.757812 120.949219 C 173.640625 120.691406 173.539062 120.453125 173.445312 120.195312 C 173.226562 119.664062 173.125 119.304688 173.023438 118.9375 C 172.695312 117.742188 172.28125 116.640625 171.664062 115.457031 C 169.488281 110.761719 166.796875 106.675781 164.636719 103.109375 C 162.472656 99.574219 160.828125 96.46875 159.871094 94.246094 C 159.042969 92.035156 158.789062 90.710938 159.183594 90.472656 C 159.578125 90.234375 160.605469 91.125 162.132812 92.941406 C 163.691406 94.640625 165.785156 97.160156 168.476562 100.382812 C 171.132812 103.605469 174.355469 107.539062 177.15625 112.683594 C 178.148438 114.34375 178.546875 118.679688 180.65625 119.386719 C 181.050781 119.523438 187.621094 117.328125 187.582031 117.394531 L 187.722656 117.191406 L 188.042969 116.714844 C 188.117188 116.578125 188.078125 116.539062 188.097656 116.457031 C 188.117188 116.300781 188.179688 116.28125 188.253906 116.007812 L 188.492188 115.117188 C 188.648438 114.519531 188.75 113.832031 188.871094 113.179688 C 189.089844 111.789062 189.246094 110.414062 189.421875 108.90625 C 189.503906 108.191406 189.640625 107.328125 189.796875 106.574219 C 189.933594 105.886719 190.074219 105.1875 190.191406 104.515625 C 191.304688 99.113281 192.386719 94.273438 193.398438 90.234375 C 195.390625 82.132812 197.097656 77.199219 198.007812 77.382812 C 198.898438 77.539062 198.855469 82.757812 198.027344 91.085938 C 197.632812 95.183594 197.035156 100.042969 196.28125 105.425781 C 196.246094 106.507812 196.191406 107.675781 196.109375 108.960938 C 195.988281 110.46875 195.867188 112.09375 195.796875 113.773438 C 195.769531 114.601562 195.75 115.457031 195.796875 116.265625 C 195.796875 116.917969 195.886719 117.550781 195.988281 117.964844 C 196.261719 118.164062 196.621094 118.421875 197 118.652344 C 197.292969 118.855469 197.613281 119.027344 197.925781 119.230469 C 198.082031 116.402344 198.660156 113.8125 199.332031 111.496094 C 200.257812 108.292969 201.371094 105.507812 202.4375 103.074219 C 204.59375 98.1875 206.53125 94.550781 207.9375 91.757812 C 210.824219 86.199219 211.832031 84.070312 212.246094 84.207031 C 212.605469 84.316406 212.265625 86.796875 209.847656 92.648438 C 208.664062 95.558594 206.929688 99.316406 204.972656 104.140625 C 203.980469 106.554688 202.96875 109.265625 202.125 112.285156 C 201.644531 114.03125 201.25 115.90625 201.03125 117.863281 C 201.269531 117.414062 201.527344 116.933594 201.785156 116.457031 C 202.078125 115.90625 202.179688 115.574219 202.832031 114.621094 C 203.171875 114.171875 203.484375 113.730469 203.804688 113.296875 C 205.128906 111.550781 206.394531 109.898438 207.617188 108.292969 C 210.070312 105.148438 212.367188 102.339844 214.359375 100.0625 C 218.355469 95.476562 221.230469 92.90625 221.972656 93.4375 C 222.726562 93.972656 221.246094 97.5 218.234375 102.753906 C 216.71875 105.40625 214.835938 108.464844 212.660156 111.808594 C 211.539062 113.472656 210.390625 115.234375 209.179688 117.035156 C 208.867188 117.484375 208.542969 117.945312 208.230469 118.394531 C 208.230469 118.394531 207.910156 119.046875 207.699219 119.488281 C 207.183594 120.5 206.625 121.5625 205.972656 122.695312 C 205.898438 122.8125 205.816406 122.933594 205.742188 123.042969 C 206 123.164062 206.277344 123.28125 206.53125 123.402344 C 211.730469 117.273438 216.5 111.394531 221.128906 106.140625 C 223.875 103.285156 226.289062 100.539062 228.980469 98.03125 C 231.644531 95.597656 234.164062 93.503906 236.339844 91.425781 C 238.507812 89.34375 240.269531 87.265625 241.574219 85.171875 C 242.703125 83.039062 243.695312 80.78125 243.695312 78.980469 Z M 289.0625 277.109375 C 289.394531 271.808594 288.925781 266.277344 288.035156 260.695312 C 287.160156 255.101562 285.855469 249.644531 284.554688 244.085938 C 283.265625 238.566406 281.980469 233.183594 280.640625 227.902344 C 277.949219 217.347656 274.980469 207.320312 271.382812 198.078125 C 267.863281 188.828125 263.628906 180.421875 258.898438 173.066406 C 256.566406 169.363281 254.039062 165.984375 251.484375 162.84375 L 251.007812 162.246094 L 250.769531 161.953125 L 250.714844 161.886719 L 250.613281 161.769531 L 249.546875 160.667969 C 248.859375 159.914062 248.160156 159.179688 247.472656 158.472656 C 246.773438 157.734375 246.101562 157.027344 245.433594 156.332031 C 244.742188 155.695312 244.046875 155.0625 243.355469 154.457031 C 238.039062 149.414062 232.398438 145.398438 227.53125 141.917969 C 226.34375 141.101562 225.226562 140.328125 224.113281 139.578125 C 220.851562 137.894531 217.050781 135.9375 212.84375 133.789062 C 210.582031 132.640625 208.214844 131.429688 205.761719 130.308594 C 203.824219 129.417969 201.71875 128.460938 199.828125 127.875 C 200.1875 128.664062 200.636719 129.472656 201.132812 130.289062 C 201.460938 130.824219 201.800781 131.335938 202.140625 131.871094 L 202.453125 132.382812 L 202.691406 132.796875 L 203.171875 133.605469 C 203.777344 134.699219 204.375 135.765625 204.945312 136.8125 C 207.304688 140.964844 209.242188 144.785156 210.960938 147.945312 C 214.339844 154.335938 216.039062 158.472656 215.3125 158.9375 C 214.5625 159.433594 211.511719 156.15625 207.148438 150.441406 C 205.347656 148.164062 203.445312 145.371094 201.390625 142.285156 C 201.800781 143.554688 202.214844 144.738281 202.554688 145.886719 C 205.0625 153.105469 206.53125 157.820312 205.660156 158.214844 C 204.851562 158.589844 201.921875 154.730469 198.203125 147.734375 C 197.355469 145.933594 196.28125 143.894531 195.4375 141.753906 C 195.042969 140.707031 194.601562 139.605469 194.167969 138.457031 L 193.855469 137.601562 L 193.671875 137.171875 L 193.480469 136.535156 C 193.261719 135.765625 193.121094 135.066406 193.003906 134.394531 C 192.488281 131.730469 192.210938 129.058594 191.597656 126.761719 C 191.441406 126.195312 191.265625 125.660156 191.082031 125.285156 C 190.945312 125.027344 191.136719 125.320312 190.964844 125.027344 L 190.882812 124.925781 C 190.84375 124.90625 190.808594 124.890625 190.789062 124.871094 C 190.496094 124.652344 189.832031 124.347656 189.042969 124.191406 C 189.007812 124.21875 188.96875 124.238281 188.925781 124.238281 C 186.988281 124.980469 185.167969 125.359375 183.230469 125.421875 C 183.15625 125.421875 183.035156 125.421875 182.953125 125.421875 C 182.539062 125.734375 182.164062 126.128906 181.851562 126.570312 C 181.789062 126.800781 181.714844 127.019531 181.6875 127.242188 C 181.53125 128.628906 181.015625 129.675781 180.566406 130.546875 C 180.328125 131.050781 180.023438 131.511719 179.75 131.945312 C 179.574219 132.714844 179.417969 133.503906 179.253906 134.296875 C 178.390625 138.574219 177.617188 142.589844 176.488281 145.867188 C 176.011719 147.53125 175.300781 148.972656 174.75 150.222656 C 174.054688 151.445312 173.484375 152.539062 172.90625 153.261719 C 171.738281 154.730469 170.929688 155.441406 170.554688 155.246094 C 170.175781 155.042969 170.277344 153.980469 170.792969 152.179688 C 171.03125 151.269531 171.1875 150.242188 171.5 149.054688 C 171.703125 147.808594 172.042969 146.445312 172.214844 144.839844 C 172.457031 143.378906 172.613281 141.734375 172.785156 139.953125 L 172.390625 140.375 C 172.199219 140.585938 172.023438 140.742188 171.804688 141.046875 L 171.621094 141.238281 L 171.5625 141.320312 L 171.269531 141.734375 L 170.710938 142.542969 C 167.742188 146.84375 164.941406 150.636719 162.5625 153.859375 C 157.839844 160.363281 154.515625 164.148438 153.746094 163.652344 C 152.972656 163.15625 154.875 158.488281 158.566406 151.351562 C 160.449219 147.769531 162.921875 143.589844 165.695312 138.988281 L 166.226562 138.117188 L 166.484375 137.683594 L 166.878906 137.152344 C 167.054688 136.894531 167.347656 136.554688 167.605469 136.242188 L 168.320312 135.386719 C 169.230469 134.359375 170.160156 133.3125 171.105469 132.21875 C 172.023438 131.191406 172.457031 130.125 173.191406 129.078125 C 173.246094 128.996094 173.28125 128.902344 173.328125 128.800781 C 170.894531 130.207031 168.5625 131.566406 166.320312 132.851562 C 162.132812 135.644531 158.390625 138.097656 155.148438 140.449219 C 152.183594 142.523438 149.683594 144.1875 147.792969 145.316406 C 145 148.007812 142.097656 151.011719 139.128906 154.390625 C 130.285156 164.359375 121.15625 177.476562 112.273438 192.777344 C 107.800781 200.4375 103.445312 208.6875 99.136719 217.320312 C 94.902344 226.027344 90.117188 234.984375 87.351562 244.324219 C 86.066406 249.011719 85.367188 253.675781 85.671875 258.304688 C 85.929688 262.75 86.941406 267.125 88.398438 271.320312 C 89.410156 267.382812 90.667969 263.707031 92.039062 260.261719 C 95.140625 252.425781 98.660156 245.804688 101.710938 240.332031 C 104.777344 234.867188 107.421875 230.59375 109.289062 227.644531 C 111.144531 224.726562 112.273438 223.144531 112.703125 223.320312 C 113.117188 223.476562 112.789062 225.449219 111.621094 228.792969 C 110.453125 232.117188 108.433594 236.765625 105.945312 242.441406 C 103.445312 248.121094 100.460938 254.824219 97.796875 262.421875 C 95.226562 269.871094 92.789062 278.421875 93.242188 286.984375 C 94.453125 290.894531 95.757812 294.53125 97.59375 297.703125 C 99.597656 301.101562 102.207031 303.855469 105.308594 305.847656 C 105.347656 305.867188 105.367188 305.886719 105.410156 305.90625 C 106.613281 306.601562 107.835938 307.238281 109.066406 307.824219 C 109.617188 308.0625 110.195312 308.300781 110.75 308.539062 C 111.695312 308.972656 112.605469 309.285156 113.496094 309.589844 C 114.386719 309.882812 115.277344 310.175781 116.148438 310.496094 C 123.285156 312.617188 130.304688 313.621094 136.769531 314.21875 C 136.511719 314.0625 136.238281 313.921875 135.960938 313.777344 C 135.464844 313.527344 134.980469 313.261719 134.484375 312.988281 C 134.023438 312.65625 133.574219 312.296875 133.113281 311.957031 C 132.664062 311.609375 132.1875 311.304688 131.792969 310.910156 L 130.644531 309.671875 C 129.835938 308.898438 129.320312 307.945312 128.769531 307.054688 C 126.667969 303.414062 125.960938 299.832031 125.425781 296.726562 C 124.515625 290.484375 124.515625 285.558594 124.488281 282.113281 C 124.535156 278.679688 124.765625 276.757812 125.222656 276.714844 C 125.703125 276.660156 126.316406 278.496094 127.0625 281.839844 C 127.878906 285.144531 128.621094 290.085938 130.046875 295.78125 C 130.800781 298.613281 131.773438 301.613281 133.4375 304.085938 C 135.097656 306.566406 137.644531 308.265625 141.105469 309.367188 C 144.503906 310.480469 148.582031 311.132812 152.796875 311.5625 C 154.847656 311.820312 157.125 311.984375 159.382812 312.195312 C 161.535156 312.398438 163.832031 312.472656 166.109375 312.636719 C 184.394531 313.722656 201.011719 312.519531 213 311.25 C 221.0625 310.359375 227.117188 309.019531 232.996094 303.101562 C 235.722656 300.328125 237.992188 297.242188 239.792969 294.066406 C 243.496094 287.792969 245.691406 281.5625 247.304688 276.402344 C 250.511719 266.039062 251.007812 259.574219 251.796875 259.574219 C 252.394531 259.546875 253.222656 266.234375 250.972656 277.328125 C 249.785156 282.847656 247.984375 289.507812 244.320312 296.574219 C 242.566406 300.117188 240.214844 303.699219 237.128906 307.082031 C 236.945312 307.273438 236.734375 307.476562 236.550781 307.6875 C 236.753906 307.648438 236.964844 307.632812 237.183594 307.613281 C 238.726562 307.292969 240.289062 306.980469 241.867188 306.65625 C 243.441406 306.363281 245.039062 306.050781 246.636719 305.730469 L 249.050781 305.253906 L 249.648438 305.132812 L 249.804688 305.113281 C 249.824219 305.097656 250.082031 305.023438 250.082031 305.023438 L 251.210938 304.703125 L 253.460938 304.085938 L 255.675781 303.296875 C 257.179688 302.828125 258.550781 302.074219 259.992188 301.457031 C 262.820312 299.953125 265.484375 298.253906 267.761719 296.175781 C 270.039062 294.101562 271.949219 291.75 273.558594 289.234375 C 275.101562 286.671875 276.269531 283.933594 277.175781 281.148438 C 278.003906 278.339844 278.582031 275.492188 278.894531 272.664062 C 280.078125 261.253906 277.96875 250.609375 275.53125 242.066406 C 273.027344 233.488281 270.078125 226.78125 267.957031 222.171875 C 265.859375 217.605469 264.574219 214.988281 264.988281 214.730469 C 265.363281 214.519531 267.320312 216.558594 270.234375 220.902344 C 273.082031 225.21875 276.800781 231.824219 280.023438 240.605469 C 283.148438 249.367188 285.957031 260.484375 285.03125 273.261719 C 284.746094 276.4375 284.195312 279.707031 283.265625 282.988281 C 282.292969 286.230469 280.972656 289.492188 279.152344 292.59375 C 277.296875 295.679688 274.964844 298.554688 272.234375 301.101562 C 271.878906 301.441406 271.480469 301.734375 271.085938 302.074219 L 272.824219 301.441406 L 273.28125 301.257812 L 273.492188 301.183594 L 273.59375 301.148438 L 274.328125 300.769531 C 275.476562 300.171875 276.78125 299.601562 277.785156 298.953125 C 278.675781 298.289062 279.566406 297.648438 280.476562 296.96875 C 281.3125 296.140625 282.136719 295.304688 282.972656 294.476562 C 283.644531 293.484375 284.398438 292.578125 285.03125 291.566406 C 287.519531 287.433594 288.722656 282.390625 289.0625 277.109375 Z M 276.046875 307.035156 C 276.046875 307.035156 276.027344 307.035156 276.011719 307.054688 L 275.945312 307.082031 L 275.808594 307.117188 L 275.570312 307.191406 L 275.101562 307.355469 L 273.199219 308.027344 C 271.933594 308.476562 270.664062 308.917969 269.425781 309.347656 C 266.871094 310.066406 264.355469 310.773438 261.882812 311.488281 C 241.8125 316.394531 223.378906 316.742188 208.113281 316.964844 C 196.640625 318.921875 181.824219 320.261719 165.730469 319.296875 C 163.371094 319.121094 161.082031 319.039062 158.75 318.800781 C 158.429688 318.78125 158.136719 318.746094 157.839844 318.726562 C 153.332031 318.964844 148.242188 319.140625 142.59375 319.105469 C 141.703125 319.316406 140.492188 319.515625 138.890625 319.617188 C 135.292969 319.8125 130.128906 319.535156 123.855469 318.371094 C 120.734375 317.753906 117.316406 317 113.734375 315.851562 C 110.132812 314.730469 106.320312 313.328125 102.464844 311.304688 C 101.472656 310.835938 100.507812 310.304688 99.550781 309.671875 C 98.585938 309.074219 97.59375 308.476562 96.667969 307.714844 C 95.695312 306.996094 94.746094 306.261719 93.855469 305.316406 C 93.425781 304.839844 92.945312 304.425781 92.515625 303.910156 L 91.332031 302.25 C 90.890625 301.679688 90.539062 301.0625 90.300781 300.613281 C 90.015625 300.089844 89.757812 299.660156 89.484375 299.089844 C 88.933594 297.839844 88.34375 296.535156 88.003906 295.324219 C 87.195312 292.832031 86.738281 290.242188 86.601562 287.652344 C 86.582031 287.433594 86.582031 287.222656 86.582031 287 C 85.949219 284.945312 85.3125 282.847656 84.660156 280.753906 C 84.304688 279.625 83.992188 278.578125 83.597656 277.429688 C 83.203125 276.300781 82.804688 275.179688 82.402344 274.050781 C 80.667969 269.28125 79.378906 264.101562 79.023438 258.683594 C 78.671875 253.28125 79.480469 247.726562 80.941406 242.480469 C 82.449219 237.246094 84.542969 232.414062 86.699219 227.785156 C 88.851562 223.179688 91.074219 218.726562 93.285156 214.382812 C 97.75 205.675781 102.277344 197.371094 106.972656 189.65625 C 116.304688 174.234375 126.097656 161.0625 135.667969 151.207031 C 141.738281 144.839844 147.636719 139.878906 152.890625 136.160156 C 155.601562 133.550781 159.144531 130.621094 163.140625 127.617188 C 163.574219 127.339844 164.003906 127.066406 164.445312 126.761719 C 164.105469 126.367188 163.746094 125.835938 163.710938 125.632812 L 163.574219 125.265625 L 163.371094 124.566406 L 163.179688 123.816406 C 162.882812 122.8125 162.699219 121.765625 162.285156 120.757812 C 160.945312 116.660156 158.648438 112.609375 155.601562 108.566406 C 154.101562 106.527344 152.441406 104.535156 150.640625 102.394531 C 148.839844 100.347656 147.003906 98.207031 145.121094 96.027344 C 144.171875 94.945312 143.21875 93.816406 142.234375 92.714844 C 141.738281 92.078125 141.363281 91.738281 140.886719 91.308594 C 140.433594 90.867188 139.882812 90.453125 139.324219 89.996094 C 138.203125 89.128906 136.933594 88.222656 135.605469 87.164062 C 134.363281 86.109375 133.011719 84.953125 131.875 83.097656 L 131.847656 83.058594 C 131.3125 82.261719 130.746094 81.515625 130.183594 80.074219 C 129.910156 79.320312 129.632812 78.015625 130.128906 76.667969 C 130.367188 75.996094 130.679688 75.5625 131 75.152344 C 131.277344 74.828125 131.609375 74.488281 131.828125 74.316406 C 132.050781 74.132812 132.222656 73.976562 132.425781 73.835938 C 131.738281 72.617188 131.019531 71.347656 130.40625 69.867188 C 129.871094 68.636719 129.457031 67.160156 129.375 65.632812 C 129.414062 64.84375 129.339844 64.027344 129.542969 63.300781 C 129.734375 62.566406 129.9375 61.832031 130.164062 61.125 C 131.414062 58.433594 133.058594 56.769531 134.675781 55.070312 C 135.546875 54.316406 136.402344 53.546875 137.265625 52.839844 C 138.175781 52.222656 139.09375 51.609375 139.976562 51.011719 C 143.640625 48.78125 147.296875 47.28125 150.695312 45.949219 C 154.085938 44.691406 157.261719 43.496094 160.3125 42.378906 C 166.484375 40.117188 172.28125 38.59375 177.535156 37.960938 C 178.839844 37.746094 180.125 37.683594 181.375 37.628906 C 182.613281 37.546875 183.828125 37.453125 184.992188 37.527344 C 186.140625 37.5625 187.269531 37.609375 188.335938 37.648438 C 189.421875 37.785156 190.449219 37.921875 191.441406 38.042969 C 195.390625 38.621094 198.660156 39.585938 201.25 40.511719 C 203.878906 41.402344 205.835938 42.351562 207.40625 43.03125 C 207.515625 43.085938 207.617188 43.128906 207.71875 43.1875 C 212.917969 44.269531 217.738281 45.738281 222.140625 47.519531 C 223.378906 48.074219 224.664062 48.585938 225.792969 49.136719 C 226.34375 49.433594 226.898438 49.707031 227.457031 49.992188 L 227.871094 50.183594 L 228.0625 50.285156 L 228.128906 50.324219 L 228.246094 50.386719 L 228.265625 50.386719 L 228.382812 50.460938 L 229.230469 51.039062 C 231.570312 52.363281 233.546875 54.613281 234.558594 57.046875 C 235.125 58.277344 235.28125 59.535156 235.464844 60.75 C 235.464844 60.832031 235.464844 60.886719 235.464844 60.96875 C 236.808594 62.824219 238.488281 64.6875 240.941406 66.78125 C 242.328125 68.003906 243.90625 69.328125 245.488281 71.191406 C 246.304688 72.121094 247.03125 73.25 247.664062 74.535156 C 248.214844 75.875 248.65625 77.417969 248.636719 78.980469 C 248.65625 82.1875 247.488281 84.914062 246.121094 87.761719 C 244.558594 90.488281 242.503906 93.007812 240.167969 95.339844 C 237.855469 97.636719 235.328125 99.851562 232.875 102.164062 C 230.480469 104.453125 228.089844 107.261719 225.5 110.019531 C 221.304688 114.859375 216.894531 120.332031 211.953125 126.195312 C 213.292969 126.917969 214.578125 127.652344 215.828125 128.40625 C 220.292969 131.082031 224.167969 133.671875 227.355469 135.957031 C 231.332031 138.832031 234.234375 141.203125 235.722656 142.765625 C 239.203125 145.097656 242.859375 147.769531 246.582031 150.992188 C 247.335938 151.644531 248.105469 152.28125 248.878906 152.933594 C 249.566406 153.621094 250.273438 154.292969 250.988281 155.007812 C 251.695312 155.695312 252.433594 156.414062 253.167969 157.121094 L 254.25 158.195312 L 254.386719 158.332031 L 254.554688 158.507812 L 254.628906 158.589844 L 254.882812 158.882812 L 255.398438 159.5 C 258.191406 162.695312 260.972656 166.175781 263.527344 170 C 268.691406 177.59375 273.300781 186.292969 277.09375 195.828125 C 280.972656 205.316406 284.15625 215.566406 286.96875 226.269531 C 288.363281 231.585938 289.714844 237.0625 291.019531 242.5625 C 292.324219 248.019531 293.710938 253.777344 294.636719 259.648438 C 295.566406 265.5625 296.082031 271.53125 295.6875 277.566406 C 295.273438 283.539062 293.847656 289.675781 290.625 294.972656 C 289.796875 296.261719 288.804688 297.464844 287.914062 298.710938 C 286.867188 299.816406 285.738281 300.871094 284.652344 301.910156 C 283.40625 302.863281 282.082031 303.753906 280.796875 304.628906 C 279.546875 305.371094 278.398438 305.847656 277.214844 306.464844 L 276.324219 306.898438 C 276.167969 306.960938 276.085938 306.996094 276.046875 307.035156 " fill-opacity="1" fill-rule="nonzero"/></g><path fill="#fc8eac" d="M 249.839844 305.058594 L 249.839844 305.078125 L 249.824219 305.097656 L 249.769531 305.097656 C 249.785156 305.078125 249.824219 305.058594 249.839844 305.058594 " fill-opacity="1" fill-rule="nonzero"/><path fill="#fc8eac" d="M 226.328125 249.507812 C 226.328125 248.101562 226.226562 246.695312 226.050781 245.308594 C 224.269531 231.6875 215.128906 223.917969 203.050781 218.964844 C 202.382812 218.707031 202.078125 218.121094 202.058594 217.542969 C 201.886719 217.246094 201.820312 216.851562 202.003906 216.421875 C 203.824219 211.949219 201.984375 208.125 201.886719 203.664062 C 201.800781 199.226562 202.59375 194.9375 202.003906 190.492188 C 201.839844 189.261719 203.03125 188.507812 203.914062 188.671875 C 204.492188 188.523438 205.109375 188.691406 205.457031 189.359375 C 207.652344 193.457031 208.957031 198.96875 212.484375 202.191406 C 217.480469 206.765625 223.046875 202.828125 221.402344 196.359375 C 219.980469 190.75 216.671875 185.796875 212.109375 182.222656 C 209.847656 180.460938 207.359375 179.035156 204.714844 177.925781 C 203.777344 177.546875 202.160156 177.273438 201.582031 176.34375 C 200.894531 175.242188 201.703125 173.738281 201.984375 172.644531 C 202.417969 170.992188 202.4375 169.050781 202.351562 167.34375 C 202.296875 166.019531 202.199219 163.238281 201.066406 162.523438 C 200.691406 162.28125 197.054688 162.125 197.070312 162.164062 C 197.449219 164.164062 196.484375 166.378906 196.585938 168.519531 C 196.675781 170.53125 197.097656 172.507812 197.253906 174.527344 C 197.355469 175.847656 195.96875 176.226562 195.058594 175.710938 C 194.996094 175.710938 194.941406 175.730469 194.886719 175.710938 C 192.542969 175.125 190.089844 175.023438 187.859375 176.050781 C 186.847656 176.519531 185.9375 175.832031 185.683594 175.042969 C 185.5625 174.886719 185.488281 174.683594 185.441406 174.425781 C 184.957031 171.367188 185.628906 168.300781 184.753906 165.269531 C 184.441406 164.121094 183.964844 162.558594 182.476562 163.054688 C 181.082031 163.53125 181.082031 165.488281 181.015625 166.691406 C 180.898438 169.914062 181.6875 173.378906 181.050781 176.566406 C 181.015625 176.722656 174.613281 178.109375 173.878906 178.421875 C 171.785156 179.332031 169.863281 180.597656 168.183594 182.125 C 164.804688 185.210938 162.488281 189.324219 161.15625 193.667969 C 158.511719 202.46875 159.476562 212.929688 164.839844 220.546875 C 168.375 225.570312 173.816406 228.777344 179.949219 229.410156 C 180.089844 229.425781 180.1875 229.472656 180.28125 229.511719 C 180.898438 229.648438 181.429688 230.078125 181.429688 230.898438 C 181.476562 239.558594 181.886719 248.203125 181.925781 256.847656 C 181.925781 257.847656 181.117188 258.324219 180.328125 258.269531 C 180.144531 258.324219 179.949219 258.363281 179.710938 258.34375 C 175.917969 257.929688 173.722656 256.800781 172.179688 253.179688 C 170.65625 249.664062 172.179688 235.839844 164.242188 239.042969 C 153.542969 243.351562 153.011719 255.320312 160.488281 262.660156 C 164.363281 266.472656 168.835938 269.402344 173.585938 271.972656 C 175.457031 272.074219 177.257812 272.507812 179.023438 273.140625 C 179.195312 273.195312 179.316406 273.296875 179.4375 273.398438 C 179.96875 273.554688 180.417969 274.011719 180.445312 274.738281 C 180.585938 278.992188 182.128906 283.34375 181.667969 287.597656 C 181.566406 288.617188 181.136719 291.375 182.027344 292.109375 C 182.300781 292.320312 183.3125 292.300781 183.644531 292.089844 C 184.535156 291.472656 183.945312 290.105469 183.910156 289.277344 C 183.863281 287.835938 184.066406 286.332031 184.019531 284.84375 C 183.925781 281.859375 183.625 278.871094 183.742188 275.886719 C 183.761719 275.132812 184.394531 274.324219 185.230469 274.398438 C 188.390625 274.71875 191.5625 275.273438 194.765625 275.058594 C 197.394531 274.894531 199.195312 275.371094 199.128906 278.421875 C 199.074219 280.894531 198.761719 283.34375 198.625 285.816406 C 198.523438 287.414062 197.734375 290.859375 200.242188 290.289062 C 201.765625 289.929688 201.488281 288.71875 201.390625 287.515625 C 201.269531 286.035156 201.460938 284.53125 201.460938 283.023438 C 201.425781 280.257812 200.976562 277.550781 200.773438 274.777344 C 201.488281 274.582031 202.140625 274.378906 202.777344 274.1875 C 203.878906 273.867188 204.972656 273.554688 206.175781 273.351562 C 207.855469 273.078125 209.535156 272.507812 211.097656 271.871094 C 214.066406 270.707031 216.855469 269.027344 219.171875 266.832031 C 223.929688 262.320312 226.308594 256.011719 226.328125 249.507812 Z M 205.042969 216.632812 C 218.144531 222.308594 229.53125 232.394531 229.15625 247.917969 C 228.742188 264.875 220.015625 274.601562 203.703125 276.742188 C 203.484375 276.757812 204.394531 285.898438 204.457031 286.984375 C 204.566406 288.765625 205.042969 292.832031 202.574219 293.3125 C 201.269531 293.570312 199.847656 293.3125 198.523438 293.484375 C 195.117188 293.917969 195.554688 290.5 195.554688 287.875 C 195.539062 286.984375 195.796875 277.925781 196.191406 277.863281 C 193.039062 278.238281 189.878906 277.863281 186.710938 277.53125 C 186.730469 281.71875 186.914062 285.953125 186.988281 290.144531 C 187.050781 292.734375 186.65625 294.992188 183.570312 294.855469 C 182.402344 294.789062 179.8125 294.972656 178.996094 293.882812 C 178.222656 292.851562 178.5625 290.242188 178.5625 289.003906 C 178.5625 287.101562 178.800781 285.199219 178.507812 283.300781 C 178.269531 281.902344 178.050781 280.496094 177.875 279.09375 C 177.691406 277.722656 178.011719 276.089844 176.726562 275.511719 C 175.953125 275.179688 174.980469 275.410156 174.15625 275.253906 C 173.164062 275.03125 172.097656 274.5625 171.207031 274.066406 C 161.441406 268.492188 145.515625 256.40625 154.359375 243.730469 C 157.160156 239.734375 164.382812 232.597656 169.964844 236.609375 C 175.871094 240.898438 171.324219 253.558594 178.941406 255.203125 C 178.867188 247.523438 178.546875 239.835938 178.488281 232.136719 C 149.8125 227.589844 149.832031 179.238281 178.1875 174.132812 C 178.085938 171.761719 177.773438 169.382812 177.992188 167.011719 C 178.066406 166.085938 178.390625 165.3125 178.5625 164.441406 C 178.765625 163.496094 178.390625 162.539062 178.609375 161.613281 C 179.023438 159.929688 181.714844 160.390625 182.953125 160.425781 C 184.734375 160.464844 185.9375 161.0625 186.832031 162.695312 C 187.636719 164.222656 187.820312 166.039062 187.941406 167.71875 C 187.960938 168.160156 188.316406 172.808594 188.199219 172.828125 C 190.136719 172.277344 192.113281 172.210938 194.105469 172.535156 C 193.636719 167.492188 193.003906 158.488281 199.433594 159.140625 C 206.863281 159.914062 205.484375 169.28125 204.714844 174.765625 C 210.722656 177.082031 216.433594 180.71875 220.082031 186.15625 C 223.019531 190.609375 226.226562 197.269531 223.839844 202.632812 C 222.019531 206.75 218.097656 208.382812 213.910156 206.765625 C 209.242188 204.96875 207 199.960938 204.988281 195.351562 C 204.824219 198.125 204.53125 200.890625 204.851562 203.664062 C 205.367188 208.210938 206.605469 212.261719 205.042969 216.632812 " fill-opacity="1" fill-rule="nonzero"/><path fill="#fc8eac" d="M 204.566406 258.703125 C 207.578125 256.367188 209.636719 253.355469 209.363281 249.148438 C 209.125 245.75 208.148438 241.101562 204.394531 240.558594 C 204.292969 246.613281 203.914062 252.683594 204.566406 258.703125 Z M 212.265625 248.320312 C 212.707031 254.84375 209.5 259.296875 204.179688 262.578125 C 203.429688 263.054688 202.160156 262.632812 202.003906 261.6875 C 200.820312 254.171875 201.40625 246.613281 201.460938 239.042969 C 201.460938 238.070312 202.242188 237.59375 202.988281 237.621094 C 203.070312 237.621094 203.105469 237.574219 203.1875 237.574219 C 209.261719 237.042969 211.886719 243.113281 212.265625 248.320312 " fill-opacity="1" fill-rule="nonzero"/><path fill="#fc8eac" d="M 196.503906 202.210938 C 196.539062 198.738281 196.417969 195.210938 196.675781 191.730469 C 196.539062 191.710938 196.402344 191.695312 196.261719 191.628906 C 193.828125 190.527344 191.203125 190.546875 188.59375 190.582031 C 189.796875 197.644531 189.210938 204.8125 189.109375 211.949219 C 191.320312 212.839844 193.636719 213.214844 196.007812 213.289062 C 196.089844 212.1875 196.300781 210.128906 196.347656 209.375 C 196.449219 206.980469 196.484375 204.609375 196.503906 202.210938 Z M 199.707031 190.152344 C 200.019531 190.886719 199.570312 192.484375 199.523438 193.273438 C 199.292969 197.664062 199.523438 202.054688 199.414062 206.425781 C 199.332031 208.824219 200.738281 217.265625 196.464844 216.457031 C 194.820312 216.15625 193.121094 216.0625 191.476562 215.742188 C 190.257812 215.484375 188.988281 215.125 187.804688 214.695312 C 185.371094 213.804688 186.078125 212.359375 186.179688 210.148438 C 186.277344 207.871094 186.335938 205.601562 186.378906 203.324219 C 186.472656 198.777344 186.398438 194.210938 185.441406 189.757812 C 185.230469 188.746094 185.957031 188.074219 186.746094 187.9375 C 186.96875 187.761719 187.242188 187.644531 187.601562 187.644531 C 189.539062 187.625 191.476562 187.597656 193.398438 187.855469 C 194.976562 188.074219 196.464844 188.808594 197.960938 189.296875 C 198.128906 189.34375 198.265625 189.378906 198.421875 189.433594 C 199.15625 189.65625 199.367188 189.34375 199.707031 190.152344 " fill-opacity="1" fill-rule="nonzero"/><path fill="#fc8eac" d="M 195.492188 260.402344 C 195.273438 252.425781 193.96875 244.554688 194.703125 236.609375 C 192.453125 235.664062 190.210938 234.609375 187.859375 234.019531 C 187.859375 240.542969 187.859375 254.707031 187.859375 259.730469 C 190.394531 259.988281 192.9375 260.125 195.492188 260.402344 Z M 198.476562 261.292969 C 198.496094 261.546875 198.441406 261.742188 198.359375 261.945312 C 198.523438 262.769531 198.082031 263.660156 197 263.523438 C 195.078125 263.265625 193.160156 263.128906 191.222656 262.992188 C 189.28125 262.835938 187.1875 262.734375 185.371094 261.945312 C 183.625 261.171875 183.808594 259.296875 183.910156 257.726562 C 184.066406 255.101562 183.910156 252.425781 183.910156 249.800781 C 183.910156 246.519531 183.910156 243.25 183.910156 239.992188 C 183.910156 238.347656 183.910156 236.730469 183.910156 235.085938 C 183.910156 233.761719 183.386719 230.417969 185.644531 230.660156 C 188.21875 230.898438 190.667969 231.777344 193.039062 232.753906 C 194.628906 233.386719 196.84375 233.578125 197.632812 235.34375 C 197.890625 235.941406 197.851562 236.507812 197.75 237.089844 C 197.667969 237.484375 197.566406 237.878906 197.550781 238.292969 C 197.429688 239.796875 197.429688 241.3125 197.449219 242.820312 C 197.550781 248.992188 198.386719 255.136719 198.476562 261.292969 " fill-opacity="1" fill-rule="nonzero"/><path fill="#fc8eac" d="M 178.167969 208.367188 C 178.066406 203.765625 177.835938 199.152344 177.753906 194.558594 C 173.402344 197.800781 174.15625 204.882812 178.167969 208.367188 Z M 181.449219 210.066406 C 181.59375 210.816406 181.6875 211.515625 181.667969 212.398438 C 180.417969 212.914062 178.390625 211.726562 177.257812 211.230469 C 176.128906 210.734375 175.265625 209.734375 174.511719 208.761719 C 173.070312 206.839844 172.179688 204.507812 171.960938 202.121094 C 171.5 197.148438 174.089844 192.464844 178.820312 190.648438 C 180.050781 190.167969 180.757812 191.398438 180.546875 192.410156 C 180.621094 192.605469 180.683594 192.824219 180.683594 193.0625 C 180.722656 196.542969 180.859375 199.980469 180.996094 203.441406 C 181.050781 205.160156 180.839844 207.125 181.171875 208.796875 C 181.273438 209.257812 181.355469 209.667969 181.449219 210.066406 " fill-opacity="1" fill-rule="nonzero"/><g fill="#000000" fill-opacity="1"><g transform="translate(188.6038, 271.01706)"><g><path d="M 0.6875 0.03125 C 0.582031 0.03125 0.488281 0.00390625 0.40625 -0.046875 C 0.320312 -0.0976562 0.253906 -0.175781 0.203125 -0.28125 C 0.160156 -0.382812 0.140625 -0.515625 0.140625 -0.671875 C 0.140625 -0.816406 0.164062 -0.941406 0.21875 -1.046875 C 0.269531 -1.148438 0.335938 -1.226562 0.421875 -1.28125 C 0.503906 -1.332031 0.601562 -1.359375 0.71875 -1.359375 C 0.800781 -1.359375 0.878906 -1.335938 0.953125 -1.296875 C 1.023438 -1.265625 1.085938 -1.210938 1.140625 -1.140625 L 1.15625 -1.140625 L 1.15625 -1.859375 L 1.359375 -1.859375 L 1.359375 0 L 1.15625 0 L 1.15625 -0.1875 L 1.140625 -0.203125 C 1.085938 -0.128906 1.023438 -0.0703125 0.953125 -0.03125 C 0.878906 0.0078125 0.789062 0.03125 0.6875 0.03125 Z M 0.75 -0.15625 C 0.875 -0.15625 0.972656 -0.195312 1.046875 -0.28125 C 1.117188 -0.363281 1.15625 -0.492188 1.15625 -0.671875 C 1.15625 -0.835938 1.117188 -0.960938 1.046875 -1.046875 C 0.972656 -1.128906 0.875 -1.171875 0.75 -1.171875 C 0.625 -1.171875 0.523438 -1.128906 0.453125 -1.046875 C 0.390625 -0.972656 0.359375 -0.847656 0.359375 -0.671875 C 0.359375 -0.328125 0.488281 -0.15625 0.75 -0.15625 Z M 0.75 -0.15625 "/></g></g></g><g fill="#000000" fill-opacity="1"><g transform="translate(190.195756, 271.01706)"><g><path d="M 0.765625 0.03125 C 0.640625 0.03125 0.53125 0.00390625 0.4375 -0.046875 C 0.34375 -0.109375 0.269531 -0.1875 0.21875 -0.28125 C 0.164062 -0.382812 0.140625 -0.515625 0.140625 -0.671875 C 0.140625 -0.816406 0.164062 -0.941406 0.21875 -1.046875 C 0.269531 -1.148438 0.34375 -1.226562 0.4375 -1.28125 C 0.53125 -1.332031 0.640625 -1.359375 0.765625 -1.359375 C 0.890625 -1.359375 1 -1.332031 1.09375 -1.28125 C 1.1875 -1.226562 1.253906 -1.148438 1.296875 -1.046875 C 1.347656 -0.941406 1.375 -0.816406 1.375 -0.671875 C 1.375 -0.515625 1.347656 -0.382812 1.296875 -0.28125 C 1.253906 -0.1875 1.1875 -0.109375 1.09375 -0.046875 C 1 0.00390625 0.890625 0.03125 0.765625 0.03125 Z M 0.765625 -0.15625 C 0.898438 -0.15625 1 -0.195312 1.0625 -0.28125 C 1.132812 -0.363281 1.171875 -0.492188 1.171875 -0.671875 C 1.171875 -0.835938 1.132812 -0.960938 1.0625 -1.046875 C 1 -1.128906 0.898438 -1.171875 0.765625 -1.171875 C 0.628906 -1.171875 0.523438 -1.128906 0.453125 -1.046875 C 0.390625 -0.960938 0.359375 -0.835938 0.359375 -0.671875 C 0.359375 -0.492188 0.390625 -0.363281 0.453125 -0.28125 C 0.523438 -0.195312 0.628906 -0.15625 0.765625 -0.15625 Z M 0.765625 -0.15625 "/></g></g></g><g fill="#000000" fill-opacity="1"><g transform="translate(191.726063, 271.01706)"><g><path d="M 0.53125 0.03125 C 0.4375 0.03125 0.363281 0.00390625 0.3125 -0.046875 C 0.257812 -0.109375 0.234375 -0.191406 0.234375 -0.296875 L 0.234375 -1.859375 L 0.421875 -1.859375 L 0.421875 -0.3125 C 0.421875 -0.25 0.429688 -0.207031 0.453125 -0.1875 C 0.472656 -0.164062 0.503906 -0.15625 0.546875 -0.15625 C 0.578125 -0.15625 0.609375 -0.15625 0.640625 -0.15625 L 0.65625 -0.15625 L 0.671875 0 C 0.660156 0.0078125 0.640625 0.015625 0.609375 0.015625 C 0.585938 0.0234375 0.5625 0.03125 0.53125 0.03125 Z M 0.53125 0.03125 "/></g></g></g><g fill="#000000" fill-opacity="1"><g transform="translate(192.451327, 271.01706)"><g><path d="M 0.53125 0.03125 C 0.4375 0.03125 0.363281 0.00390625 0.3125 -0.046875 C 0.257812 -0.109375 0.234375 -0.191406 0.234375 -0.296875 L 0.234375 -1.859375 L 0.421875 -1.859375 L 0.421875 -0.3125 C 0.421875 -0.25 0.429688 -0.207031 0.453125 -0.1875 C 0.472656 -0.164062 0.503906 -0.15625 0.546875 -0.15625 C 0.578125 -0.15625 0.609375 -0.15625 0.640625 -0.15625 L 0.65625 -0.15625 L 0.671875 0 C 0.660156 0.0078125 0.640625 0.015625 0.609375 0.015625 C 0.585938 0.0234375 0.5625 0.03125 0.53125 0.03125 Z M 0.53125 0.03125 "/></g></g></g><g fill="#000000" fill-opacity="1"><g transform="translate(193.176591, 271.01706)"><g><path d="M 0.546875 0.03125 C 0.421875 0.03125 0.316406 0 0.234375 -0.0625 C 0.160156 -0.132812 0.125 -0.238281 0.125 -0.375 C 0.125 -0.445312 0.140625 -0.507812 0.171875 -0.5625 C 0.210938 -0.625 0.265625 -0.671875 0.328125 -0.703125 C 0.398438 -0.734375 0.488281 -0.757812 0.59375 -0.78125 C 0.695312 -0.800781 0.769531 -0.816406 0.8125 -0.828125 C 0.863281 -0.847656 0.898438 -0.867188 0.921875 -0.890625 C 0.941406 -0.921875 0.953125 -0.957031 0.953125 -1 C 0.953125 -1.0625 0.929688 -1.109375 0.890625 -1.140625 C 0.847656 -1.171875 0.78125 -1.1875 0.6875 -1.1875 C 0.601562 -1.1875 0.53125 -1.164062 0.46875 -1.125 C 0.40625 -1.09375 0.347656 -1.046875 0.296875 -0.984375 L 0.265625 -0.984375 L 0.171875 -1.125 C 0.234375 -1.195312 0.304688 -1.253906 0.390625 -1.296875 C 0.472656 -1.335938 0.570312 -1.359375 0.6875 -1.359375 C 0.84375 -1.359375 0.957031 -1.320312 1.03125 -1.25 C 1.101562 -1.1875 1.140625 -1.09375 1.140625 -0.96875 L 1.140625 -0.265625 C 1.140625 -0.191406 1.171875 -0.15625 1.234375 -0.15625 C 1.253906 -0.15625 1.273438 -0.15625 1.296875 -0.15625 L 1.3125 -0.15625 L 1.34375 -0.015625 C 1.320312 -0.00390625 1.300781 0 1.28125 0 C 1.257812 0.0078125 1.234375 0.015625 1.203125 0.015625 C 1.128906 0.015625 1.070312 0 1.03125 -0.03125 C 1 -0.0703125 0.976562 -0.125 0.96875 -0.1875 L 0.9375 -0.1875 C 0.90625 -0.113281 0.851562 -0.0546875 0.78125 -0.015625 C 0.71875 0.015625 0.640625 0.03125 0.546875 0.03125 Z M 0.59375 -0.125 C 0.664062 -0.125 0.726562 -0.140625 0.78125 -0.171875 C 0.832031 -0.210938 0.875 -0.265625 0.90625 -0.328125 C 0.9375 -0.390625 0.953125 -0.460938 0.953125 -0.546875 L 0.953125 -0.703125 L 0.921875 -0.71875 C 0.898438 -0.695312 0.863281 -0.675781 0.8125 -0.65625 C 0.769531 -0.644531 0.710938 -0.632812 0.640625 -0.625 C 0.566406 -0.613281 0.503906 -0.597656 0.453125 -0.578125 C 0.410156 -0.554688 0.378906 -0.523438 0.359375 -0.484375 C 0.335938 -0.453125 0.328125 -0.414062 0.328125 -0.375 C 0.328125 -0.289062 0.347656 -0.226562 0.390625 -0.1875 C 0.441406 -0.144531 0.507812 -0.125 0.59375 -0.125 Z M 0.59375 -0.125 "/></g></g></g><g fill="#000000" fill-opacity="1"><g transform="translate(194.555802, 271.01706)"><g><path d="M 0.234375 0 L 0.234375 -1.328125 L 0.421875 -1.328125 L 0.421875 -1.125 L 0.4375 -1.109375 C 0.5 -1.265625 0.617188 -1.34375 0.796875 -1.34375 C 0.878906 -1.34375 0.945312 -1.328125 1 -1.296875 L 0.953125 -1.125 L 0.921875 -1.125 C 0.867188 -1.144531 0.816406 -1.15625 0.765625 -1.15625 C 0.648438 -1.15625 0.5625 -1.113281 0.5 -1.03125 C 0.445312 -0.957031 0.421875 -0.832031 0.421875 -0.65625 L 0.421875 0 Z M 0.234375 0 "/></g></g></g></svg>