<svg xmlns="http://www.w3.org/2000/svg" xmlns:xlink="http://www.w3.org/1999/xlink" width="500" zoomAndPan="magnify" viewBox="0 0 375 374.999991" height="500" preserveAspectRatio="xMidYMid meet" version="1.0"><defs><g/><clipPath id="9b94771cc4"><path d="M 86.875 77 L 276.625 77 L 276.625 320 L 86.875 320 Z M 86.875 77 " clip-rule="nonzero"/></clipPath></defs><path fill="#fc8eac" d="M 124.699219 140.996094 C 124.496094 140.835938 124.207031 140.855469 124.027344 141.039062 C 123.023438 142.109375 119.90625 145.417969 118.839844 146.546875 C 118.746094 146.644531 118.703125 146.777344 118.710938 146.914062 C 118.714844 147.050781 118.78125 147.175781 118.886719 147.261719 C 120.886719 148.917969 129.714844 156.230469 131.980469 158.105469 C 132.28125 158.355469 132.726562 158.339844 133.011719 158.066406 C 136.050781 155.140625 152.097656 139.679688 154.808594 137.0625 C 154.910156 136.960938 154.96875 136.832031 154.964844 136.691406 C 154.960938 136.550781 154.902344 136.417969 154.796875 136.324219 C 153.710938 135.332031 150.71875 132.621094 149.691406 131.691406 C 149.492188 131.515625 149.195312 131.519531 149 131.699219 C 146.882812 133.71875 135.527344 144.542969 133.007812 146.941406 C 132.722656 147.210938 132.285156 147.226562 131.984375 146.980469 C 130.441406 145.71875 125.992188 142.058594 124.699219 140.996094 Z M 124.699219 140.996094 " fill-opacity="1" fill-rule="evenodd"/><path fill="#fc8eac" d="M 250.265625 148.746094 C 250.265625 148.59375 250.207031 148.449219 250.101562 148.34375 C 249.992188 148.238281 249.851562 148.175781 249.699219 148.175781 C 242.925781 148.175781 177.488281 148.175781 170.714844 148.175781 C 170.5625 148.175781 170.417969 148.238281 170.3125 148.34375 C 170.207031 148.449219 170.144531 148.59375 170.144531 148.746094 C 170.144531 150.46875 170.144531 155.636719 170.144531 157.355469 C 170.144531 157.507812 170.207031 157.652344 170.3125 157.757812 C 170.417969 157.863281 170.5625 157.925781 170.714844 157.925781 C 177.488281 157.925781 242.925781 157.925781 249.699219 157.925781 C 249.851562 157.925781 249.992188 157.863281 250.101562 157.757812 C 250.207031 157.652344 250.265625 157.507812 250.265625 157.355469 C 250.265625 155.636719 250.265625 150.46875 250.265625 148.746094 Z M 250.265625 148.746094 " fill-opacity="1" fill-rule="evenodd"/><path fill="#fc8eac" d="M 124.699219 183.542969 C 124.496094 183.378906 124.207031 183.398438 124.027344 183.582031 C 123.023438 184.652344 119.90625 187.960938 118.839844 189.089844 C 118.746094 189.191406 118.703125 189.324219 118.710938 189.460938 C 118.714844 189.59375 118.78125 189.71875 118.886719 189.808594 C 120.886719 191.464844 129.714844 198.773438 131.980469 200.648438 C 132.28125 200.898438 132.726562 200.886719 133.011719 200.613281 C 136.050781 197.683594 152.097656 182.222656 154.808594 179.605469 C 154.910156 179.507812 154.96875 179.375 154.964844 179.234375 C 154.960938 179.09375 154.902344 178.960938 154.796875 178.867188 C 153.710938 177.878906 150.71875 175.164062 149.691406 174.238281 C 149.492188 174.058594 149.195312 174.0625 149 174.246094 C 146.882812 176.265625 135.527344 187.085938 133.007812 189.484375 C 132.722656 189.753906 132.285156 189.769531 131.984375 189.523438 C 130.441406 188.257812 125.992188 184.601562 124.699219 183.542969 Z M 124.699219 183.542969 " fill-opacity="1" fill-rule="evenodd"/><path fill="#fc8eac" d="M 250.265625 191.285156 C 250.265625 191.132812 250.207031 190.988281 250.101562 190.882812 C 249.992188 190.777344 249.851562 190.71875 249.699219 190.71875 C 242.925781 190.71875 177.488281 190.71875 170.714844 190.71875 C 170.5625 190.71875 170.417969 190.777344 170.3125 190.882812 C 170.207031 190.988281 170.144531 191.132812 170.144531 191.285156 C 170.144531 193.007812 170.144531 198.175781 170.144531 199.894531 C 170.144531 200.046875 170.207031 200.191406 170.3125 200.296875 C 170.417969 200.402344 170.5625 200.464844 170.714844 200.464844 C 177.488281 200.464844 242.925781 200.464844 249.699219 200.464844 C 249.851562 200.464844 249.992188 200.402344 250.101562 200.296875 C 250.207031 200.191406 250.265625 200.046875 250.265625 199.894531 C 250.265625 198.175781 250.265625 193.007812 250.265625 191.285156 Z M 250.265625 191.285156 " fill-opacity="1" fill-rule="evenodd"/><path fill="#fc8eac" d="M 124.699219 226.082031 C 124.496094 225.917969 124.207031 225.9375 124.027344 226.125 C 123.023438 227.191406 119.90625 230.503906 118.839844 231.632812 C 118.746094 231.730469 118.703125 231.863281 118.710938 232 C 118.714844 232.136719 118.78125 232.261719 118.886719 232.347656 C 120.886719 234.003906 129.714844 241.316406 131.980469 243.191406 C 132.28125 243.441406 132.726562 243.425781 133.011719 243.152344 C 136.050781 240.222656 152.097656 224.765625 154.808594 222.144531 C 154.910156 222.046875 154.96875 221.914062 154.964844 221.773438 C 154.960938 221.632812 154.902344 221.5 154.796875 221.40625 C 153.710938 220.417969 150.71875 217.707031 149.691406 216.777344 C 149.492188 216.597656 149.195312 216.601562 149 216.785156 C 146.882812 218.804688 135.527344 229.628906 133.007812 232.027344 C 132.722656 232.296875 132.285156 232.308594 131.984375 232.0625 C 130.441406 230.800781 125.992188 227.148438 124.699219 226.082031 Z M 124.699219 226.082031 " fill-opacity="1" fill-rule="evenodd"/><path fill="#fc8eac" d="M 250.265625 233.828125 C 250.265625 233.679688 250.207031 233.535156 250.101562 233.429688 C 249.992188 233.320312 249.851562 233.261719 249.699219 233.261719 C 242.925781 233.261719 177.488281 233.261719 170.714844 233.261719 C 170.5625 233.261719 170.417969 233.320312 170.3125 233.429688 C 170.207031 233.535156 170.144531 233.679688 170.144531 233.828125 C 170.144531 235.554688 170.144531 240.71875 170.144531 242.441406 C 170.144531 242.59375 170.207031 242.734375 170.3125 242.84375 C 170.417969 242.949219 170.5625 243.007812 170.714844 243.007812 C 177.488281 243.007812 242.925781 243.007812 249.699219 243.007812 C 249.851562 243.007812 249.992188 242.949219 250.101562 242.84375 C 250.207031 242.734375 250.265625 242.59375 250.265625 242.441406 C 250.265625 240.71875 250.265625 235.554688 250.265625 233.828125 Z M 250.265625 233.828125 " fill-opacity="1" fill-rule="evenodd"/><path fill="#fc8eac" d="M 124.699219 268.625 C 124.496094 268.464844 124.207031 268.480469 124.027344 268.667969 C 123.023438 269.734375 119.90625 273.046875 118.839844 274.175781 C 118.746094 274.273438 118.703125 274.40625 118.710938 274.542969 C 118.714844 274.679688 118.78125 274.804688 118.886719 274.890625 C 120.886719 276.546875 129.714844 283.859375 131.980469 285.734375 C 132.28125 285.984375 132.726562 285.96875 133.011719 285.695312 C 136.050781 282.769531 152.097656 267.308594 154.808594 264.691406 C 154.910156 264.589844 154.96875 264.457031 154.964844 264.320312 C 154.960938 264.179688 154.902344 264.046875 154.796875 263.953125 C 153.710938 262.960938 150.71875 260.25 149.691406 259.320312 C 149.492188 259.144531 149.195312 259.148438 149 259.328125 C 146.882812 261.347656 135.527344 272.171875 133.007812 274.570312 C 132.722656 274.839844 132.285156 274.855469 131.984375 274.609375 C 130.441406 273.347656 125.992188 269.6875 124.699219 268.625 Z M 124.699219 268.625 " fill-opacity="1" fill-rule="evenodd"/><path fill="#fc8eac" d="M 250.265625 276.375 C 250.265625 276.222656 250.207031 276.078125 250.101562 275.972656 C 249.992188 275.867188 249.851562 275.804688 249.699219 275.804688 C 242.925781 275.804688 177.488281 275.804688 170.714844 275.804688 C 170.5625 275.804688 170.417969 275.867188 170.3125 275.972656 C 170.207031 276.078125 170.144531 276.222656 170.144531 276.375 C 170.144531 278.097656 170.144531 283.265625 170.144531 284.984375 C 170.144531 285.136719 170.207031 285.28125 170.3125 285.386719 C 170.417969 285.492188 170.5625 285.554688 170.714844 285.554688 C 177.488281 285.554688 242.925781 285.554688 249.699219 285.554688 C 249.851562 285.554688 249.992188 285.492188 250.101562 285.386719 C 250.207031 285.28125 250.265625 285.136719 250.265625 284.984375 C 250.265625 283.261719 250.265625 278.09375 250.265625 276.375 Z M 250.265625 276.375 " fill-opacity="1" fill-rule="evenodd"/><g clip-path="url(#9b94771cc4)"><path fill="#fc8eac" d="M 276.183594 103.648438 C 276.179688 103.449219 276.175781 103.253906 276.167969 103.054688 C 275.804688 94.6875 268.34375 87.910156 260.375 87.839844 C 251.070312 87.808594 241.765625 87.78125 232.457031 87.757812 L 232.457031 81.691406 C 232.457031 79.332031 230.546875 77.421875 228.191406 77.421875 C 221.398438 77.421875 207.308594 77.421875 191.90625 77.421875 C 191.121094 82.40625 186.816406 86.226562 181.617188 86.226562 C 176.414062 86.226562 172.105469 82.40625 171.328125 77.421875 C 155.921875 77.421875 141.832031 77.421875 135.042969 77.421875 C 132.683594 77.421875 130.773438 79.332031 130.773438 81.691406 L 130.773438 87.757812 C 121.472656 87.777344 112.167969 87.804688 102.859375 87.839844 C 94.054688 87.917969 87.121094 95.507812 87.050781 103.648438 C 86.820312 170.222656 86.820312 236.796875 87.050781 303.367188 C 87.128906 312.035156 94.621094 319.097656 102.859375 319.175781 C 155.367188 319.324219 207.875 319.324219 260.378906 319.175781 C 260.539062 319.175781 260.707031 319.171875 260.871094 319.164062 C 269.21875 318.851562 276.105469 311.46875 276.1875 303.367188 C 276.335938 236.792969 276.335938 170.222656 276.183594 103.648438 Z M 266.136719 303.304688 C 266.101562 306.46875 263.363281 309.082031 260.347656 309.128906 C 207.875 309.632812 155.394531 309.277344 102.914062 309.128906 C 99.75 309.097656 97.136719 306.359375 97.09375 303.339844 C 96.488281 236.800781 96.863281 170.25 97.09375 103.707031 C 97.121094 100.484375 99.910156 97.894531 102.960938 97.886719 C 112.285156 97.886719 121.605469 97.878906 130.925781 97.871094 C 131.878906 103.785156 137.007812 108.300781 143.1875 108.300781 C 162.738281 108.300781 200.484375 108.300781 220.035156 108.300781 C 226.234375 108.300781 231.375 103.757812 232.304688 97.820312 C 241.640625 97.832031 250.976562 97.855469 260.308594 97.886719 C 263.464844 97.914062 266.085938 100.648438 266.132812 103.675781 C 266.8125 170.214844 266.289062 236.761719 266.136719 303.304688 Z M 266.136719 303.304688 " fill-opacity="1" fill-rule="evenodd"/></g><path fill="#fc8eac" d="M 181.613281 55.703125 C 192.699219 55.703125 201.703125 64.707031 201.703125 75.792969 C 201.703125 86.882812 192.699219 95.886719 181.613281 95.886719 C 170.523438 95.886719 161.523438 86.882812 161.523438 75.792969 C 161.523438 64.707031 170.527344 55.703125 181.613281 55.703125 Z M 181.613281 65.367188 C 187.367188 65.367188 192.042969 70.042969 192.042969 75.796875 C 192.042969 81.554688 187.367188 86.226562 181.613281 86.226562 C 175.859375 86.226562 171.183594 81.554688 171.183594 75.796875 C 171.183594 70.042969 175.859375 65.367188 181.613281 65.367188 Z M 181.613281 65.367188 " fill-opacity="1" fill-rule="evenodd"/><g fill="#fc8eac" fill-opacity="1"><g transform="translate(195.063131, 244.820911)"><g><path d="M 0.6875 0.03125 C 0.582031 0.03125 0.488281 0.00390625 0.40625 -0.046875 C 0.320312 -0.0976562 0.253906 -0.175781 0.203125 -0.28125 C 0.160156 -0.382812 0.140625 -0.515625 0.140625 -0.671875 C 0.140625 -0.816406 0.164062 -0.941406 0.21875 -1.046875 C 0.269531 -1.148438 0.335938 -1.226562 0.421875 -1.28125 C 0.503906 -1.332031 0.601562 -1.359375 0.71875 -1.359375 C 0.800781 -1.359375 0.878906 -1.335938 0.953125 -1.296875 C 1.023438 -1.265625 1.085938 -1.210938 1.140625 -1.140625 L 1.15625 -1.140625 L 1.15625 -1.859375 L 1.359375 -1.859375 L 1.359375 0 L 1.15625 0 L 1.15625 -0.1875 L 1.140625 -0.203125 C 1.085938 -0.128906 1.023438 -0.0703125 0.953125 -0.03125 C 0.878906 0.0078125 0.789062 0.03125 0.6875 0.03125 Z M 0.75 -0.15625 C 0.875 -0.15625 0.972656 -0.195312 1.046875 -0.28125 C 1.117188 -0.363281 1.15625 -0.492188 1.15625 -0.671875 C 1.15625 -0.835938 1.117188 -0.960938 1.046875 -1.046875 C 0.972656 -1.128906 0.875 -1.171875 0.75 -1.171875 C 0.625 -1.171875 0.523438 -1.128906 0.453125 -1.046875 C 0.390625 -0.972656 0.359375 -0.847656 0.359375 -0.671875 C 0.359375 -0.328125 0.488281 -0.15625 0.75 -0.15625 Z M 0.75 -0.15625 "/></g></g></g><g fill="#fc8eac" fill-opacity="1"><g transform="translate(196.655086, 244.820911)"><g><path d="M 0.765625 0.03125 C 0.640625 0.03125 0.53125 0.00390625 0.4375 -0.046875 C 0.34375 -0.109375 0.269531 -0.1875 0.21875 -0.28125 C 0.164062 -0.382812 0.140625 -0.515625 0.140625 -0.671875 C 0.140625 -0.816406 0.164062 -0.941406 0.21875 -1.046875 C 0.269531 -1.148438 0.34375 -1.226562 0.4375 -1.28125 C 0.53125 -1.332031 0.640625 -1.359375 0.765625 -1.359375 C 0.890625 -1.359375 1 -1.332031 1.09375 -1.28125 C 1.1875 -1.226562 1.253906 -1.148438 1.296875 -1.046875 C 1.347656 -0.941406 1.375 -0.816406 1.375 -0.671875 C 1.375 -0.515625 1.347656 -0.382812 1.296875 -0.28125 C 1.253906 -0.1875 1.1875 -0.109375 1.09375 -0.046875 C 1 0.00390625 0.890625 0.03125 0.765625 0.03125 Z M 0.765625 -0.15625 C 0.898438 -0.15625 1 -0.195312 1.0625 -0.28125 C 1.132812 -0.363281 1.171875 -0.492188 1.171875 -0.671875 C 1.171875 -0.835938 1.132812 -0.960938 1.0625 -1.046875 C 1 -1.128906 0.898438 -1.171875 0.765625 -1.171875 C 0.628906 -1.171875 0.523438 -1.128906 0.453125 -1.046875 C 0.390625 -0.960938 0.359375 -0.835938 0.359375 -0.671875 C 0.359375 -0.492188 0.390625 -0.363281 0.453125 -0.28125 C 0.523438 -0.195312 0.628906 -0.15625 0.765625 -0.15625 Z M 0.765625 -0.15625 "/></g></g></g><g fill="#fc8eac" fill-opacity="1"><g transform="translate(198.185393, 244.820911)"><g><path d="M 0.53125 0.03125 C 0.4375 0.03125 0.363281 0.00390625 0.3125 -0.046875 C 0.257812 -0.109375 0.234375 -0.191406 0.234375 -0.296875 L 0.234375 -1.859375 L 0.421875 -1.859375 L 0.421875 -0.3125 C 0.421875 -0.25 0.429688 -0.207031 0.453125 -0.1875 C 0.472656 -0.164062 0.503906 -0.15625 0.546875 -0.15625 C 0.578125 -0.15625 0.609375 -0.15625 0.640625 -0.15625 L 0.65625 -0.15625 L 0.671875 0 C 0.660156 0.0078125 0.640625 0.015625 0.609375 0.015625 C 0.585938 0.0234375 0.5625 0.03125 0.53125 0.03125 Z M 0.53125 0.03125 "/></g></g></g><g fill="#fc8eac" fill-opacity="1"><g transform="translate(198.910658, 244.820911)"><g><path d="M 0.53125 0.03125 C 0.4375 0.03125 0.363281 0.00390625 0.3125 -0.046875 C 0.257812 -0.109375 0.234375 -0.191406 0.234375 -0.296875 L 0.234375 -1.859375 L 0.421875 -1.859375 L 0.421875 -0.3125 C 0.421875 -0.25 0.429688 -0.207031 0.453125 -0.1875 C 0.472656 -0.164062 0.503906 -0.15625 0.546875 -0.15625 C 0.578125 -0.15625 0.609375 -0.15625 0.640625 -0.15625 L 0.65625 -0.15625 L 0.671875 0 C 0.660156 0.0078125 0.640625 0.015625 0.609375 0.015625 C 0.585938 0.0234375 0.5625 0.03125 0.53125 0.03125 Z M 0.53125 0.03125 "/></g></g></g><g fill="#fc8eac" fill-opacity="1"><g transform="translate(199.635922, 244.820911)"><g><path d="M 0.546875 0.03125 C 0.421875 0.03125 0.316406 0 0.234375 -0.0625 C 0.160156 -0.132812 0.125 -0.238281 0.125 -0.375 C 0.125 -0.445312 0.140625 -0.507812 0.171875 -0.5625 C 0.210938 -0.625 0.265625 -0.671875 0.328125 -0.703125 C 0.398438 -0.734375 0.488281 -0.757812 0.59375 -0.78125 C 0.695312 -0.800781 0.769531 -0.816406 0.8125 -0.828125 C 0.863281 -0.847656 0.898438 -0.867188 0.921875 -0.890625 C 0.941406 -0.921875 0.953125 -0.957031 0.953125 -1 C 0.953125 -1.0625 0.929688 -1.109375 0.890625 -1.140625 C 0.847656 -1.171875 0.78125 -1.1875 0.6875 -1.1875 C 0.601562 -1.1875 0.53125 -1.164062 0.46875 -1.125 C 0.40625 -1.09375 0.347656 -1.046875 0.296875 -0.984375 L 0.265625 -0.984375 L 0.171875 -1.125 C 0.234375 -1.195312 0.304688 -1.253906 0.390625 -1.296875 C 0.472656 -1.335938 0.570312 -1.359375 0.6875 -1.359375 C 0.84375 -1.359375 0.957031 -1.320312 1.03125 -1.25 C 1.101562 -1.1875 1.140625 -1.09375 1.140625 -0.96875 L 1.140625 -0.265625 C 1.140625 -0.191406 1.171875 -0.15625 1.234375 -0.15625 C 1.253906 -0.15625 1.273438 -0.15625 1.296875 -0.15625 L 1.3125 -0.15625 L 1.34375 -0.015625 C 1.320312 -0.00390625 1.300781 0 1.28125 0 C 1.257812 0.0078125 1.234375 0.015625 1.203125 0.015625 C 1.128906 0.015625 1.070312 0 1.03125 -0.03125 C 1 -0.0703125 0.976562 -0.125 0.96875 -0.1875 L 0.9375 -0.1875 C 0.90625 -0.113281 0.851562 -0.0546875 0.78125 -0.015625 C 0.71875 0.015625 0.640625 0.03125 0.546875 0.03125 Z M 0.59375 -0.125 C 0.664062 -0.125 0.726562 -0.140625 0.78125 -0.171875 C 0.832031 -0.210938 0.875 -0.265625 0.90625 -0.328125 C 0.9375 -0.390625 0.953125 -0.460938 0.953125 -0.546875 L 0.953125 -0.703125 L 0.921875 -0.71875 C 0.898438 -0.695312 0.863281 -0.675781 0.8125 -0.65625 C 0.769531 -0.644531 0.710938 -0.632812 0.640625 -0.625 C 0.566406 -0.613281 0.503906 -0.597656 0.453125 -0.578125 C 0.410156 -0.554688 0.378906 -0.523438 0.359375 -0.484375 C 0.335938 -0.453125 0.328125 -0.414062 0.328125 -0.375 C 0.328125 -0.289062 0.347656 -0.226562 0.390625 -0.1875 C 0.441406 -0.144531 0.507812 -0.125 0.59375 -0.125 Z M 0.59375 -0.125 "/></g></g></g><g fill="#fc8eac" fill-opacity="1"><g transform="translate(201.015133, 244.820911)"><g><path d="M 0.234375 0 L 0.234375 -1.328125 L 0.421875 -1.328125 L 0.421875 -1.125 L 0.4375 -1.109375 C 0.5 -1.265625 0.617188 -1.34375 0.796875 -1.34375 C 0.878906 -1.34375 0.945312 -1.328125 1 -1.296875 L 0.953125 -1.125 L 0.921875 -1.125 C 0.867188 -1.144531 0.816406 -1.15625 0.765625 -1.15625 C 0.648438 -1.15625 0.5625 -1.113281 0.5 -1.03125 C 0.445312 -0.957031 0.421875 -0.832031 0.421875 -0.65625 L 0.421875 0 Z M 0.234375 0 "/></g></g></g></svg>