<svg xmlns="http://www.w3.org/2000/svg" xmlns:xlink="http://www.w3.org/1999/xlink" width="500" zoomAndPan="magnify" viewBox="0 0 375 374.999991" height="500" preserveAspectRatio="xMidYMid meet" version="1.0"><defs><g/><clipPath id="8a450f2092"><path d="M 115 32.957031 L 259 32.957031 L 259 152 L 115 152 Z M 115 32.957031 " clip-rule="nonzero"/></clipPath><clipPath id="34ad2fe958"><path d="M 46.675781 208 L 328 208 L 328 341.957031 L 46.675781 341.957031 Z M 46.675781 208 " clip-rule="nonzero"/></clipPath><clipPath id="c3906d2c7b"><path d="M 163 275 L 181 275 L 181 341.957031 L 163 341.957031 Z M 163 275 " clip-rule="nonzero"/></clipPath></defs><path fill="#fc8eac" d="M 125.851562 130.496094 C 121.980469 133.4375 119.476562 135.484375 118.554688 139.402344 C 117.507812 143.847656 118.417969 151.128906 121.28125 156.855469 C 124.066406 162.425781 128.6875 166.5 134.097656 171.191406 C 134.6875 171.703125 135.125 172.363281 135.363281 173.105469 L 135.378906 173.152344 C 139.382812 185.546875 143.128906 196.929688 152.949219 206.890625 C 162.378906 216.453125 177.117188 224.4375 190.179688 224.4375 C 191.066406 224.4375 191.945312 224.402344 192.808594 224.328125 C 206.324219 223.160156 218.75 212.472656 226.484375 201.910156 C 233.96875 191.6875 236.414062 182.410156 239.011719 172.449219 C 239.242188 171.570312 239.746094 170.789062 240.445312 170.214844 C 245.960938 165.722656 250.507812 161.925781 252.976562 156.632812 C 255.492188 151.234375 255.945312 143.984375 254.640625 139.046875 C 253.429688 134.457031 250.679688 131.714844 247 128.183594 C 245.300781 126.550781 245.246094 123.847656 246.878906 122.148438 C 248.511719 120.445312 251.214844 120.394531 252.914062 122.027344 C 256.496094 125.464844 261.003906 129.695312 262.894531 136.867188 C 264.695312 143.6875 264.09375 152.988281 260.710938 160.242188 C 257.277344 167.601562 251.074219 172.566406 245.839844 176.832031 L 247.273438 174.601562 C 244.664062 184.609375 241.902344 195.300781 233.375 206.949219 C 225.097656 218.257812 210.71875 231.347656 193.542969 232.832031 C 192.425781 232.929688 191.300781 232.976562 190.179688 232.976562 C 174.136719 232.976562 157.339844 223.503906 146.871094 212.882812 C 135.449219 201.300781 131.214844 188.035156 127.253906 175.777344 L 127.253906 175.773438 L 127.238281 175.726562 L 128.503906 177.640625 C 123.304688 173.132812 117.316406 168.007812 113.644531 160.675781 C 110.054688 153.496094 108.664062 144.171875 110.246094 137.449219 C 111.949219 130.195312 117 126.5 120.683594 123.699219 C 122.5625 122.273438 125.238281 122.636719 126.664062 124.515625 C 128.09375 126.390625 127.726562 129.070312 125.851562 130.496094 Z M 125.851562 130.496094 " fill-opacity="1" fill-rule="nonzero"/><g clip-path="url(#8a450f2092)"><path fill="#fc8eac" d="M 128.207031 148.105469 C 123.214844 135.855469 117.957031 123.019531 116.054688 109.429688 C 114.167969 95.96875 115.554688 81.625 118.351562 74.050781 C 121.238281 66.230469 126.039062 64.707031 130.648438 64.707031 C 131.175781 64.707031 131.699219 64.726562 132.140625 64.738281 L 132.128906 64.738281 L 132.132812 64.738281 L 128.167969 67.148438 C 132.664062 57.832031 137.710938 47.171875 150.488281 40.527344 C 160.066406 35.546875 173.703125 32.964844 185.40625 32.964844 C 188.867188 32.964844 192.226562 33.191406 195.328125 33.667969 C 209.300781 35.8125 217.105469 42.953125 224.117188 49.300781 L 222.5625 48.402344 L 222.601562 48.417969 L 222.601562 48.414062 C 229.175781 50.53125 236.644531 52.890625 242.621094 57.441406 C 248.71875 62.082031 253.003906 68.742188 255.585938 75.890625 C 258.25 83.265625 259.125 91.242188 257.042969 103.386719 C 255.007812 115.269531 250.074219 131.460938 245.273438 147.253906 C 244.636719 149.339844 242.53125 150.613281 240.386719 150.203125 C 238.242188 149.792969 236.753906 147.832031 236.933594 145.65625 C 239.011719 120.699219 240.480469 99.277344 234.714844 91.679688 C 232.910156 89.304688 229.988281 88.160156 225.582031 88.160156 C 219.734375 88.160156 212.800781 90.183594 206.253906 92.125 C 205.761719 92.273438 205.246094 92.425781 204.765625 92.566406 C 197.539062 94.699219 191.554688 96.273438 185.9375 96.273438 C 182.632812 96.273438 179.484375 95.734375 176.257812 94.53125 C 173.246094 93.410156 170.222656 91.714844 167.496094 90.195312 C 164.511719 88.535156 161.804688 87.039062 159.125 86.039062 C 157.140625 85.300781 155.347656 84.902344 153.683594 84.902344 L 153.679688 84.902344 C 153.679688 84.902344 153.675781 84.902344 153.667969 84.902344 C 147.820312 84.902344 140.507812 90.039062 137.164062 101.117188 C 133.753906 112.398438 134.820312 128.820312 136.03125 146.480469 C 136.195312 148.832031 134.417969 150.867188 132.066406 151.03125 C 129.714844 151.191406 127.675781 149.414062 127.515625 147.0625 C 126.347656 130.035156 125.027344 111.773438 128.988281 98.648438 C 133.007812 85.347656 142.792969 76.363281 153.667969 76.363281 C 153.660156 76.363281 153.703125 76.363281 153.703125 76.363281 L 153.699219 76.363281 C 156.6875 76.371094 159.519531 77.074219 162.109375 78.039062 C 165.503906 79.304688 168.78125 81.140625 171.648438 82.738281 C 174.515625 84.332031 176.953125 85.679688 179.242188 86.535156 C 181.480469 87.367188 183.621094 87.734375 185.9375 87.734375 C 190.148438 87.734375 195.003906 86.546875 202.351562 84.378906 C 202.832031 84.238281 203.324219 84.089844 203.824219 83.941406 C 210.050781 82.09375 218.25 79.625 225.582031 79.625 C 231.351562 79.625 237.441406 81.15625 241.511719 86.515625 C 249.824219 97.464844 247.328125 123.683594 245.441406 146.363281 L 237.105469 144.769531 C 241.972656 128.765625 246.703125 113.171875 248.628906 101.945312 C 250.507812 90.980469 249.632812 84.53125 247.558594 78.789062 C 245.402344 72.820312 241.960938 67.667969 237.453125 64.234375 C 232.847656 60.730469 226.867188 58.753906 219.988281 56.542969 L 219.984375 56.542969 L 219.945312 56.527344 C 219.371094 56.34375 218.839844 56.035156 218.386719 55.628906 C 211.4375 49.335938 205.277344 43.832031 194.03125 42.105469 C 191.429688 41.703125 188.511719 41.503906 185.40625 41.503906 C 174.648438 41.503906 162.464844 43.921875 154.425781 48.101562 C 144.441406 53.292969 140.417969 61.40625 135.855469 70.859375 C 135.121094 72.375 133.570312 73.320312 131.886719 73.273438 L 131.886719 73.269531 L 131.875 73.269531 C 131.410156 73.257812 131.023438 73.246094 130.648438 73.246094 C 129.035156 73.246094 127.820312 73.050781 126.359375 77.007812 C 124.175781 82.917969 122.761719 95.769531 124.507812 108.246094 C 126.238281 120.601562 131.042969 132.449219 136.113281 144.882812 C 137.003906 147.066406 135.957031 149.558594 133.773438 150.449219 C 131.589844 151.335938 129.097656 150.289062 128.207031 148.105469 Z M 128.207031 148.105469 " fill-opacity="1" fill-rule="nonzero"/></g><g clip-path="url(#34ad2fe958)"><path fill="#fc8eac" d="M 156.152344 214.089844 C 152.457031 225.648438 148.363281 238.847656 134.644531 247.597656 C 127.820312 251.953125 118.707031 255.117188 109.976562 258.167969 C 101.542969 261.117188 93.296875 264.015625 86.425781 267.851562 C 72.414062 275.675781 63.761719 287.644531 54.539062 300.507812 L 53.410156 294.449219 L 53.484375 294.5 L 53.484375 294.496094 C 76.257812 309.421875 98.453125 323.917969 134.273438 330 C 148.449219 332.40625 164.832031 333.507812 181.585938 333.507812 C 207.449219 333.507812 233.949219 330.886719 254.234375 326.5625 C 287.382812 319.496094 304.03125 307.871094 321.089844 295.957031 L 319.722656 301.375 C 313.644531 289.277344 308.105469 278.453125 294.984375 271.402344 C 288.570312 267.953125 280.269531 265.347656 271.398438 262.582031 C 262.699219 259.871094 253.4375 257 246.035156 253.023438 C 245.253906 252.601562 244.492188 252.167969 243.742188 251.714844 C 228.511719 242.515625 223.445312 227.910156 218.835938 214.957031 C 218.042969 212.734375 219.203125 210.292969 221.425781 209.503906 C 223.644531 208.714844 226.085938 209.875 226.878906 212.09375 C 231.601562 225.367188 235.871094 236.992188 248.15625 244.410156 C 248.773438 244.78125 249.414062 245.144531 250.078125 245.503906 C 256.613281 249.015625 265.019531 251.652344 273.9375 254.433594 C 282.582031 257.128906 291.746094 259.96875 299.023438 263.882812 C 314.792969 272.355469 321.339844 285.585938 327.347656 297.539062 C 328.300781 299.433594 327.71875 301.742188 325.980469 302.957031 C 308.617188 315.078125 290.84375 327.488281 256.011719 334.914062 C 235.050781 339.382812 207.941406 342.042969 181.585938 342.042969 C 164.5 342.042969 147.617188 340.925781 132.847656 338.417969 C 95.136719 332.015625 71.667969 316.621094 48.804688 301.636719 L 48.730469 301.589844 C 47.757812 300.953125 47.085938 299.945312 46.875 298.800781 C 46.660156 297.65625 46.921875 296.476562 47.601562 295.53125 C 56.6875 282.859375 66.34375 269.289062 82.265625 260.398438 C 89.898438 256.136719 98.886719 253.003906 107.15625 250.113281 C 116.191406 246.953125 124.242188 244.109375 130.054688 240.402344 C 140.851562 233.511719 144.238281 223.320312 148.019531 211.492188 C 148.738281 209.246094 151.140625 208.007812 153.386719 208.722656 C 155.632812 209.441406 156.871094 211.84375 156.152344 214.089844 Z M 156.152344 214.089844 " fill-opacity="1" fill-rule="nonzero"/></g><path fill="#fc8eac" d="M 232.160156 236.523438 L 188.925781 271.566406 C 187.289062 272.890625 184.9375 272.828125 183.375 271.417969 L 142.34375 234.355469 C 140.59375 232.773438 140.457031 230.074219 142.035156 228.324219 C 143.617188 226.574219 146.316406 226.4375 148.066406 228.019531 L 189.097656 265.085938 L 183.550781 264.9375 L 226.785156 229.890625 C 228.617188 228.40625 231.304688 228.6875 232.789062 230.519531 C 234.273438 232.351562 233.992188 235.039062 232.160156 236.523438 Z M 232.160156 236.523438 " fill-opacity="1" fill-rule="nonzero"/><path fill="#fc8eac" d="M 129.539062 247.347656 L 161.664062 284.910156 L 155.28125 284.789062 L 176.507812 261.8125 C 178.105469 260.082031 180.808594 259.976562 182.539062 261.574219 C 184.269531 263.175781 184.378906 265.875 182.777344 267.605469 L 161.554688 290.582031 C 160.726562 291.476562 159.554688 291.976562 158.335938 291.953125 C 157.117188 291.929688 155.96875 291.386719 155.175781 290.457031 L 123.050781 252.894531 C 121.519531 251.105469 121.730469 248.410156 123.523438 246.878906 C 125.3125 245.34375 128.007812 245.554688 129.539062 247.347656 Z M 129.539062 247.347656 " fill-opacity="1" fill-rule="nonzero"/><path fill="#fc8eac" d="M 252.796875 253.5625 L 218.84375 291.167969 C 218.015625 292.082031 216.835938 292.59375 215.605469 292.574219 C 214.371094 292.554688 213.210938 292.003906 212.414062 291.0625 L 191.71875 266.578125 C 190.199219 264.777344 190.421875 262.085938 192.222656 260.5625 C 194.023438 259.042969 196.71875 259.269531 198.238281 261.070312 L 218.933594 285.550781 L 212.503906 285.445312 L 246.457031 247.84375 C 248.039062 246.09375 250.738281 245.953125 252.488281 247.535156 C 254.238281 249.113281 254.375 251.8125 252.796875 253.5625 Z M 252.796875 253.5625 " fill-opacity="1" fill-rule="nonzero"/><path fill="#fc8eac" d="M 209.894531 282.195312 L 200.964844 293.976562 L 201.730469 290.46875 C 203.519531 298.5 205.394531 306.875 206.125 314.722656 C 206.859375 322.617188 206.425781 329.890625 206.023438 336.816406 C 205.886719 339.167969 203.867188 340.964844 201.511719 340.828125 C 199.160156 340.691406 197.363281 338.671875 197.5 336.320312 C 197.910156 329.324219 198.289062 322.671875 197.625 315.511719 C 196.953125 308.304688 195.21875 300.484375 193.398438 292.328125 C 193.125 291.101562 193.402344 289.820312 194.160156 288.820312 L 203.089844 277.039062 C 204.515625 275.160156 207.191406 274.789062 209.070312 276.214844 C 210.949219 277.636719 211.316406 280.316406 209.894531 282.195312 Z M 209.894531 282.195312 " fill-opacity="1" fill-rule="nonzero"/><g clip-path="url(#c3906d2c7b)"><path fill="#fc8eac" d="M 164.011719 282.652344 L 172.941406 294.433594 L 172.175781 290.925781 C 170.386719 298.960938 168.511719 307.332031 167.78125 315.179688 C 167.046875 323.078125 167.480469 330.347656 167.882812 337.273438 C 168.023438 339.628906 170.039062 341.425781 172.394531 341.285156 C 174.746094 341.148438 176.542969 339.128906 176.40625 336.777344 C 176 329.78125 175.617188 323.132812 176.28125 315.972656 C 176.953125 308.761719 178.691406 300.945312 180.507812 292.785156 C 180.78125 291.5625 180.503906 290.277344 179.746094 289.277344 L 170.816406 277.496094 C 169.394531 275.617188 166.714844 275.25 164.835938 276.671875 C 162.957031 278.097656 162.589844 280.773438 164.011719 282.652344 Z M 164.011719 282.652344 " fill-opacity="1" fill-rule="nonzero"/></g><g fill="#000000" fill-opacity="1"><g transform="translate(188.6038, 271.01706)"><g><path d="M 0.6875 0.03125 C 0.582031 0.03125 0.488281 0.00390625 0.40625 -0.046875 C 0.320312 -0.0976562 0.253906 -0.175781 0.203125 -0.28125 C 0.160156 -0.382812 0.140625 -0.515625 0.140625 -0.671875 C 0.140625 -0.816406 0.164062 -0.941406 0.21875 -1.046875 C 0.269531 -1.148438 0.335938 -1.226562 0.421875 -1.28125 C 0.503906 -1.332031 0.601562 -1.359375 0.71875 -1.359375 C 0.800781 -1.359375 0.878906 -1.335938 0.953125 -1.296875 C 1.023438 -1.265625 1.085938 -1.210938 1.140625 -1.140625 L 1.15625 -1.140625 L 1.15625 -1.859375 L 1.359375 -1.859375 L 1.359375 0 L 1.15625 0 L 1.15625 -0.1875 L 1.140625 -0.203125 C 1.085938 -0.128906 1.023438 -0.0703125 0.953125 -0.03125 C 0.878906 0.0078125 0.789062 0.03125 0.6875 0.03125 Z M 0.75 -0.15625 C 0.875 -0.15625 0.972656 -0.195312 1.046875 -0.28125 C 1.117188 -0.363281 1.15625 -0.492188 1.15625 -0.671875 C 1.15625 -0.835938 1.117188 -0.960938 1.046875 -1.046875 C 0.972656 -1.128906 0.875 -1.171875 0.75 -1.171875 C 0.625 -1.171875 0.523438 -1.128906 0.453125 -1.046875 C 0.390625 -0.972656 0.359375 -0.847656 0.359375 -0.671875 C 0.359375 -0.328125 0.488281 -0.15625 0.75 -0.15625 Z M 0.75 -0.15625 "/></g></g></g><g fill="#000000" fill-opacity="1"><g transform="translate(190.195756, 271.01706)"><g><path d="M 0.765625 0.03125 C 0.640625 0.03125 0.53125 0.00390625 0.4375 -0.046875 C 0.34375 -0.109375 0.269531 -0.1875 0.21875 -0.28125 C 0.164062 -0.382812 0.140625 -0.515625 0.140625 -0.671875 C 0.140625 -0.816406 0.164062 -0.941406 0.21875 -1.046875 C 0.269531 -1.148438 0.34375 -1.226562 0.4375 -1.28125 C 0.53125 -1.332031 0.640625 -1.359375 0.765625 -1.359375 C 0.890625 -1.359375 1 -1.332031 1.09375 -1.28125 C 1.1875 -1.226562 1.253906 -1.148438 1.296875 -1.046875 C 1.347656 -0.941406 1.375 -0.816406 1.375 -0.671875 C 1.375 -0.515625 1.347656 -0.382812 1.296875 -0.28125 C 1.253906 -0.1875 1.1875 -0.109375 1.09375 -0.046875 C 1 0.00390625 0.890625 0.03125 0.765625 0.03125 Z M 0.765625 -0.15625 C 0.898438 -0.15625 1 -0.195312 1.0625 -0.28125 C 1.132812 -0.363281 1.171875 -0.492188 1.171875 -0.671875 C 1.171875 -0.835938 1.132812 -0.960938 1.0625 -1.046875 C 1 -1.128906 0.898438 -1.171875 0.765625 -1.171875 C 0.628906 -1.171875 0.523438 -1.128906 0.453125 -1.046875 C 0.390625 -0.960938 0.359375 -0.835938 0.359375 -0.671875 C 0.359375 -0.492188 0.390625 -0.363281 0.453125 -0.28125 C 0.523438 -0.195312 0.628906 -0.15625 0.765625 -0.15625 Z M 0.765625 -0.15625 "/></g></g></g><g fill="#000000" fill-opacity="1"><g transform="translate(191.726063, 271.01706)"><g><path d="M 0.53125 0.03125 C 0.4375 0.03125 0.363281 0.00390625 0.3125 -0.046875 C 0.257812 -0.109375 0.234375 -0.191406 0.234375 -0.296875 L 0.234375 -1.859375 L 0.421875 -1.859375 L 0.421875 -0.3125 C 0.421875 -0.25 0.429688 -0.207031 0.453125 -0.1875 C 0.472656 -0.164062 0.503906 -0.15625 0.546875 -0.15625 C 0.578125 -0.15625 0.609375 -0.15625 0.640625 -0.15625 L 0.65625 -0.15625 L 0.671875 0 C 0.660156 0.0078125 0.640625 0.015625 0.609375 0.015625 C 0.585938 0.0234375 0.5625 0.03125 0.53125 0.03125 Z M 0.53125 0.03125 "/></g></g></g><g fill="#000000" fill-opacity="1"><g transform="translate(192.451327, 271.01706)"><g><path d="M 0.53125 0.03125 C 0.4375 0.03125 0.363281 0.00390625 0.3125 -0.046875 C 0.257812 -0.109375 0.234375 -0.191406 0.234375 -0.296875 L 0.234375 -1.859375 L 0.421875 -1.859375 L 0.421875 -0.3125 C 0.421875 -0.25 0.429688 -0.207031 0.453125 -0.1875 C 0.472656 -0.164062 0.503906 -0.15625 0.546875 -0.15625 C 0.578125 -0.15625 0.609375 -0.15625 0.640625 -0.15625 L 0.65625 -0.15625 L 0.671875 0 C 0.660156 0.0078125 0.640625 0.015625 0.609375 0.015625 C 0.585938 0.0234375 0.5625 0.03125 0.53125 0.03125 Z M 0.53125 0.03125 "/></g></g></g><g fill="#000000" fill-opacity="1"><g transform="translate(193.176591, 271.01706)"><g><path d="M 0.546875 0.03125 C 0.421875 0.03125 0.316406 0 0.234375 -0.0625 C 0.160156 -0.132812 0.125 -0.238281 0.125 -0.375 C 0.125 -0.445312 0.140625 -0.507812 0.171875 -0.5625 C 0.210938 -0.625 0.265625 -0.671875 0.328125 -0.703125 C 0.398438 -0.734375 0.488281 -0.757812 0.59375 -0.78125 C 0.695312 -0.800781 0.769531 -0.816406 0.8125 -0.828125 C 0.863281 -0.847656 0.898438 -0.867188 0.921875 -0.890625 C 0.941406 -0.921875 0.953125 -0.957031 0.953125 -1 C 0.953125 -1.0625 0.929688 -1.109375 0.890625 -1.140625 C 0.847656 -1.171875 0.78125 -1.1875 0.6875 -1.1875 C 0.601562 -1.1875 0.53125 -1.164062 0.46875 -1.125 C 0.40625 -1.09375 0.347656 -1.046875 0.296875 -0.984375 L 0.265625 -0.984375 L 0.171875 -1.125 C 0.234375 -1.195312 0.304688 -1.253906 0.390625 -1.296875 C 0.472656 -1.335938 0.570312 -1.359375 0.6875 -1.359375 C 0.84375 -1.359375 0.957031 -1.320312 1.03125 -1.25 C 1.101562 -1.1875 1.140625 -1.09375 1.140625 -0.96875 L 1.140625 -0.265625 C 1.140625 -0.191406 1.171875 -0.15625 1.234375 -0.15625 C 1.253906 -0.15625 1.273438 -0.15625 1.296875 -0.15625 L 1.3125 -0.15625 L 1.34375 -0.015625 C 1.320312 -0.00390625 1.300781 0 1.28125 0 C 1.257812 0.0078125 1.234375 0.015625 1.203125 0.015625 C 1.128906 0.015625 1.070312 0 1.03125 -0.03125 C 1 -0.0703125 0.976562 -0.125 0.96875 -0.1875 L 0.9375 -0.1875 C 0.90625 -0.113281 0.851562 -0.0546875 0.78125 -0.015625 C 0.71875 0.015625 0.640625 0.03125 0.546875 0.03125 Z M 0.59375 -0.125 C 0.664062 -0.125 0.726562 -0.140625 0.78125 -0.171875 C 0.832031 -0.210938 0.875 -0.265625 0.90625 -0.328125 C 0.9375 -0.390625 0.953125 -0.460938 0.953125 -0.546875 L 0.953125 -0.703125 L 0.921875 -0.71875 C 0.898438 -0.695312 0.863281 -0.675781 0.8125 -0.65625 C 0.769531 -0.644531 0.710938 -0.632812 0.640625 -0.625 C 0.566406 -0.613281 0.503906 -0.597656 0.453125 -0.578125 C 0.410156 -0.554688 0.378906 -0.523438 0.359375 -0.484375 C 0.335938 -0.453125 0.328125 -0.414062 0.328125 -0.375 C 0.328125 -0.289062 0.347656 -0.226562 0.390625 -0.1875 C 0.441406 -0.144531 0.507812 -0.125 0.59375 -0.125 Z M 0.59375 -0.125 "/></g></g></g><g fill="#000000" fill-opacity="1"><g transform="translate(194.555802, 271.01706)"><g><path d="M 0.234375 0 L 0.234375 -1.328125 L 0.421875 -1.328125 L 0.421875 -1.125 L 0.4375 -1.109375 C 0.5 -1.265625 0.617188 -1.34375 0.796875 -1.34375 C 0.878906 -1.34375 0.945312 -1.328125 1 -1.296875 L 0.953125 -1.125 L 0.921875 -1.125 C 0.867188 -1.144531 0.816406 -1.15625 0.765625 -1.15625 C 0.648438 -1.15625 0.5625 -1.113281 0.5 -1.03125 C 0.445312 -0.957031 0.421875 -0.832031 0.421875 -0.65625 L 0.421875 0 Z M 0.234375 0 "/></g></g></g></svg>