<svg xmlns="http://www.w3.org/2000/svg" xmlns:xlink="http://www.w3.org/1999/xlink" width="1366" zoomAndPan="magnify" viewBox="0 0 1024.5 576" height="768" preserveAspectRatio="xMidYMid meet" version="1.0"><defs><g/><clipPath id="b199dc02d8"><path d="M 9 71 L 398 71 L 398 513.648438 L 9 513.648438 Z M 9 71 " clip-rule="nonzero"/></clipPath></defs><g clip-path="url(#b199dc02d8)"><path fill="#fc8eac" d="M 368.484375 97.679688 C 350.972656 80.988281 327.503906 71.679688 303.316406 71.761719 C 278.339844 71.859375 254.867188 81.628906 237.199219 99.300781 L 203.5 132.996094 L 170.648438 100.140625 C 134.058594 63.550781 74.46875 62.402344 37.519531 98.648438 C 0.199219 135.238281 -0.0195312 195.375 36.855469 232.238281 L 215.273438 410.660156 C 235.640625 431.023438 236.585938 464.183594 216.621094 484.925781 C 196.195312 506.15625 162.277344 506.410156 141.53125 485.664062 L 97.339844 441.46875 C 95.476562 439.605469 95.285156 436.65625 96.886719 434.550781 C 103.414062 425.96875 107.027344 415.0625 106.214844 403.308594 C 104.625 380.101562 85.652344 361.441406 62.421875 360.230469 C 35.515625 358.832031 13.214844 380.492188 13.574219 407.175781 C 13.898438 431.886719 34.042969 452.285156 58.746094 452.90625 C 66.71875 453.105469 74.246094 451.285156 80.871094 447.925781 C 82.882812 446.902344 85.324219 447.335938 86.914062 448.925781 L 132.570312 494.59375 C 145.292969 507.3125 161.992188 513.664062 178.691406 513.664062 C 195.394531 513.664062 212.105469 507.304688 224.816406 494.59375 C 250.246094 469.164062 250.246094 427.78125 224.816406 402.351562 L 45.792969 223.3125 C 14.066406 191.582031 14.066406 139.964844 45.792969 108.238281 C 77.523438 76.511719 129.148438 76.511719 160.867188 108.238281 L 198.867188 146.242188 C 200.144531 147.515625 201.828125 148.117188 203.5 148.074219 C 205.175781 148.117188 206.859375 147.515625 208.136719 146.242188 L 245.378906 108.996094 C 260.828125 93.550781 281.675781 84.453125 303.515625 84.410156 C 325.3125 84.367188 345.8125 92.835938 361.21875 108.238281 C 376.613281 123.644531 385.082031 144.113281 385.046875 165.902344 C 385.015625 187.75 375.910156 208.621094 360.460938 224.078125 L 348.425781 236.113281 C 347.4375 237.105469 346.085938 237.664062 344.6875 237.664062 L 308.800781 237.664062 C 306.8125 237.664062 304.980469 236.535156 304.09375 234.757812 L 286.761719 200.09375 C 284.824219 196.207031 279.285156 196.207031 277.347656 200.09375 L 247.558594 259.617188 C 245.621094 263.503906 240.082031 263.503906 238.144531 259.617188 L 227.972656 239.261719 C 226.035156 235.378906 220.496094 235.378906 218.558594 239.261719 L 208.386719 259.609375 C 206.449219 263.492188 200.910156 263.492188 198.972656 259.609375 L 169.207031 200.070312 C 167.269531 196.1875 161.730469 196.1875 159.792969 200.070312 L 142.460938 234.734375 C 141.566406 236.515625 139.742188 237.640625 137.753906 237.640625 L 105.996094 237.640625 C 102.53125 237.640625 99.519531 240.304688 99.414062 243.769531 C 99.308594 247.351562 102.171875 250.277344 105.730469 250.277344 L 145.566406 250.277344 C 147.554688 250.277344 149.386719 249.152344 150.273438 247.371094 L 159.792969 228.324219 C 161.730469 224.4375 167.269531 224.4375 169.207031 228.324219 L 198.972656 287.859375 C 200.910156 291.746094 206.449219 291.746094 208.386719 287.859375 L 218.558594 267.515625 C 220.496094 263.628906 226.035156 263.628906 227.972656 267.515625 L 238.144531 287.871094 C 240.082031 291.753906 245.621094 291.753906 247.558594 287.871094 L 277.328125 228.332031 C 279.265625 224.457031 284.804688 224.449219 286.742188 228.332031 L 296.269531 247.382812 C 297.164062 249.160156 298.988281 250.289062 300.976562 250.289062 L 349.46875 250.289062 C 349.46875 250.289062 349.46875 250.289062 349.480469 250.289062 L 349.488281 250.289062 C 349.878906 250.289062 350.257812 250.246094 350.625 250.183594 C 350.648438 250.183594 350.679688 250.171875 350.699219 250.171875 C 351.070312 250.097656 351.4375 249.992188 351.785156 249.855469 C 351.816406 249.847656 351.847656 249.835938 351.878906 249.824219 C 352.226562 249.675781 352.5625 249.5 352.878906 249.296875 C 352.910156 249.277344 352.941406 249.265625 352.972656 249.246094 C 353.3125 249.015625 353.628906 248.761719 353.921875 248.476562 C 353.933594 248.464844 353.933594 248.464844 353.941406 248.457031 L 369.234375 233.167969 C 387.324219 215.078125 397.882812 190.574219 397.683594 164.984375 C 397.472656 139.398438 387.101562 115.421875 368.484375 97.679688 Z M 26.210938 406.542969 C 26.210938 387.9375 41.351562 372.804688 59.945312 372.804688 C 78.542969 372.804688 93.683594 387.945312 93.683594 406.542969 C 93.683594 425.148438 78.542969 440.28125 59.945312 440.28125 C 41.351562 440.28125 26.210938 425.148438 26.210938 406.542969 Z M 26.210938 406.542969 " fill-opacity="1" fill-rule="nonzero"/></g><g fill="#fc8eac" fill-opacity="1"><g transform="translate(397.932727, 315.357757)"><g><path d="M 47.890625 -82.484375 L 81.1875 0 L 60.984375 0 L 54.890625 -16.5 L 23.5 -16.5 L 17.390625 0 L -2.796875 0 L 30.5 -82.484375 Z M 48.5 -33 L 39.296875 -56.984375 L 39.09375 -56.984375 L 29.890625 -33 Z M 48.5 -33 "/></g></g></g><g fill="#fc8eac" fill-opacity="1"><g transform="translate(476.318929, 315.357757)"><g><path d="M 36.390625 -83.984375 C 40.859375 -83.984375 45.222656 -83.332031 49.484375 -82.03125 C 53.753906 -80.738281 56.921875 -79.457031 58.984375 -78.1875 L 61.984375 -76.1875 L 54.390625 -61.1875 C 53.785156 -61.59375 52.953125 -62.109375 51.890625 -62.734375 C 50.828125 -63.367188 48.828125 -64.21875 45.890625 -65.28125 C 42.960938 -66.351562 40.226562 -66.890625 37.6875 -66.890625 C 34.5625 -66.890625 32.144531 -66.222656 30.4375 -64.890625 C 28.738281 -63.554688 27.890625 -61.753906 27.890625 -59.484375 C 27.890625 -58.359375 28.289062 -57.3125 29.09375 -56.34375 C 29.894531 -55.375 31.257812 -54.335938 33.1875 -53.234375 C 35.125 -52.140625 36.828125 -51.257812 38.296875 -50.59375 C 39.765625 -49.925781 42.03125 -48.925781 45.09375 -47.59375 C 50.425781 -45.320312 54.972656 -42.238281 58.734375 -38.34375 C 62.503906 -34.445312 64.390625 -30.03125 64.390625 -25.09375 C 64.390625 -20.363281 63.539062 -16.234375 61.84375 -12.703125 C 60.144531 -9.171875 57.8125 -6.40625 54.84375 -4.40625 C 51.875 -2.40625 48.585938 -0.921875 44.984375 0.046875 C 41.390625 1.015625 37.492188 1.5 33.296875 1.5 C 29.691406 1.5 26.15625 1.128906 22.6875 0.390625 C 19.226562 -0.335938 16.332031 -1.25 14 -2.34375 C 11.664062 -3.445312 9.566406 -4.53125 7.703125 -5.59375 C 5.835938 -6.664062 4.46875 -7.566406 3.59375 -8.296875 L 2.296875 -9.40625 L 11.703125 -25.203125 C 12.492188 -24.535156 13.585938 -23.679688 14.984375 -22.640625 C 16.390625 -21.609375 18.875 -20.222656 22.4375 -18.484375 C 26.007812 -16.753906 29.160156 -15.890625 31.890625 -15.890625 C 39.828125 -15.890625 43.796875 -18.59375 43.796875 -24 C 43.796875 -25.132812 43.507812 -26.179688 42.9375 -27.140625 C 42.375 -28.109375 41.375 -29.078125 39.9375 -30.046875 C 38.507812 -31.015625 37.242188 -31.78125 36.140625 -32.34375 C 35.046875 -32.90625 33.25 -33.769531 30.75 -34.9375 C 28.25 -36.101562 26.398438 -36.988281 25.203125 -37.59375 C 20.203125 -40.0625 16.332031 -43.144531 13.59375 -46.84375 C 10.863281 -50.539062 9.5 -54.523438 9.5 -58.796875 C 9.5 -66.191406 12.226562 -72.238281 17.6875 -76.9375 C 23.15625 -81.632812 29.390625 -83.984375 36.390625 -83.984375 Z M 36.390625 -83.984375 "/></g></g></g><g fill="#fc8eac" fill-opacity="1"><g transform="translate(543.507106, 315.357757)"><g><path d="M 0.796875 -65.984375 L 0.796875 -82.484375 L 58.796875 -82.484375 L 58.796875 -65.984375 L 39.1875 -65.984375 L 39.1875 0 L 20.390625 0 L 20.390625 -65.984375 Z M 0.796875 -65.984375 "/></g></g></g><g fill="#fc8eac" fill-opacity="1"><g transform="translate(603.096612, 315.357757)"><g><path d="M 6 -82.484375 L 35.5 -82.484375 C 43.425781 -82.484375 49.890625 -80.367188 54.890625 -76.140625 C 59.890625 -71.910156 62.390625 -65.859375 62.390625 -57.984375 C 62.390625 -51.921875 60.875 -46.835938 57.84375 -42.734375 C 54.8125 -38.640625 50.695312 -35.757812 45.5 -34.09375 L 73.890625 0 L 50 0 L 24.796875 -32.59375 L 24.796875 0 L 6 0 Z M 24.796875 -45.890625 L 27 -45.890625 C 28.726562 -45.890625 30.191406 -45.921875 31.390625 -45.984375 C 32.585938 -46.054688 33.953125 -46.289062 35.484375 -46.6875 C 37.023438 -47.09375 38.257812 -47.660156 39.1875 -48.390625 C 40.125 -49.128906 40.925781 -50.195312 41.59375 -51.59375 C 42.257812 -52.988281 42.59375 -54.6875 42.59375 -56.6875 C 42.59375 -58.6875 42.257812 -60.382812 41.59375 -61.78125 C 40.925781 -63.1875 40.125 -64.253906 39.1875 -64.984375 C 38.257812 -65.722656 37.023438 -66.289062 35.484375 -66.6875 C 33.953125 -67.09375 32.585938 -67.328125 31.390625 -67.390625 C 30.191406 -67.453125 28.726562 -67.484375 27 -67.484375 L 24.796875 -67.484375 Z M 24.796875 -45.890625 "/></g></g></g><g fill="#fc8eac" fill-opacity="1"><g transform="translate(674.684016, 315.357757)"><g><path d="M 47.890625 -82.484375 L 81.1875 0 L 60.984375 0 L 54.890625 -16.5 L 23.5 -16.5 L 17.390625 0 L -2.796875 0 L 30.5 -82.484375 Z M 48.5 -33 L 39.296875 -56.984375 L 39.09375 -56.984375 L 29.890625 -33 Z M 48.5 -33 "/></g></g></g><g fill="#fc8eac" fill-opacity="1"><g transform="translate(753.070218, 315.357757)"><g><path d="M 17.390625 -21.390625 C 20.597656 -21.390625 23.316406 -20.273438 25.546875 -18.046875 C 27.773438 -15.816406 28.890625 -13.101562 28.890625 -9.90625 C 28.890625 -6.769531 27.773438 -4.082031 25.546875 -1.84375 C 23.316406 0.382812 20.597656 1.5 17.390625 1.5 C 14.265625 1.5 11.582031 0.382812 9.34375 -1.84375 C 7.113281 -4.082031 6 -6.769531 6 -9.90625 C 6 -13.101562 7.113281 -15.816406 9.34375 -18.046875 C 11.582031 -20.273438 14.265625 -21.390625 17.390625 -21.390625 Z M 17.390625 -21.390625 "/></g></g></g><g fill="#fc8eac" fill-opacity="1"><g transform="translate(787.676057, 314.893541)"><g><path d="M 3.734375 -37.34375 L 11.734375 -37.34375 L 11.734375 -22.40625 L 26.671875 -22.40625 L 26.671875 -37.34375 L 34.671875 -37.34375 L 34.671875 0 L 26.671875 0 L 26.671875 -15.203125 L 11.734375 -15.203125 L 11.734375 0 L 3.734375 0 Z M 3.734375 -37.34375 "/></g></g></g><g fill="#fc8eac" fill-opacity="1"><g transform="translate(826.081696, 314.893541)"><g><path d="M 3.734375 -37.34375 L 29.078125 -37.34375 L 29.078125 -30.140625 L 11.734375 -30.140625 L 11.734375 -22.140625 L 28 -22.140625 L 28 -15.46875 L 11.734375 -15.46875 L 11.734375 -7.203125 L 29.609375 -7.203125 L 29.609375 0 L 3.734375 0 Z M 3.734375 -37.34375 "/></g></g></g><g fill="#fc8eac" fill-opacity="1"><g transform="translate(858.086392, 314.893541)"><g><path d="M 13.0625 -37.34375 L 22.9375 -37.34375 L 36.28125 0 L 28 0 L 25.609375 -6.9375 L 10.40625 -6.9375 L 8 0 L -0.265625 0 Z M 22.984375 -14.140625 L 18.140625 -28.265625 L 17.875 -28.265625 L 13.015625 -14.140625 Z M 22.984375 -14.140625 "/></g></g></g><g fill="#fc8eac" fill-opacity="1"><g transform="translate(894.091673, 314.893541)"><g><path d="M 3.734375 -37.34375 L 11.734375 -37.34375 L 11.734375 -7.203125 L 28.8125 -7.203125 L 28.8125 0 L 3.734375 0 Z M 3.734375 -37.34375 "/></g></g></g><g fill="#fc8eac" fill-opacity="1"><g transform="translate(923.962721, 314.893541)"><g><path d="M 12 -30.140625 L 0.796875 -30.140625 L 0.796875 -37.34375 L 31.203125 -37.34375 L 31.203125 -30.140625 L 20 -30.140625 L 20 0 L 12 0 Z M 12 -30.140625 "/></g></g></g><g fill="#fc8eac" fill-opacity="1"><g transform="translate(955.967417, 314.893541)"><g><path d="M 3.734375 -37.34375 L 11.734375 -37.34375 L 11.734375 -22.40625 L 26.671875 -22.40625 L 26.671875 -37.34375 L 34.671875 -37.34375 L 34.671875 0 L 26.671875 0 L 26.671875 -15.203125 L 11.734375 -15.203125 L 11.734375 0 L 3.734375 0 Z M 3.734375 -37.34375 "/></g></g></g></svg>