<svg xmlns="http://www.w3.org/2000/svg" xmlns:xlink="http://www.w3.org/1999/xlink" width="1366" zoomAndPan="magnify" viewBox="0 0 1024.5 231" height="308" preserveAspectRatio="xMidYMid meet" version="1.0"><defs><g/><clipPath id="39fc609cdf"><path d="M 0 0.0546875 L 1024 0.0546875 L 1024 230.941406 L 0 230.941406 Z M 0 0.0546875 " clip-rule="nonzero"/></clipPath><clipPath id="9a31968c1b"><path d="M 4 4 L 196.402344 4 L 196.402344 222.699219 L 4 222.699219 Z M 4 4 " clip-rule="nonzero"/></clipPath></defs><g clip-path="url(#39fc609cdf)"><path fill="#ffffff" d="M 0 0.0546875 L 1024 0.0546875 L 1024 230.945312 L 0 230.945312 Z M 0 0.0546875 " fill-opacity="1" fill-rule="nonzero"/><path fill="#ffffff" d="M 0 0.0546875 L 1024 0.0546875 L 1024 230.945312 L 0 230.945312 Z M 0 0.0546875 " fill-opacity="1" fill-rule="nonzero"/></g><g clip-path="url(#9a31968c1b)"><path fill="#fc8eac" d="M 181.808594 17.476562 C 173.167969 9.242188 161.585938 4.648438 149.652344 4.691406 C 137.328125 4.738281 125.75 9.558594 117.03125 18.277344 L 100.40625 34.902344 L 84.195312 18.691406 C 66.140625 0.636719 36.742188 0.0703125 18.511719 17.953125 C 0.0976562 36.007812 -0.0117188 65.679688 18.183594 83.867188 L 106.214844 171.898438 C 116.261719 181.945312 116.730469 198.304688 106.878906 208.542969 C 96.800781 219.015625 80.066406 219.140625 69.832031 208.90625 L 48.027344 187.101562 C 47.105469 186.179688 47.011719 184.726562 47.804688 183.6875 C 51.023438 179.453125 52.804688 174.070312 52.40625 168.273438 C 51.621094 156.820312 42.257812 147.613281 30.796875 147.015625 C 17.523438 146.328125 6.519531 157.011719 6.695312 170.179688 C 6.859375 182.371094 16.796875 192.433594 28.984375 192.742188 C 32.917969 192.839844 36.632812 191.941406 39.902344 190.285156 C 40.894531 189.78125 42.097656 189.992188 42.882812 190.777344 L 65.410156 213.3125 C 71.6875 219.585938 79.925781 222.71875 88.164062 222.71875 C 96.40625 222.71875 104.652344 219.582031 110.921875 213.3125 C 123.46875 200.765625 123.46875 180.347656 110.921875 167.800781 L 22.59375 79.460938 C 6.941406 63.808594 6.941406 38.339844 22.59375 22.6875 C 38.25 7.03125 63.722656 7.03125 79.371094 22.6875 L 98.121094 41.4375 C 98.75 42.066406 99.582031 42.363281 100.40625 42.339844 C 101.230469 42.363281 102.0625 42.066406 102.691406 41.4375 L 121.066406 23.0625 C 128.691406 15.4375 138.976562 10.949219 149.753906 10.929688 C 160.507812 10.910156 170.621094 15.085938 178.222656 22.6875 C 185.820312 30.289062 189.996094 40.386719 189.980469 51.136719 C 189.964844 61.917969 185.46875 72.214844 177.847656 79.839844 L 171.910156 85.78125 C 171.421875 86.269531 170.757812 86.542969 170.066406 86.542969 L 152.359375 86.542969 C 151.378906 86.542969 150.472656 85.988281 150.039062 85.109375 L 141.484375 68.007812 C 140.53125 66.089844 137.796875 66.089844 136.839844 68.007812 L 122.144531 97.375 C 121.1875 99.292969 118.453125 99.292969 117.5 97.375 L 112.480469 87.332031 C 111.523438 85.414062 108.792969 85.414062 107.835938 87.332031 L 102.816406 97.371094 C 101.859375 99.289062 99.128906 99.289062 98.171875 97.371094 L 83.484375 67.996094 C 82.527344 66.078125 79.796875 66.078125 78.839844 67.996094 L 70.289062 85.097656 C 69.847656 85.976562 68.949219 86.53125 67.964844 86.53125 L 52.296875 86.53125 C 50.585938 86.53125 49.101562 87.847656 49.050781 89.554688 C 48.996094 91.324219 50.410156 92.765625 52.167969 92.765625 L 71.820312 92.765625 C 72.804688 92.765625 73.707031 92.210938 74.144531 91.332031 L 78.839844 81.933594 C 79.796875 80.019531 82.527344 80.019531 83.484375 81.933594 L 98.171875 111.308594 C 99.128906 113.226562 101.859375 113.226562 102.816406 111.308594 L 107.835938 101.273438 C 108.792969 99.355469 111.523438 99.355469 112.480469 101.273438 L 117.5 111.316406 C 118.453125 113.230469 121.1875 113.230469 122.144531 111.316406 L 136.832031 81.941406 C 137.785156 80.027344 140.519531 80.023438 141.476562 81.941406 L 146.175781 91.339844 C 146.621094 92.214844 147.519531 92.773438 148.5 92.773438 L 172.425781 92.773438 C 172.425781 92.773438 172.425781 92.773438 172.429688 92.773438 L 172.433594 92.773438 C 172.628906 92.773438 172.8125 92.75 172.996094 92.71875 C 173.007812 92.71875 173.023438 92.714844 173.03125 92.714844 C 173.214844 92.679688 173.394531 92.625 173.566406 92.558594 C 173.582031 92.554688 173.597656 92.550781 173.613281 92.542969 C 173.785156 92.472656 173.953125 92.382812 174.109375 92.285156 C 174.125 92.273438 174.140625 92.269531 174.15625 92.257812 C 174.320312 92.144531 174.476562 92.019531 174.621094 91.878906 C 174.628906 91.875 174.628906 91.875 174.632812 91.867188 L 182.175781 84.324219 C 191.101562 75.398438 196.3125 63.308594 196.214844 50.683594 C 196.109375 38.058594 190.992188 26.230469 181.808594 17.476562 Z M 12.929688 169.867188 C 12.929688 160.6875 20.402344 153.222656 29.578125 153.222656 C 38.753906 153.222656 46.222656 160.691406 46.222656 169.867188 C 46.222656 179.046875 38.753906 186.511719 29.578125 186.511719 C 20.402344 186.511719 12.929688 179.046875 12.929688 169.867188 Z M 12.929688 169.867188 " fill-opacity="1" fill-rule="nonzero"/></g><g fill="#fc8eac" fill-opacity="1"><g transform="translate(177.427723, 187.457658)"><g><path d="M 74.3125 -128 L 125.984375 0 L 94.640625 0 L 85.1875 -25.59375 L 36.46875 -25.59375 L 27 0 L -4.34375 0 L 47.328125 -128 Z M 75.25 -51.203125 L 60.96875 -88.4375 L 60.671875 -88.4375 L 46.390625 -51.203125 Z M 75.25 -51.203125 "/></g></g></g><g fill="#fc8eac" fill-opacity="1"><g transform="translate(299.068334, 187.457658)"><g><path d="M 56.484375 -130.328125 C 63.410156 -130.328125 70.179688 -129.316406 76.796875 -127.296875 C 83.421875 -125.285156 88.335938 -123.296875 91.546875 -121.328125 L 96.203125 -118.234375 L 84.40625 -94.953125 C 83.476562 -95.578125 82.1875 -96.378906 80.53125 -97.359375 C 78.875 -98.335938 75.769531 -99.65625 71.21875 -101.3125 C 66.664062 -102.96875 62.425781 -103.796875 58.5 -103.796875 C 53.632812 -103.796875 49.878906 -102.757812 47.234375 -100.6875 C 44.597656 -98.625 43.28125 -95.832031 43.28125 -92.3125 C 43.28125 -90.5625 43.898438 -88.9375 45.140625 -87.4375 C 46.390625 -85.9375 48.515625 -84.332031 51.515625 -82.625 C 54.515625 -80.914062 57.148438 -79.539062 59.421875 -78.5 C 61.703125 -77.46875 65.21875 -75.921875 69.96875 -73.859375 C 78.25 -70.335938 85.3125 -65.550781 91.15625 -59.5 C 97 -53.445312 99.921875 -46.59375 99.921875 -38.9375 C 99.921875 -31.59375 98.597656 -25.179688 95.953125 -19.703125 C 93.316406 -14.222656 89.695312 -9.929688 85.09375 -6.828125 C 80.5 -3.722656 75.40625 -1.421875 69.8125 0.078125 C 64.226562 1.578125 58.179688 2.328125 51.671875 2.328125 C 46.078125 2.328125 40.59375 1.753906 35.21875 0.609375 C 29.84375 -0.523438 25.34375 -1.941406 21.71875 -3.640625 C 18.101562 -5.347656 14.847656 -7.03125 11.953125 -8.6875 C 9.054688 -10.34375 6.929688 -11.738281 5.578125 -12.875 L 3.5625 -14.578125 L 18.15625 -39.09375 C 19.394531 -38.0625 21.097656 -36.742188 23.265625 -35.140625 C 25.441406 -33.535156 29.296875 -31.390625 34.828125 -28.703125 C 40.367188 -26.015625 45.257812 -24.671875 49.5 -24.671875 C 61.800781 -24.671875 67.953125 -28.859375 67.953125 -37.234375 C 67.953125 -38.992188 67.515625 -40.625 66.640625 -42.125 C 65.765625 -43.625 64.210938 -45.125 61.984375 -46.625 C 59.765625 -48.125 57.800781 -49.3125 56.09375 -50.1875 C 54.382812 -51.070312 51.585938 -52.414062 47.703125 -54.21875 C 43.828125 -56.03125 40.957031 -57.40625 39.09375 -58.34375 C 31.34375 -62.164062 25.34375 -66.945312 21.09375 -72.6875 C 16.851562 -78.425781 14.734375 -84.609375 14.734375 -91.234375 C 14.734375 -102.710938 18.972656 -112.097656 27.453125 -119.390625 C 35.941406 -126.679688 45.617188 -130.328125 56.484375 -130.328125 Z M 56.484375 -130.328125 "/></g></g></g><g fill="#fc8eac" fill-opacity="1"><g transform="translate(403.33172, 187.457658)"><g><path d="M 1.234375 -102.40625 L 1.234375 -128 L 91.234375 -128 L 91.234375 -102.40625 L 60.828125 -102.40625 L 60.828125 0 L 31.65625 0 L 31.65625 -102.40625 Z M 1.234375 -102.40625 "/></g></g></g><g fill="#fc8eac" fill-opacity="1"><g transform="translate(495.803403, 187.457658)"><g><path d="M 9.3125 -128 L 55.078125 -128 C 67.390625 -128 77.421875 -124.710938 85.171875 -118.140625 C 92.929688 -111.578125 96.8125 -102.191406 96.8125 -89.984375 C 96.8125 -80.578125 94.457031 -72.691406 89.75 -66.328125 C 85.050781 -59.960938 78.664062 -55.488281 70.59375 -52.90625 L 114.65625 0 L 77.578125 0 L 38.484375 -50.578125 L 38.484375 0 L 9.3125 0 Z M 38.484375 -71.21875 L 41.890625 -71.21875 C 44.578125 -71.21875 46.851562 -71.269531 48.71875 -71.375 C 50.582031 -71.476562 52.703125 -71.835938 55.078125 -72.453125 C 57.460938 -73.078125 59.378906 -73.957031 60.828125 -75.09375 C 62.273438 -76.226562 63.515625 -77.878906 64.546875 -80.046875 C 65.578125 -82.222656 66.09375 -84.863281 66.09375 -87.96875 C 66.09375 -91.070312 65.578125 -93.707031 64.546875 -95.875 C 63.515625 -98.050781 62.273438 -99.707031 60.828125 -100.84375 C 59.378906 -101.988281 57.460938 -102.867188 55.078125 -103.484375 C 52.703125 -104.109375 50.582031 -104.472656 48.71875 -104.578125 C 46.851562 -104.679688 44.578125 -104.734375 41.890625 -104.734375 L 38.484375 -104.734375 Z M 38.484375 -71.21875 "/></g></g></g><g fill="#fc8eac" fill-opacity="1"><g transform="translate(606.893561, 187.457658)"><g><path d="M 74.3125 -128 L 125.984375 0 L 94.640625 0 L 85.1875 -25.59375 L 36.46875 -25.59375 L 27 0 L -4.34375 0 L 47.328125 -128 Z M 75.25 -51.203125 L 60.96875 -88.4375 L 60.671875 -88.4375 L 46.390625 -51.203125 Z M 75.25 -51.203125 "/></g></g></g><g fill="#fc8eac" fill-opacity="1"><g transform="translate(728.534173, 187.457658)"><g><path d="M 27 -33.203125 C 31.957031 -33.203125 36.171875 -31.46875 39.640625 -28 C 43.109375 -24.539062 44.84375 -20.328125 44.84375 -15.359375 C 44.84375 -10.492188 43.109375 -6.328125 39.640625 -2.859375 C 36.171875 0.597656 31.957031 2.328125 27 2.328125 C 22.132812 2.328125 17.96875 0.597656 14.5 -2.859375 C 11.039062 -6.328125 9.3125 -10.492188 9.3125 -15.359375 C 9.3125 -20.328125 11.039062 -24.539062 14.5 -28 C 17.96875 -31.46875 22.132812 -33.203125 27 -33.203125 Z M 27 -33.203125 "/></g></g></g><g fill="#fc8eac" fill-opacity="1"><g transform="translate(775.920859, 185.50931)"><g><path d="M 4.546875 -45.484375 L 14.296875 -45.484375 L 14.296875 -27.296875 L 32.484375 -27.296875 L 32.484375 -45.484375 L 42.234375 -45.484375 L 42.234375 0 L 32.484375 0 L 32.484375 -18.515625 L 14.296875 -18.515625 L 14.296875 0 L 4.546875 0 Z M 4.546875 -45.484375 "/></g></g></g><g fill="#fc8eac" fill-opacity="1"><g transform="translate(822.704919, 185.50931)"><g><path d="M 4.546875 -45.484375 L 35.421875 -45.484375 L 35.421875 -36.71875 L 14.296875 -36.71875 L 14.296875 -26.96875 L 34.109375 -26.96875 L 34.109375 -18.84375 L 14.296875 -18.84375 L 14.296875 -8.765625 L 36.0625 -8.765625 L 36.0625 0 L 4.546875 0 Z M 4.546875 -45.484375 "/></g></g></g><g fill="#fc8eac" fill-opacity="1"><g transform="translate(861.69163, 185.50931)"><g><path d="M 15.921875 -45.484375 L 27.9375 -45.484375 L 44.1875 0 L 34.109375 0 L 31.1875 -8.453125 L 12.671875 -8.453125 L 9.75 0 L -0.328125 0 Z M 28.015625 -17.21875 L 22.09375 -34.4375 L 21.765625 -34.4375 L 15.859375 -17.21875 Z M 28.015625 -17.21875 "/></g></g></g><g fill="#fc8eac" fill-opacity="1"><g transform="translate(905.551677, 185.50931)"><g><path d="M 4.546875 -45.484375 L 14.296875 -45.484375 L 14.296875 -8.765625 L 35.09375 -8.765625 L 35.09375 0 L 4.546875 0 Z M 4.546875 -45.484375 "/></g></g></g><g fill="#fc8eac" fill-opacity="1"><g transform="translate(941.939273, 185.50931)"><g><path d="M 14.625 -36.71875 L 0.96875 -36.71875 L 0.96875 -45.484375 L 38.015625 -45.484375 L 38.015625 -36.71875 L 24.375 -36.71875 L 24.375 0 L 14.625 0 Z M 14.625 -36.71875 "/></g></g></g><g fill="#fc8eac" fill-opacity="1"><g transform="translate(980.925984, 185.50931)"><g><path d="M 4.546875 -45.484375 L 14.296875 -45.484375 L 14.296875 -27.296875 L 32.484375 -27.296875 L 32.484375 -45.484375 L 42.234375 -45.484375 L 42.234375 0 L 32.484375 0 L 32.484375 -18.515625 L 14.296875 -18.515625 L 14.296875 0 L 4.546875 0 Z M 4.546875 -45.484375 "/></g></g></g></svg>
