<svg xmlns="http://www.w3.org/2000/svg" xmlns:xlink="http://www.w3.org/1999/xlink" width="1366" zoomAndPan="magnify" viewBox="0 0 1024.5 349.499994" height="466" preserveAspectRatio="xMidYMid meet" version="1.0"><defs><g/><clipPath id="4a1c27e6ad"><path d="M 7 7 L 299 7 L 299 338.515625 L 7 338.515625 Z M 7 7 " clip-rule="nonzero"/></clipPath></defs><g clip-path="url(#4a1c27e6ad)"><path fill="#fc8eac" d="M 276.847656 26.484375 C 263.714844 13.964844 246.113281 6.984375 227.972656 7.046875 C 209.238281 7.117188 191.632812 14.445312 178.382812 27.699219 L 153.109375 52.972656 L 128.46875 28.332031 C 101.027344 0.886719 56.332031 0.0273438 28.621094 27.210938 C 0.632812 54.652344 0.464844 99.757812 28.125 127.40625 L 161.941406 261.222656 C 177.214844 276.496094 177.925781 301.363281 162.949219 316.921875 C 147.628906 332.84375 122.191406 333.035156 106.632812 317.476562 L 73.488281 284.328125 C 72.089844 282.929688 71.945312 280.71875 73.148438 279.140625 C 78.042969 272.703125 80.753906 264.523438 80.144531 255.707031 C 78.953125 238.300781 64.722656 224.308594 47.296875 223.398438 C 27.121094 222.347656 10.394531 238.59375 10.660156 258.605469 C 10.90625 277.144531 26.015625 292.441406 44.542969 292.90625 C 50.519531 293.054688 56.167969 291.691406 61.136719 289.171875 C 62.644531 288.40625 64.476562 288.726562 65.667969 289.921875 L 99.914062 324.171875 C 109.453125 333.710938 121.976562 338.476562 134.503906 338.476562 C 147.027344 338.476562 159.5625 333.703125 169.09375 324.171875 C 188.167969 305.101562 188.167969 274.0625 169.09375 254.988281 L 34.828125 120.707031 C 11.035156 96.914062 11.035156 58.199219 34.828125 34.402344 C 58.625 10.609375 97.34375 10.609375 121.132812 34.402344 L 149.636719 62.90625 C 150.589844 63.863281 151.855469 64.3125 153.109375 64.28125 C 154.367188 64.3125 155.628906 63.863281 156.585938 62.90625 L 184.519531 34.972656 C 196.105469 23.386719 211.742188 16.5625 228.121094 16.53125 C 244.46875 16.5 259.84375 22.851562 271.398438 34.402344 C 282.945312 45.957031 289.296875 61.3125 289.269531 77.652344 C 289.246094 94.039062 282.417969 109.691406 270.832031 121.285156 L 261.804688 130.3125 C 261.0625 131.054688 260.050781 131.472656 259 131.472656 L 232.085938 131.472656 C 230.59375 131.472656 229.21875 130.628906 228.554688 129.292969 L 215.554688 103.292969 C 214.101562 100.378906 209.949219 100.378906 208.496094 103.292969 L 186.152344 147.9375 C 184.699219 150.851562 180.546875 150.851562 179.09375 147.9375 L 171.464844 132.671875 C 170.011719 129.757812 165.855469 129.757812 164.402344 132.671875 L 156.773438 147.929688 C 155.320312 150.84375 151.167969 150.84375 149.714844 147.929688 L 127.386719 103.277344 C 125.933594 100.363281 121.78125 100.363281 120.328125 103.277344 L 107.328125 129.277344 C 106.65625 130.613281 105.289062 131.457031 103.796875 131.457031 L 79.980469 131.457031 C 77.378906 131.457031 75.121094 133.453125 75.042969 136.054688 C 74.964844 138.738281 77.113281 140.933594 79.78125 140.933594 L 109.65625 140.933594 C 111.148438 140.933594 112.523438 140.089844 113.1875 138.753906 L 120.328125 124.46875 C 121.78125 121.554688 125.933594 121.554688 127.386719 124.46875 L 149.714844 169.121094 C 151.167969 172.035156 155.320312 172.035156 156.773438 169.121094 L 164.402344 153.863281 C 165.855469 150.949219 170.011719 150.949219 171.464844 153.863281 L 179.09375 169.128906 C 180.546875 172.042969 184.699219 172.042969 186.152344 169.128906 L 208.480469 124.476562 C 209.933594 121.570312 214.085938 121.5625 215.539062 124.476562 L 222.6875 138.761719 C 223.359375 140.097656 224.726562 140.941406 226.21875 140.941406 L 262.585938 140.941406 C 262.585938 140.941406 262.585938 140.941406 262.59375 140.941406 L 262.601562 140.941406 C 262.894531 140.941406 263.179688 140.910156 263.453125 140.863281 C 263.46875 140.863281 263.492188 140.855469 263.507812 140.855469 C 263.785156 140.800781 264.0625 140.71875 264.324219 140.617188 C 264.347656 140.609375 264.371094 140.601562 264.394531 140.59375 C 264.65625 140.484375 264.90625 140.347656 265.144531 140.199219 C 265.167969 140.183594 265.191406 140.175781 265.214844 140.160156 C 265.46875 139.984375 265.707031 139.796875 265.925781 139.582031 C 265.933594 139.574219 265.933594 139.574219 265.941406 139.566406 L 277.410156 128.101562 C 290.976562 114.53125 298.898438 96.15625 298.75 76.964844 C 298.589844 57.773438 290.8125 39.789062 276.847656 26.484375 Z M 20.140625 258.132812 C 20.140625 244.179688 31.496094 232.828125 45.441406 232.828125 C 59.390625 232.828125 70.746094 244.1875 70.746094 258.132812 C 70.746094 272.089844 59.390625 283.4375 45.441406 283.4375 C 31.496094 283.4375 20.140625 272.089844 20.140625 258.132812 Z M 20.140625 258.132812 " fill-opacity="1" fill-rule="nonzero"/></g><g fill="#fc8eac" fill-opacity="1"><g transform="translate(279.778313, 202.778664)"><g><path d="M 58.71875 -101.140625 L 99.546875 0 L 74.78125 0 L 67.296875 -20.234375 L 28.8125 -20.234375 L 21.328125 0 L -3.4375 0 L 37.390625 -101.140625 Z M 59.453125 -40.453125 L 48.171875 -69.875 L 47.9375 -69.875 L 36.65625 -40.453125 Z M 59.453125 -40.453125 "/></g></g></g><g fill="#fc8eac" fill-opacity="1"><g transform="translate(375.893852, 202.778664)"><g><path d="M 44.625 -102.984375 C 50.101562 -102.984375 55.457031 -102.1875 60.6875 -100.59375 C 65.914062 -99 69.796875 -97.425781 72.328125 -95.875 L 76.015625 -93.421875 L 66.6875 -75.03125 C 65.957031 -75.519531 64.9375 -76.148438 63.625 -76.921875 C 62.320312 -77.703125 59.867188 -78.742188 56.265625 -80.046875 C 52.671875 -81.359375 49.320312 -82.015625 46.21875 -82.015625 C 42.375 -82.015625 39.410156 -81.195312 37.328125 -79.5625 C 35.242188 -77.925781 34.203125 -75.71875 34.203125 -72.9375 C 34.203125 -71.550781 34.691406 -70.265625 35.671875 -69.078125 C 36.648438 -67.890625 38.320312 -66.625 40.6875 -65.28125 C 43.0625 -63.9375 45.148438 -62.851562 46.953125 -62.03125 C 48.753906 -61.21875 51.535156 -59.992188 55.296875 -58.359375 C 61.828125 -55.578125 67.398438 -51.796875 72.015625 -47.015625 C 76.640625 -42.234375 78.953125 -36.816406 78.953125 -30.765625 C 78.953125 -24.960938 77.910156 -19.894531 75.828125 -15.5625 C 73.742188 -11.238281 70.878906 -7.847656 67.234375 -5.390625 C 63.597656 -2.941406 59.570312 -1.125 55.15625 0.0625 C 50.75 1.25 45.972656 1.84375 40.828125 1.84375 C 36.410156 1.84375 32.078125 1.390625 27.828125 0.484375 C 23.578125 -0.410156 20.019531 -1.53125 17.15625 -2.875 C 14.300781 -4.226562 11.726562 -5.554688 9.4375 -6.859375 C 7.144531 -8.171875 5.46875 -9.273438 4.40625 -10.171875 L 2.8125 -11.53125 L 14.34375 -30.890625 C 15.320312 -30.078125 16.671875 -29.035156 18.390625 -27.765625 C 20.109375 -26.503906 23.148438 -24.8125 27.515625 -22.6875 C 31.890625 -20.5625 35.753906 -19.5 39.109375 -19.5 C 48.835938 -19.5 53.703125 -22.804688 53.703125 -29.421875 C 53.703125 -30.804688 53.351562 -32.09375 52.65625 -33.28125 C 51.957031 -34.46875 50.726562 -35.648438 48.96875 -36.828125 C 47.21875 -38.015625 45.664062 -38.957031 44.3125 -39.65625 C 42.96875 -40.351562 40.757812 -41.414062 37.6875 -42.84375 C 34.625 -44.269531 32.359375 -45.351562 30.890625 -46.09375 C 24.765625 -49.113281 20.023438 -52.890625 16.671875 -57.421875 C 13.316406 -61.960938 11.640625 -66.847656 11.640625 -72.078125 C 11.640625 -81.148438 14.988281 -88.566406 21.6875 -94.328125 C 28.394531 -100.097656 36.039062 -102.984375 44.625 -102.984375 Z M 44.625 -102.984375 "/></g></g></g><g fill="#fc8eac" fill-opacity="1"><g transform="translate(458.278604, 202.778664)"><g><path d="M 0.984375 -80.90625 L 0.984375 -101.140625 L 72.078125 -101.140625 L 72.078125 -80.90625 L 48.0625 -80.90625 L 48.0625 0 L 25.015625 0 L 25.015625 -80.90625 Z M 0.984375 -80.90625 "/></g></g></g><g fill="#fc8eac" fill-opacity="1"><g transform="translate(531.346024, 202.778664)"><g><path d="M 7.359375 -101.140625 L 43.515625 -101.140625 C 53.242188 -101.140625 61.171875 -98.546875 67.296875 -93.359375 C 73.429688 -88.171875 76.5 -80.753906 76.5 -71.109375 C 76.5 -63.671875 74.640625 -57.4375 70.921875 -52.40625 C 67.203125 -47.382812 62.15625 -43.847656 55.78125 -41.796875 L 90.59375 0 L 61.296875 0 L 30.40625 -39.96875 L 30.40625 0 L 7.359375 0 Z M 30.40625 -56.265625 L 33.09375 -56.265625 C 35.21875 -56.265625 37.015625 -56.304688 38.484375 -56.390625 C 39.960938 -56.472656 41.640625 -56.757812 43.515625 -57.25 C 45.398438 -57.738281 46.910156 -58.429688 48.046875 -59.328125 C 49.191406 -60.234375 50.171875 -61.539062 50.984375 -63.25 C 51.804688 -64.96875 52.21875 -67.050781 52.21875 -69.5 C 52.21875 -71.957031 51.804688 -74.046875 50.984375 -75.765625 C 50.171875 -77.484375 49.191406 -78.789062 48.046875 -79.6875 C 46.910156 -80.582031 45.398438 -81.273438 43.515625 -81.765625 C 41.640625 -82.253906 39.960938 -82.539062 38.484375 -82.625 C 37.015625 -82.707031 35.21875 -82.75 33.09375 -82.75 L 30.40625 -82.75 Z M 30.40625 -56.265625 "/></g></g></g><g fill="#fc8eac" fill-opacity="1"><g transform="translate(619.125018, 202.778664)"><g><path d="M 58.71875 -101.140625 L 99.546875 0 L 74.78125 0 L 67.296875 -20.234375 L 28.8125 -20.234375 L 21.328125 0 L -3.4375 0 L 37.390625 -101.140625 Z M 59.453125 -40.453125 L 48.171875 -69.875 L 47.9375 -69.875 L 36.65625 -40.453125 Z M 59.453125 -40.453125 "/></g></g></g><g fill="#fc8eac" fill-opacity="1"><g transform="translate(715.240556, 202.778664)"><g><path d="M 21.328125 -26.234375 C 25.253906 -26.234375 28.582031 -24.863281 31.3125 -22.125 C 34.050781 -19.382812 35.421875 -16.054688 35.421875 -12.140625 C 35.421875 -8.296875 34.050781 -5.003906 31.3125 -2.265625 C 28.582031 0.472656 25.253906 1.84375 21.328125 1.84375 C 17.484375 1.84375 14.191406 0.472656 11.453125 -2.265625 C 8.722656 -5.003906 7.359375 -8.296875 7.359375 -12.140625 C 7.359375 -16.054688 8.722656 -19.382812 11.453125 -22.125 C 14.191406 -24.863281 17.484375 -26.234375 21.328125 -26.234375 Z M 21.328125 -26.234375 "/></g></g></g><g fill="#fc8eac" fill-opacity="1"><g transform="translate(750.574784, 202.567589)"><g><path d="M 4.984375 -49.890625 L 15.671875 -49.890625 L 15.671875 -29.9375 L 35.640625 -29.9375 L 35.640625 -49.890625 L 46.328125 -49.890625 L 46.328125 0 L 35.640625 0 L 35.640625 -20.3125 L 15.671875 -20.3125 L 15.671875 0 L 4.984375 0 Z M 4.984375 -49.890625 "/></g></g></g><g fill="#fc8eac" fill-opacity="1"><g transform="translate(801.878351, 202.567589)"><g><path d="M 4.984375 -49.890625 L 38.84375 -49.890625 L 38.84375 -40.265625 L 15.671875 -40.265625 L 15.671875 -29.578125 L 37.421875 -29.578125 L 37.421875 -20.671875 L 15.671875 -20.671875 L 15.671875 -9.625 L 39.546875 -9.625 L 39.546875 0 L 4.984375 0 Z M 4.984375 -49.890625 "/></g></g></g><g fill="#fc8eac" fill-opacity="1"><g transform="translate(844.631319, 202.567589)"><g><path d="M 17.453125 -49.890625 L 30.640625 -49.890625 L 48.453125 0 L 37.421875 0 L 34.203125 -9.265625 L 13.890625 -9.265625 L 10.6875 0 L -0.359375 0 Z M 30.71875 -18.890625 L 24.234375 -37.765625 L 23.875 -37.765625 L 17.390625 -18.890625 Z M 30.71875 -18.890625 "/></g></g></g><g fill="#fc8eac" fill-opacity="1"><g transform="translate(892.728404, 202.567589)"><g><path d="M 4.984375 -49.890625 L 15.671875 -49.890625 L 15.671875 -9.625 L 38.484375 -9.625 L 38.484375 0 L 4.984375 0 Z M 4.984375 -49.890625 "/></g></g></g><g fill="#fc8eac" fill-opacity="1"><g transform="translate(932.631172, 202.567589)"><g><path d="M 16.03125 -40.265625 L 1.0625 -40.265625 L 1.0625 -49.890625 L 41.6875 -49.890625 L 41.6875 -40.265625 L 26.71875 -40.265625 L 26.71875 0 L 16.03125 0 Z M 16.03125 -40.265625 "/></g></g></g><g fill="#fc8eac" fill-opacity="1"><g transform="translate(975.38414, 202.567589)"><g><path d="M 4.984375 -49.890625 L 15.671875 -49.890625 L 15.671875 -29.9375 L 35.640625 -29.9375 L 35.640625 -49.890625 L 46.328125 -49.890625 L 46.328125 0 L 35.640625 0 L 35.640625 -20.3125 L 15.671875 -20.3125 L 15.671875 0 L 4.984375 0 Z M 4.984375 -49.890625 "/></g></g></g></svg>
