<svg xmlns="http://www.w3.org/2000/svg" xmlns:xlink="http://www.w3.org/1999/xlink" width="1366" zoomAndPan="magnify" viewBox="0 0 1024.5 237.75" height="317" preserveAspectRatio="xMidYMid meet" version="1.0"><defs><g/><clipPath id="cc405bdff8"><path d="M 4 4 L 204.628906 4 L 204.628906 232.253906 L 4 232.253906 Z M 4 4 " clip-rule="nonzero"/></clipPath></defs><g clip-path="url(#cc405bdff8)"><path fill="#fc8eac" d="M 189.203125 18.191406 C 180.179688 9.59375 168.089844 4.796875 155.625 4.839844 C 142.757812 4.886719 130.664062 9.921875 121.558594 19.027344 L 104.199219 36.386719 L 87.269531 19.460938 C 68.417969 0.609375 37.714844 0.015625 18.675781 18.691406 C -0.550781 37.542969 -0.664062 68.527344 18.335938 87.523438 L 110.265625 179.453125 C 120.757812 189.945312 121.246094 207.027344 110.957031 217.71875 C 100.433594 228.65625 82.957031 228.785156 72.269531 218.097656 L 49.5 195.328125 C 48.539062 194.367188 48.441406 192.847656 49.265625 191.761719 C 52.628906 187.339844 54.492188 181.71875 54.074219 175.664062 C 53.253906 163.707031 43.476562 154.09375 31.507812 153.46875 C 17.648438 152.746094 6.15625 163.90625 6.339844 177.65625 C 6.507812 190.390625 16.886719 200.898438 29.613281 201.21875 C 33.722656 201.320312 37.601562 200.382812 41.015625 198.652344 C 42.050781 198.125 43.308594 198.347656 44.128906 199.167969 L 67.652344 222.699219 C 74.207031 229.25 82.8125 232.523438 91.417969 232.523438 C 100.019531 232.523438 108.632812 229.246094 115.179688 222.699219 C 128.28125 209.59375 128.28125 188.273438 115.179688 175.171875 L 22.941406 82.921875 C 6.59375 66.574219 6.59375 39.980469 22.941406 23.632812 C 39.289062 7.285156 65.890625 7.285156 82.230469 23.632812 L 101.8125 43.214844 C 102.46875 43.871094 103.335938 44.179688 104.199219 44.15625 C 105.0625 44.179688 105.929688 43.871094 106.585938 43.214844 L 125.773438 24.023438 C 133.734375 16.066406 144.476562 11.378906 155.730469 11.355469 C 166.960938 11.335938 177.523438 15.695312 185.460938 23.632812 C 193.390625 31.570312 197.753906 42.117188 197.738281 53.34375 C 197.722656 64.601562 193.027344 75.355469 185.070312 83.320312 L 178.867188 89.519531 C 178.359375 90.03125 177.664062 90.316406 176.941406 90.316406 L 158.453125 90.316406 C 157.425781 90.316406 156.484375 89.738281 156.027344 88.820312 L 147.097656 70.960938 C 146.097656 68.957031 143.246094 68.957031 142.246094 70.960938 L 126.898438 101.628906 C 125.898438 103.632812 123.046875 103.632812 122.046875 101.628906 L 116.808594 91.140625 C 115.808594 89.140625 112.953125 89.140625 111.957031 91.140625 L 106.714844 101.625 C 105.71875 103.625 102.863281 103.625 101.867188 101.625 L 86.527344 70.949219 C 85.53125 68.945312 82.675781 68.945312 81.675781 70.949219 L 72.746094 88.808594 C 72.285156 89.726562 71.347656 90.304688 70.320312 90.304688 L 53.957031 90.304688 C 52.175781 90.304688 50.621094 91.679688 50.566406 93.464844 C 50.515625 95.308594 51.988281 96.816406 53.824219 96.816406 L 74.347656 96.816406 C 75.375 96.816406 76.316406 96.238281 76.773438 95.320312 L 81.675781 85.503906 C 82.675781 83.503906 85.53125 83.503906 86.527344 85.503906 L 101.867188 116.179688 C 102.863281 118.183594 105.71875 118.183594 106.714844 116.179688 L 111.957031 105.699219 C 112.953125 103.695312 115.808594 103.695312 116.808594 105.699219 L 122.046875 116.1875 C 123.046875 118.1875 125.898438 118.1875 126.898438 116.1875 L 142.234375 85.511719 C 143.234375 83.515625 146.089844 83.507812 147.085938 85.511719 L 151.996094 95.324219 C 152.457031 96.242188 153.394531 96.824219 154.421875 96.824219 L 179.40625 96.824219 C 179.40625 96.824219 179.40625 96.824219 179.410156 96.824219 L 179.417969 96.824219 C 179.617188 96.824219 179.8125 96.800781 180.003906 96.769531 C 180.011719 96.769531 180.03125 96.761719 180.039062 96.761719 C 180.230469 96.726562 180.421875 96.671875 180.597656 96.601562 C 180.617188 96.59375 180.632812 96.589844 180.648438 96.582031 C 180.828125 96.507812 181 96.414062 181.164062 96.3125 C 181.179688 96.300781 181.195312 96.296875 181.210938 96.285156 C 181.386719 96.164062 181.546875 96.035156 181.699219 95.890625 C 181.707031 95.882812 181.707031 95.882812 181.710938 95.878906 L 189.589844 88 C 198.910156 78.679688 204.351562 66.054688 204.25 52.871094 C 204.140625 39.6875 198.796875 27.332031 189.203125 18.191406 Z M 12.851562 177.332031 C 12.851562 167.742188 20.652344 159.945312 30.234375 159.945312 C 39.816406 159.945312 47.617188 167.75 47.617188 177.332031 C 47.617188 186.917969 39.816406 194.714844 30.234375 194.714844 C 20.652344 194.714844 12.851562 186.917969 12.851562 177.332031 Z M 12.851562 177.332031 " fill-opacity="1" fill-rule="nonzero"/></g><g fill="#fc8eac" fill-opacity="1"><g transform="translate(204.378282, 165.703035)"><g><path d="M 87.75 -24.203125 L 35.328125 -24.203125 L 25.328125 0 L -1.453125 0 L 48.875 -112.921875 L 74.6875 -112.921875 L 125.171875 0 L 97.75 0 Z M 79.53125 -44.03125 L 61.625 -87.265625 L 43.71875 -44.03125 Z M 79.53125 -44.03125 "/></g></g></g><g fill="#fc8eac" fill-opacity="1"><g transform="translate(327.928344, 165.703035)"><g><path d="M 50.484375 1.9375 C 41.566406 1.9375 32.9375 0.726562 24.59375 -1.6875 C 16.257812 -4.113281 9.566406 -7.257812 4.515625 -11.125 L 13.390625 -30.8125 C 18.222656 -27.257812 23.972656 -24.40625 30.640625 -22.25 C 37.316406 -20.101562 43.988281 -19.03125 50.65625 -19.03125 C 58.070312 -19.03125 63.550781 -20.132812 67.09375 -22.34375 C 70.644531 -24.550781 72.421875 -27.484375 72.421875 -31.140625 C 72.421875 -33.828125 71.375 -36.054688 69.28125 -37.828125 C 67.1875 -39.597656 64.5 -41.019531 61.21875 -42.09375 C 57.9375 -43.175781 53.5 -44.363281 47.90625 -45.65625 C 39.300781 -47.695312 32.253906 -49.738281 26.765625 -51.78125 C 21.285156 -53.820312 16.582031 -57.097656 12.65625 -61.609375 C 8.738281 -66.128906 6.78125 -72.15625 6.78125 -79.6875 C 6.78125 -86.25 8.550781 -92.191406 12.09375 -97.515625 C 15.644531 -102.835938 20.992188 -107.054688 28.140625 -110.171875 C 35.296875 -113.296875 44.035156 -114.859375 54.359375 -114.859375 C 61.566406 -114.859375 68.609375 -113.992188 75.484375 -112.265625 C 82.367188 -110.546875 88.394531 -108.078125 93.5625 -104.859375 L 85.5 -85.015625 C 75.0625 -90.929688 64.628906 -93.890625 54.203125 -93.890625 C 46.890625 -93.890625 41.484375 -92.703125 37.984375 -90.328125 C 34.492188 -87.960938 32.75 -84.847656 32.75 -80.984375 C 32.75 -77.109375 34.765625 -74.226562 38.796875 -72.34375 C 42.828125 -70.46875 48.984375 -68.613281 57.265625 -66.78125 C 65.867188 -64.738281 72.910156 -62.695312 78.390625 -60.65625 C 83.878906 -58.613281 88.585938 -55.382812 92.515625 -50.96875 C 96.441406 -46.5625 98.40625 -40.59375 98.40625 -33.0625 C 98.40625 -26.613281 96.601562 -20.726562 93 -15.40625 C 89.394531 -10.082031 83.988281 -5.859375 76.78125 -2.734375 C 69.582031 0.378906 60.816406 1.9375 50.484375 1.9375 Z M 50.484375 1.9375 "/></g></g></g><g fill="#fc8eac" fill-opacity="1"><g transform="translate(430.832962, 165.703035)"><g><path d="M 36.78125 -91.625 L 0.640625 -91.625 L 0.640625 -112.921875 L 99.046875 -112.921875 L 99.046875 -91.625 L 62.90625 -91.625 L 62.90625 0 L 36.78125 0 Z M 36.78125 -91.625 "/></g></g></g><g fill="#fc8eac" fill-opacity="1"><g transform="translate(530.511749, 165.703035)"><g><path d="M 85.328125 0 L 63.5625 -31.453125 L 39.515625 -31.453125 L 39.515625 0 L 13.390625 0 L 13.390625 -112.921875 L 62.265625 -112.921875 C 72.265625 -112.921875 80.945312 -111.253906 88.3125 -107.921875 C 95.6875 -104.585938 101.363281 -99.851562 105.34375 -93.71875 C 109.320312 -87.59375 111.3125 -80.335938 111.3125 -71.953125 C 111.3125 -63.554688 109.289062 -56.320312 105.25 -50.25 C 101.21875 -44.175781 95.492188 -39.523438 88.078125 -36.296875 L 113.40625 0 Z M 84.84375 -71.953125 C 84.84375 -78.296875 82.800781 -83.160156 78.71875 -86.546875 C 74.632812 -89.929688 68.664062 -91.625 60.8125 -91.625 L 39.515625 -91.625 L 39.515625 -52.265625 L 60.8125 -52.265625 C 68.664062 -52.265625 74.632812 -53.984375 78.71875 -57.421875 C 82.800781 -60.867188 84.84375 -65.710938 84.84375 -71.953125 Z M 84.84375 -71.953125 "/></g></g></g><g fill="#fc8eac" fill-opacity="1"><g transform="translate(649.061741, 165.703035)"><g><path d="M 87.75 -24.203125 L 35.328125 -24.203125 L 25.328125 0 L -1.453125 0 L 48.875 -112.921875 L 74.6875 -112.921875 L 125.171875 0 L 97.75 0 Z M 79.53125 -44.03125 L 61.625 -87.265625 L 43.71875 -44.03125 Z M 79.53125 -44.03125 "/></g></g></g><g fill="#fc8eac" fill-opacity="1"><g transform="translate(772.611803, 165.703035)"><g><path d="M 21.125 1.296875 C 16.71875 1.296875 13.007812 -0.207031 10 -3.21875 C 6.988281 -6.238281 5.484375 -10.003906 5.484375 -14.515625 C 5.484375 -19.140625 6.988281 -22.875 10 -25.71875 C 13.007812 -28.570312 16.71875 -30 21.125 -30 C 25.539062 -30 29.253906 -28.570312 32.265625 -25.71875 C 35.273438 -22.875 36.78125 -19.140625 36.78125 -14.515625 C 36.78125 -10.003906 35.273438 -6.238281 32.265625 -3.21875 C 29.253906 -0.207031 25.539062 1.296875 21.125 1.296875 Z M 21.125 1.296875 "/></g></g></g><g fill="#fc8eac" fill-opacity="1"><g transform="translate(811.596835, 164.862686)"><g><path d="M 5.890625 0 L 5.890625 -48.59375 L 11.765625 -48.59375 L 11.765625 -26.953125 L 37.671875 -26.953125 L 37.671875 -48.59375 L 43.5625 -48.59375 L 43.5625 0 L 37.671875 0 L 37.671875 -21.734375 L 11.765625 -21.734375 L 11.765625 0 Z M 5.890625 0 "/></g></g></g><g fill="#fc8eac" fill-opacity="1"><g transform="translate(861.029826, 164.862686)"><g><path d="M 20.40625 0.765625 C 16.894531 0.765625 13.867188 -0.015625 11.328125 -1.578125 C 8.785156 -3.140625 6.832031 -5.320312 5.46875 -8.125 C 4.101562 -10.9375 3.421875 -14.207031 3.421875 -17.9375 C 3.421875 -21.664062 4.101562 -24.957031 5.46875 -27.8125 C 6.832031 -30.664062 8.742188 -32.894531 11.203125 -34.5 C 13.671875 -36.113281 16.546875 -36.921875 19.828125 -36.921875 C 21.734375 -36.921875 23.609375 -36.601562 25.453125 -35.96875 C 27.304688 -35.332031 28.992188 -34.304688 30.515625 -32.890625 C 32.035156 -31.472656 33.242188 -29.601562 34.140625 -27.28125 C 35.046875 -24.957031 35.5 -22.097656 35.5 -18.703125 L 35.5 -16.328125 L 9.046875 -16.328125 C 9.171875 -12.429688 10.269531 -9.445312 12.34375 -7.375 C 14.425781 -5.300781 17.113281 -4.265625 20.40625 -4.265625 C 22.601562 -4.265625 24.492188 -4.738281 26.078125 -5.6875 C 27.660156 -6.644531 28.804688 -8.070312 29.515625 -9.96875 L 34.921875 -8.453125 C 34.066406 -5.691406 32.359375 -3.460938 29.796875 -1.765625 C 27.234375 -0.078125 24.101562 0.765625 20.40625 0.765625 Z M 9.046875 -21.15625 L 29.796875 -21.15625 C 29.796875 -24.25 28.894531 -26.8125 27.09375 -28.84375 C 25.289062 -30.875 22.867188 -31.890625 19.828125 -31.890625 C 17.691406 -31.890625 15.84375 -31.390625 14.28125 -30.390625 C 12.71875 -29.390625 11.484375 -28.070312 10.578125 -26.4375 C 9.679688 -24.800781 9.171875 -23.039062 9.046875 -21.15625 Z M 9.046875 -21.15625 "/></g></g></g><g fill="#fc8eac" fill-opacity="1"><g transform="translate(899.931031, 164.862686)"><g><path d="M 15.84375 0.859375 C 13.539062 0.859375 11.445312 0.421875 9.5625 -0.453125 C 7.675781 -1.335938 6.179688 -2.613281 5.078125 -4.28125 C 3.972656 -5.945312 3.421875 -7.96875 3.421875 -10.34375 C 3.421875 -12.425781 3.832031 -14.117188 4.65625 -15.421875 C 5.476562 -16.734375 6.578125 -17.757812 7.953125 -18.5 C 9.328125 -19.25 10.847656 -19.804688 12.515625 -20.171875 C 14.179688 -20.546875 15.863281 -20.84375 17.5625 -21.0625 C 19.769531 -21.351562 21.566406 -21.570312 22.953125 -21.71875 C 24.335938 -21.875 25.347656 -22.128906 25.984375 -22.484375 C 26.628906 -22.847656 26.953125 -23.484375 26.953125 -24.390625 L 26.953125 -24.578125 C 26.953125 -26.921875 26.316406 -28.738281 25.046875 -30.03125 C 23.773438 -31.332031 21.847656 -31.984375 19.265625 -31.984375 C 16.585938 -31.984375 14.488281 -31.394531 12.96875 -30.21875 C 11.457031 -29.050781 10.394531 -27.804688 9.78125 -26.484375 L 4.453125 -28.375 C 5.410156 -30.59375 6.679688 -32.320312 8.265625 -33.5625 C 9.859375 -34.800781 11.597656 -35.671875 13.484375 -36.171875 C 15.378906 -36.671875 17.242188 -36.921875 19.078125 -36.921875 C 20.242188 -36.921875 21.585938 -36.78125 23.109375 -36.5 C 24.640625 -36.226562 26.117188 -35.664062 27.546875 -34.8125 C 28.984375 -33.957031 30.175781 -32.664062 31.125 -30.9375 C 32.070312 -29.21875 32.546875 -26.910156 32.546875 -24.015625 L 32.546875 0 L 26.953125 0 L 26.953125 -4.9375 L 26.671875 -4.9375 C 26.285156 -4.144531 25.648438 -3.296875 24.765625 -2.390625 C 23.878906 -1.492188 22.703125 -0.726562 21.234375 -0.09375 C 19.765625 0.539062 17.96875 0.859375 15.84375 0.859375 Z M 16.703125 -4.171875 C 18.921875 -4.171875 20.789062 -4.601562 22.3125 -5.46875 C 23.84375 -6.34375 25 -7.46875 25.78125 -8.84375 C 26.5625 -10.21875 26.953125 -11.664062 26.953125 -13.1875 L 26.953125 -18.3125 C 26.710938 -18.03125 26.191406 -17.773438 25.390625 -17.546875 C 24.597656 -17.316406 23.679688 -17.117188 22.640625 -16.953125 C 21.609375 -16.785156 20.601562 -16.640625 19.625 -16.515625 C 18.65625 -16.398438 17.867188 -16.304688 17.265625 -16.234375 C 15.816406 -16.035156 14.460938 -15.726562 13.203125 -15.3125 C 11.941406 -14.894531 10.925781 -14.269531 10.15625 -13.4375 C 9.394531 -12.601562 9.015625 -11.476562 9.015625 -10.0625 C 9.015625 -8.113281 9.738281 -6.644531 11.1875 -5.65625 C 12.632812 -4.664062 14.472656 -4.171875 16.703125 -4.171875 Z M 16.703125 -4.171875 "/></g></g></g><g fill="#fc8eac" fill-opacity="1"><g transform="translate(937.598773, 164.862686)"><g><path d="M 10.71875 -48.59375 L 10.71875 0 L 5.125 0 L 5.125 -48.59375 Z M 10.71875 -48.59375 "/></g></g></g><g fill="#fc8eac" fill-opacity="1"><g transform="translate(953.443869, 164.862686)"><g><path d="M 20.96875 -36.4375 L 20.96875 -31.703125 L 13.1875 -31.703125 L 13.1875 -10.4375 C 13.1875 -8.851562 13.421875 -7.671875 13.890625 -6.890625 C 14.359375 -6.109375 14.957031 -5.585938 15.6875 -5.328125 C 16.425781 -5.066406 17.207031 -4.9375 18.03125 -4.9375 C 18.644531 -4.9375 19.148438 -4.972656 19.546875 -5.046875 C 19.941406 -5.117188 20.257812 -5.175781 20.5 -5.21875 L 21.640625 -0.1875 C 21.253906 -0.0390625 20.722656 0.101562 20.046875 0.25 C 19.367188 0.394531 18.507812 0.46875 17.46875 0.46875 C 15.882812 0.46875 14.335938 0.128906 12.828125 -0.546875 C 11.316406 -1.222656 10.066406 -2.253906 9.078125 -3.640625 C 8.085938 -5.035156 7.59375 -6.796875 7.59375 -8.921875 L 7.59375 -31.703125 L 2.09375 -31.703125 L 2.09375 -36.4375 L 7.59375 -36.4375 L 7.59375 -45.171875 L 13.1875 -45.171875 L 13.1875 -36.4375 Z M 20.96875 -36.4375 "/></g></g></g><g fill="#fc8eac" fill-opacity="1"><g transform="translate(977.733389, 164.862686)"><g><path d="M 10.71875 -21.921875 L 10.71875 0 L 5.125 0 L 5.125 -48.59375 L 10.71875 -48.59375 L 10.71875 -30.75 L 11.203125 -30.75 C 12.054688 -32.632812 13.335938 -34.132812 15.046875 -35.25 C 16.765625 -36.363281 19.054688 -36.921875 21.921875 -36.921875 C 25.648438 -36.921875 28.65625 -35.796875 30.9375 -33.546875 C 33.21875 -31.296875 34.359375 -27.832031 34.359375 -23.15625 L 34.359375 0 L 28.75 0 L 28.75 -22.78125 C 28.75 -25.675781 28 -27.914062 26.5 -29.5 C 25.007812 -31.09375 22.945312 -31.890625 20.3125 -31.890625 C 17.539062 -31.890625 15.25 -31.019531 13.4375 -29.28125 C 11.625 -27.550781 10.71875 -25.097656 10.71875 -21.921875 Z M 10.71875 -21.921875 "/></g></g></g></svg>