<svg xmlns="http://www.w3.org/2000/svg" xmlns:xlink="http://www.w3.org/1999/xlink" width="1366" zoomAndPan="magnify" viewBox="0 0 1024.5 411.74999" height="549" preserveAspectRatio="xMidYMid meet" version="1.0"><defs><clipPath id="338f09c242"><path d="M 370 44 L 660.878906 44 L 660.878906 374.429688 L 370 374.429688 Z M 370 44 " clip-rule="nonzero"/></clipPath></defs><g clip-path="url(#338f09c242)"><path fill="#fc8eac" d="M 638.679688 63.523438 C 625.59375 51.050781 608.054688 44.09375 589.980469 44.15625 C 571.3125 44.226562 553.773438 51.53125 540.570312 64.734375 L 515.386719 89.914062 L 490.835938 65.363281 C 463.492188 38.019531 418.960938 37.160156 391.347656 64.246094 C 363.460938 91.589844 363.296875 136.53125 390.851562 164.082031 L 524.1875 297.414062 C 539.40625 312.632812 540.113281 337.410156 525.191406 352.914062 C 509.925781 368.777344 484.582031 368.964844 469.078125 353.464844 L 436.050781 320.4375 C 434.660156 319.042969 434.519531 316.839844 435.714844 315.269531 C 440.59375 308.855469 443.292969 300.703125 442.6875 291.921875 C 441.5 274.578125 427.316406 260.632812 409.960938 259.726562 C 389.855469 258.679688 373.1875 274.867188 373.453125 294.808594 C 373.699219 313.277344 388.753906 328.519531 407.210938 328.984375 C 413.167969 329.132812 418.796875 327.769531 423.746094 325.261719 C 425.25 324.496094 427.074219 324.820312 428.261719 326.007812 L 462.382812 360.136719 C 471.886719 369.640625 484.367188 374.386719 496.847656 374.386719 C 509.328125 374.386719 521.816406 369.632812 531.316406 360.136719 C 550.320312 341.132812 550.320312 310.207031 531.316406 291.203125 L 397.535156 157.40625 C 373.824219 133.699219 373.824219 95.125 397.535156 71.414062 C 421.242188 47.707031 459.824219 47.707031 483.527344 71.414062 L 511.925781 99.8125 C 512.878906 100.765625 514.136719 101.214844 515.386719 101.183594 C 516.640625 101.214844 517.898438 100.765625 518.851562 99.8125 L 546.683594 71.980469 C 558.226562 60.4375 573.808594 53.636719 590.128906 53.605469 C 606.417969 53.574219 621.738281 59.902344 633.25 71.414062 C 644.753906 82.925781 651.082031 98.222656 651.058594 114.503906 C 651.035156 130.832031 644.226562 146.429688 632.683594 157.980469 L 623.6875 166.976562 C 622.949219 167.714844 621.941406 168.132812 620.894531 168.132812 L 594.078125 168.132812 C 592.589844 168.132812 591.222656 167.289062 590.5625 165.960938 L 577.609375 140.054688 C 576.160156 137.152344 572.019531 137.152344 570.574219 140.054688 L 548.3125 184.539062 C 546.863281 187.441406 542.726562 187.441406 541.277344 184.539062 L 533.675781 169.328125 C 532.226562 166.425781 528.089844 166.425781 526.640625 169.328125 L 519.039062 184.53125 C 517.589844 187.433594 513.453125 187.433594 512.003906 184.53125 L 489.757812 140.039062 C 488.3125 137.136719 484.171875 137.136719 482.722656 140.039062 L 469.769531 165.945312 C 469.101562 167.273438 467.742188 168.117188 466.253906 168.117188 L 442.519531 168.117188 C 439.933594 168.117188 437.679688 170.109375 437.601562 172.695312 C 437.523438 175.371094 439.664062 177.558594 442.324219 177.558594 L 472.09375 177.558594 C 473.578125 177.558594 474.949219 176.71875 475.609375 175.386719 L 482.722656 161.152344 C 484.171875 158.25 488.3125 158.25 489.757812 161.152344 L 512.003906 205.644531 C 513.453125 208.546875 517.589844 208.546875 519.039062 205.644531 L 526.640625 190.441406 C 528.089844 187.539062 532.226562 187.539062 533.675781 190.441406 L 541.277344 205.652344 C 542.726562 208.554688 546.863281 208.554688 548.3125 205.652344 L 570.558594 161.160156 C 572.003906 158.265625 576.144531 158.257812 577.59375 161.160156 L 584.714844 175.394531 C 585.382812 176.726562 586.746094 177.566406 588.230469 177.566406 L 624.46875 177.566406 C 624.46875 177.566406 624.46875 177.566406 624.476562 177.566406 L 624.484375 177.566406 C 624.773438 177.566406 625.058594 177.535156 625.335938 177.488281 C 625.351562 177.488281 625.375 177.480469 625.390625 177.480469 C 625.664062 177.425781 625.941406 177.347656 626.199219 177.246094 C 626.222656 177.238281 626.246094 177.230469 626.269531 177.222656 C 626.53125 177.109375 626.78125 176.976562 627.019531 176.828125 C 627.042969 176.8125 627.066406 176.804688 627.089844 176.789062 C 627.339844 176.617188 627.578125 176.425781 627.796875 176.214844 C 627.804688 176.207031 627.804688 176.207031 627.8125 176.199219 L 639.238281 164.773438 C 652.757812 151.253906 660.648438 132.941406 660.5 113.820312 C 660.34375 94.699219 652.59375 76.78125 638.679688 63.523438 Z M 382.898438 294.335938 C 382.898438 280.429688 394.214844 269.125 408.109375 269.125 C 422.007812 269.125 433.320312 280.4375 433.320312 294.335938 C 433.320312 308.242188 422.007812 319.546875 408.109375 319.546875 C 394.214844 319.546875 382.898438 308.242188 382.898438 294.335938 Z M 382.898438 294.335938 " fill-opacity="1" fill-rule="nonzero"/></g></svg>